<svg width="207" height="143" viewBox="0 0 207 143" fill="none" xmlns="http://www.w3.org/2000/svg">
<g clip-path="url(#clip0_3083_5527)">
<mask id="path-1-inside-1_3083_5527" fill="white">
<path d="M159.05 18.26H169.54C170.02 18.26 171.29 19.17 171.58 19.64C172.95 22.94 173.19 26.69 174.23 30.12C175.68 30.72 177.07 31.58 178.54 32.05C180.97 30.86 183.22 28.3 185.54 27.1C187.11 26.29 188.36 26.53 189.76 27.55C192.59 31.2 197.36 34.5 200.08 38.04C200.53 38.62 200.93 39.49 200.98 40.23C201.11 42.65 197.2 45.89 195.73 47.86C195.57 48.07 195.05 48.66 195.07 48.85L196.68 52.71C200.69 54.09 206.57 52.83 206.83 58.6C206.87 59.43 206.65 60.11 206.65 60.82C206.62 63.78 206.89 67.15 206.66 70.04C206.23 75.56 200.67 74.08 196.75 75.14C196.57 76.43 195.37 78.29 195.25 79.46C195.18 80.14 198.66 84.16 199.18 85.35C199.96 87.14 199.68 88.36 198.47 89.82C196.51 92.19 191.72 96.99 189.34 98.94C188.07 99.98 186.83 100.39 185.23 99.8C183.94 99.32 179.59 95.29 178.83 95.44C177.89 95.62 175.93 97.06 174.79 97.28C174.01 99.59 174 102.97 173 105.13C172.35 106.53 171.05 107.18 169.55 107.31C165.74 107.64 161.47 107.05 157.61 107.31C156.19 108.48 154.75 109.53 152.84 109.7H8.65001C4.53001 109.29 1.14001 106.25 0.290007 102.2C-0.289993 71.43 0.210007 40.59 0.0300073 9.81002C0.290007 4.36002 4.24001 0.370018 9.67001 1.76441e-05H149.24C154.12 -0.0399824 159.21 4.51002 159.21 9.47002V18C159.21 18.05 158.99 18.13 159.04 18.26H159.05ZM2.26001 9.30002V25.08H151.54C152.02 21.5 152.26 17.67 157 18.26C156.68 13.51 158.28 7.46002 154.08 4.03002C152.62 2.84002 150.89 2.45002 149.06 2.23002H10.36C6.30001 2.23002 2.70001 5.22002 2.26001 9.31002V9.30002ZM194.92 54.37L192.87 49C192.58 47.9 193.57 47.09 194.2 46.32C195.4 44.83 197.12 43.29 198.19 41.78C198.92 40.75 199.03 39.98 198.12 38.98C196.86 37.59 195.05 36.13 193.68 34.72C192.23 33.22 189.92 30.29 188.31 29.17C187.61 28.68 187.25 28.73 186.51 29.08C184.46 30.02 181.74 32.89 179.58 34.09C179.37 34.21 179.11 34.39 178.88 34.43C177.63 34.67 174.4 32.17 172.92 31.94L172.38 31.46L169.88 21C169.63 20.61 169.15 20.46 168.7 20.47L155.25 20.51C154.84 20.62 154.5 20.92 154.36 21.32C153.58 24.34 153.34 27.77 152.52 30.74C152.45 31 152.32 31.6 152.11 31.74C151.7 32.01 150.51 32.33 149.95 32.6C148.98 33.07 146.19 34.73 145.34 34.62C143.56 34.4 139.81 30.16 138.16 30.01C137.46 29.95 136.89 30.15 136.36 30.61L127.25 39.75C126.97 40.3 126.83 40.95 127.18 41.5L132.35 47.41L132.74 48.48C132.1 49.59 131.19 54.06 130.5 54.74C129.81 55.42 124.67 56 123.27 56.56C122.42 56.9 122.29 57.34 122.21 58.23C121.92 61.32 122.28 65.11 122.22 68.31C122.2 69.75 121.51 70.98 123.36 71.76C125.37 72.61 128.5 72.57 130.49 73.33C130.65 73.39 130.82 73.42 130.9 73.6C131.13 75.36 133.53 78.83 133.3 80.4C133.05 82.09 128.78 85.26 128.56 87.11C128.48 87.82 128.93 88.44 129.38 88.95C132.51 91.07 135.47 95.81 138.44 97.8C139.12 98.26 139.43 98.36 140.2 98.05C142.03 97.33 144.36 94.49 146.21 93.49C146.53 93.32 146.92 93.13 147.3 93.19C148.4 94 152.32 95.05 153 95.85C153.35 96.25 153.56 97.3 153.72 97.86C154.12 99.21 154.99 103.85 155.64 104.64C156.03 105.12 156.5 105.18 157.09 105.24C160.07 105.52 165.32 105.44 168.36 105.24C169.47 105.17 170.67 105.1 171.18 103.96C171.84 102.48 172.01 99.54 172.41 97.85C172.55 97.23 172.83 95.87 173.32 95.52C174.9 95.2 177.79 92.98 179.25 93.12C180.62 93.25 184.13 96.72 185.61 97.52C186.6 98.05 187.03 97.96 187.89 97.3C189.73 95.88 195.44 90.18 196.85 88.35C197.43 87.6 197.62 87.16 197.25 86.23C196.53 84.41 193.96 82.31 193.2 80.56C192.98 80.06 192.94 79.82 193.04 79.26C193.18 78.52 194.6 74.55 194.96 73.85C195.08 73.61 195.16 73.42 195.39 73.26C196.22 72.67 201.28 72.42 202.73 72.07C203.62 71.86 204.19 71.64 204.39 70.66C204.86 68.35 204.89 60.33 204.6 57.9C204.49 56.96 204.09 56.65 203.28 56.32C201.82 55.74 195.52 55.01 194.92 54.36V54.37ZM151.03 27.3H2.26001V100.89C2.26001 103.89 5.79001 107.4 8.82001 107.46H152.66C153.02 107.5 154.78 106.94 154.78 106.69C152.53 105.61 152.37 98.13 151.1 97.24C150.21 96.62 148.08 96.17 147.05 95.54C143.62 97.57 140.94 102.66 136.7 99.18C133.31 96.39 129.96 92.2 126.85 89.07C125.97 87.21 126.61 85.75 127.69 84.2C128.38 83.2 130.94 80.75 130.91 79.75C130.88 78.64 129.35 76.52 129.15 75.26C126.17 74.26 120.39 74.73 119.98 70.53C119.9 69.74 120.15 69.16 120.16 68.49C120.2 65.13 119.79 60.76 120.16 57.57C120.21 57.16 120.5 56.24 120.71 55.9C121.88 54.02 126.85 53.83 128.86 53.13C129.04 53 130.39 49.07 130.4 48.85C130.41 48.47 129.97 48 129.71 47.68C127.68 45.09 123 42 125.55 38.39C128.64 35.6 131.45 32.03 134.58 29.34C136 28.12 137.21 27.37 139.2 27.97L145.65 32.38C146.34 31.98 147.02 31.57 147.75 31.24C148.25 31.01 150.12 30.35 150.37 30.11C150.78 29.72 150.87 27.92 151.05 27.3H151.03Z"/>
</mask>
<path d="M159.05 18.26H169.54C170.02 18.26 171.29 19.17 171.58 19.64C172.95 22.94 173.19 26.69 174.23 30.12C175.68 30.72 177.07 31.58 178.54 32.05C180.97 30.86 183.22 28.3 185.54 27.1C187.11 26.29 188.36 26.53 189.76 27.55C192.59 31.2 197.36 34.5 200.08 38.04C200.53 38.62 200.93 39.49 200.98 40.23C201.11 42.65 197.2 45.89 195.73 47.86C195.57 48.07 195.05 48.66 195.07 48.85L196.68 52.71C200.69 54.09 206.57 52.83 206.83 58.6C206.87 59.43 206.65 60.11 206.65 60.82C206.62 63.78 206.89 67.15 206.66 70.04C206.23 75.56 200.67 74.08 196.75 75.14C196.57 76.43 195.37 78.29 195.25 79.46C195.18 80.14 198.66 84.16 199.18 85.35C199.96 87.14 199.68 88.36 198.47 89.82C196.51 92.19 191.72 96.99 189.34 98.94C188.07 99.98 186.83 100.39 185.23 99.8C183.94 99.32 179.59 95.29 178.83 95.44C177.89 95.62 175.93 97.06 174.79 97.28C174.01 99.59 174 102.97 173 105.13C172.35 106.53 171.05 107.18 169.55 107.31C165.74 107.64 161.47 107.05 157.61 107.31C156.19 108.48 154.75 109.53 152.84 109.7H8.65001C4.53001 109.29 1.14001 106.25 0.290007 102.2C-0.289993 71.43 0.210007 40.59 0.0300073 9.81002C0.290007 4.36002 4.24001 0.370018 9.67001 1.76441e-05H149.24C154.12 -0.0399824 159.21 4.51002 159.21 9.47002V18C159.21 18.05 158.99 18.13 159.04 18.26H159.05ZM2.26001 9.30002V25.08H151.54C152.02 21.5 152.26 17.67 157 18.26C156.68 13.51 158.28 7.46002 154.08 4.03002C152.62 2.84002 150.89 2.45002 149.06 2.23002H10.36C6.30001 2.23002 2.70001 5.22002 2.26001 9.31002V9.30002ZM194.92 54.37L192.87 49C192.58 47.9 193.57 47.09 194.2 46.32C195.4 44.83 197.12 43.29 198.19 41.78C198.92 40.75 199.03 39.98 198.12 38.98C196.86 37.59 195.05 36.13 193.68 34.72C192.23 33.22 189.92 30.29 188.31 29.17C187.61 28.68 187.25 28.73 186.51 29.08C184.46 30.02 181.74 32.89 179.58 34.09C179.37 34.21 179.11 34.39 178.88 34.43C177.63 34.67 174.4 32.17 172.92 31.94L172.38 31.46L169.88 21C169.63 20.61 169.15 20.46 168.7 20.47L155.25 20.51C154.84 20.62 154.5 20.92 154.36 21.32C153.58 24.34 153.34 27.77 152.52 30.74C152.45 31 152.32 31.6 152.11 31.74C151.7 32.01 150.51 32.33 149.95 32.6C148.98 33.07 146.19 34.73 145.34 34.62C143.56 34.4 139.81 30.16 138.16 30.01C137.46 29.95 136.89 30.15 136.36 30.61L127.25 39.75C126.97 40.3 126.83 40.95 127.18 41.5L132.35 47.41L132.74 48.48C132.1 49.59 131.19 54.06 130.5 54.74C129.81 55.42 124.67 56 123.27 56.56C122.42 56.9 122.29 57.34 122.21 58.23C121.92 61.32 122.28 65.11 122.22 68.31C122.2 69.75 121.51 70.98 123.36 71.76C125.37 72.61 128.5 72.57 130.49 73.33C130.65 73.39 130.82 73.42 130.9 73.6C131.13 75.36 133.53 78.83 133.3 80.4C133.05 82.09 128.78 85.26 128.56 87.11C128.48 87.82 128.93 88.44 129.38 88.95C132.51 91.07 135.47 95.81 138.44 97.8C139.12 98.26 139.43 98.36 140.2 98.05C142.03 97.33 144.36 94.49 146.21 93.49C146.53 93.32 146.92 93.13 147.3 93.19C148.4 94 152.32 95.05 153 95.85C153.35 96.25 153.56 97.3 153.72 97.86C154.12 99.21 154.99 103.85 155.64 104.64C156.03 105.12 156.5 105.18 157.09 105.24C160.07 105.52 165.32 105.44 168.36 105.24C169.47 105.17 170.67 105.1 171.18 103.96C171.84 102.48 172.01 99.54 172.41 97.85C172.55 97.23 172.83 95.87 173.32 95.52C174.9 95.2 177.79 92.98 179.25 93.12C180.62 93.25 184.13 96.72 185.61 97.52C186.6 98.05 187.03 97.96 187.89 97.3C189.73 95.88 195.44 90.18 196.85 88.35C197.43 87.6 197.62 87.16 197.25 86.23C196.53 84.41 193.96 82.31 193.2 80.56C192.98 80.06 192.94 79.82 193.04 79.26C193.18 78.52 194.6 74.55 194.96 73.85C195.08 73.61 195.16 73.42 195.39 73.26C196.22 72.67 201.28 72.42 202.73 72.07C203.62 71.86 204.19 71.64 204.39 70.66C204.86 68.35 204.89 60.33 204.6 57.9C204.49 56.96 204.09 56.65 203.28 56.32C201.82 55.74 195.52 55.01 194.92 54.36V54.37ZM151.03 27.3H2.26001V100.89C2.26001 103.89 5.79001 107.4 8.82001 107.46H152.66C153.02 107.5 154.78 106.94 154.78 106.69C152.53 105.61 152.37 98.13 151.1 97.24C150.21 96.62 148.08 96.17 147.05 95.54C143.62 97.57 140.94 102.66 136.7 99.18C133.31 96.39 129.96 92.2 126.85 89.07C125.97 87.21 126.61 85.75 127.69 84.2C128.38 83.2 130.94 80.75 130.91 79.75C130.88 78.64 129.35 76.52 129.15 75.26C126.17 74.26 120.39 74.73 119.98 70.53C119.9 69.74 120.15 69.16 120.16 68.49C120.2 65.13 119.79 60.76 120.16 57.57C120.21 57.16 120.5 56.24 120.71 55.9C121.88 54.02 126.85 53.83 128.86 53.13C129.04 53 130.39 49.07 130.4 48.85C130.41 48.47 129.97 48 129.71 47.68C127.68 45.09 123 42 125.55 38.39C128.64 35.6 131.45 32.03 134.58 29.34C136 28.12 137.21 27.37 139.2 27.97L145.65 32.38C146.34 31.98 147.02 31.57 147.75 31.24C148.25 31.01 150.12 30.35 150.37 30.11C150.78 29.72 150.87 27.92 151.05 27.3H151.03Z" fill="#0E1516" stroke="black" stroke-width="98" mask="url(#path-1-inside-1_3083_5527)"/>
<path d="M101.89 127.75H118.1C119.17 116.16 133.7 111.96 141.13 121.02C149.08 130.71 139.51 145.34 127.32 141.82C121.92 140.26 118.41 135.46 117.84 129.96L102.08 129.98C101.31 139.1 91.8 145.06 83.33 140.95C79.3 138.99 76.16 134.53 76.14 129.97H60.44C60.38 136.05 55.36 141.37 49.42 142.23C38.12 143.87 30.81 130.93 37.07 121.69C43.83 111.72 59.35 115.99 60.54 127.75H76.14C76.59 120.83 83.21 115.45 90.05 115.97C96.03 116.42 101.65 121.67 101.9 127.75H101.89ZM46.58 118.25C32.77 119.61 34.35 141.33 48.57 140.2C62.57 139.09 60.91 116.84 46.58 118.25ZM81.48 121.16C71.04 131.32 86.35 147.07 96.61 137.05C106.87 127.03 91.66 111.25 81.48 121.16ZM129.67 118.25C121.27 119.19 117.05 129.38 122.38 136.02C128.68 143.87 141.28 139.91 141.82 129.88C142.18 123.1 136.47 117.48 129.67 118.25Z" fill="#0E1516"/>
<path d="M151.03 27.3C150.84 27.92 150.76 29.7201 150.35 30.1101C150.1 30.3501 148.23 31.01 147.73 31.24C147 31.57 146.32 31.9801 145.63 32.3801L139.18 27.97C137.19 27.37 135.98 28.12 134.56 29.34C131.43 32.04 128.62 35.6 125.53 38.39C122.99 42 127.66 45.09 129.69 47.68C129.94 48 130.39 48.47 130.38 48.85C130.38 49.08 129.03 53.0001 128.84 53.1301C126.84 53.8301 121.86 54.0201 120.69 55.9001C120.48 56.2401 120.19 57.16 120.14 57.57C119.78 60.7701 120.19 65.14 120.14 68.49C120.14 69.16 119.89 69.74 119.96 70.53C120.37 74.72 126.15 74.2601 129.13 75.2601C129.32 76.5101 130.86 78.64 130.89 79.75C130.92 80.76 128.36 83.21 127.67 84.2C126.59 85.75 125.96 87.21 126.83 89.07C129.94 92.2001 133.29 96.4001 136.68 99.1801C140.92 102.66 143.6 97.5701 147.03 95.5401C148.06 96.1701 150.19 96.62 151.08 97.2401C152.35 98.12 152.51 105.6 154.76 106.69C154.76 106.95 153 107.5 152.64 107.46H8.82001C5.79001 107.4 2.26001 103.88 2.26001 100.89V27.3H151.03ZM83.08 37.0601C80.73 37.4701 79.35 40.83 78.56 42.78C72.54 57.68 68.26 73.7901 62.56 88.8601C61.65 92.6301 65.54 96.49 69.19 94.47C71.73 93.07 73.43 87.39 74.43 84.7C79.51 71.03 84.22 57.13 88.57 43.23C88.96 40.1 86.53 36.47 83.09 37.07L83.08 37.0601ZM50.31 86.71C52.03 88.18 53.3 89.3001 55.73 88.3301C58.46 87.2401 59.54 84.0701 58.2 81.4801C53.81 76.1101 48.32 71.64 43.74 66.46L56.87 53.3101C60.47 50.2201 57.6 44.2401 53.04 44.8801C51.66 45.0701 50.28 46.49 49.27 47.42C43.55 52.68 38.12 58.6 32.89 64.31C31.59 67.44 33.21 69.5301 35.19 71.7301C39.37 76.3801 45.59 82.68 50.31 86.71ZM92.06 85.74C94.13 87.7 96.61 86.89 98.56 85.28C103.83 80.93 108.53 74.64 113.75 70.1101C115.41 68.34 115.8 65.7901 114.26 63.7901L98.14 47.67C93.31 43.8 87.46 50.69 91.82 55.01L103.59 66.77C103.17 67.11 102.92 67.57 102.57 67.9701C99.35 71.6201 94.84 75.01 91.81 78.71C90.04 80.8801 89.94 83.7401 92.05 85.7301L92.06 85.74Z" fill="#CBE1ED"/>
<path d="M194.92 54.37C195.52 55.02 201.82 55.75 203.28 56.33C204.1 56.65 204.49 56.97 204.6 57.91C204.89 60.34 204.85 68.35 204.39 70.67C204.19 71.65 203.62 71.87 202.73 72.08C201.28 72.42 196.22 72.68 195.39 73.27C195.16 73.43 195.08 73.63 194.96 73.86C194.6 74.57 193.18 78.53 193.04 79.27C192.94 79.83 192.98 80.07 193.2 80.57C193.96 82.32 196.53 84.43 197.25 86.24C197.62 87.17 197.42 87.61 196.85 88.36C195.44 90.19 189.73 95.89 187.89 97.31C187.03 97.98 186.6 98.07 185.61 97.53C184.13 96.73 180.62 93.27 179.25 93.13C177.79 92.99 174.9 95.21 173.32 95.53C172.83 95.88 172.55 97.24 172.41 97.86C172.02 99.55 171.84 102.49 171.18 103.97C170.67 105.11 169.47 105.18 168.36 105.25C165.32 105.44 160.07 105.53 157.09 105.25C156.51 105.2 156.03 105.13 155.64 104.65C154.99 103.86 154.12 99.22 153.72 97.87C153.56 97.32 153.34 96.27 153 95.86C152.31 95.06 148.4 94.01 147.3 93.2C146.92 93.14 146.53 93.32 146.21 93.5C144.36 94.5 142.02 97.33 140.2 98.06C139.42 98.37 139.12 98.27 138.44 97.81C135.47 95.81 132.51 91.08 129.38 88.96C128.94 88.45 128.48 87.83 128.56 87.12C128.78 85.27 133.05 82.1 133.3 80.41C133.53 78.85 131.14 75.38 130.9 73.61C130.82 73.43 130.65 73.4 130.49 73.34C128.5 72.58 125.37 72.63 123.36 71.77C121.52 70.99 122.2 69.75 122.22 68.32C122.27 65.13 121.92 61.33 122.21 58.24C122.29 57.36 122.42 56.92 123.27 56.57C124.67 56.01 129.8 55.43 130.5 54.75C131.2 54.07 132.1 49.6 132.74 48.49L132.35 47.42L127.18 41.51C126.83 40.96 126.97 40.3 127.25 39.76L136.36 30.62C136.88 30.16 137.45 29.96 138.16 30.02C139.82 30.17 143.56 34.4 145.34 34.63C146.19 34.74 148.99 33.08 149.95 32.61C150.51 32.34 151.7 32.02 152.11 31.75C152.32 31.61 152.45 31.02 152.52 30.75C153.33 27.78 153.57 24.35 154.36 21.33C154.5 20.92 154.84 20.63 155.25 20.52L168.7 20.48C169.15 20.47 169.63 20.62 169.88 21.01L172.38 31.47L172.92 31.95C174.4 32.18 177.64 34.68 178.88 34.44C179.11 34.4 179.37 34.22 179.58 34.1C181.74 32.9 184.46 30.03 186.51 29.09C187.26 28.75 187.61 28.7 188.31 29.18C189.92 30.3 192.22 33.23 193.68 34.73C195.05 36.14 196.86 37.6 198.12 38.99C199.03 39.99 198.93 40.75 198.19 41.79C197.12 43.3 195.4 44.84 194.2 46.33C193.58 47.1 192.58 47.91 192.87 49.01L194.92 54.38V54.37ZM161.57 43.38C146.17 44.31 137.37 60.64 144.63 74.2C152.32 88.57 173.17 88.73 181.02 74.42C188.93 60.01 178.02 42.38 161.57 43.38Z" fill="#D0D0FF"/>
<path d="M2.26001 9.29996C2.69001 5.20996 6.30001 2.22996 10.36 2.20996H149.07C150.9 2.43996 152.63 2.82996 154.09 4.01996C158.28 7.44996 156.69 13.5 157.01 18.25C152.27 17.66 152.03 21.49 151.55 25.07H2.26001V9.28996V9.29996ZM15.53 8.23996C8.33001 9.28996 9.26001 20.89 17.34 19.95C24.76 19.08 23.47 7.08996 15.53 8.23996ZM32.76 8.23996C25.59 9.27996 26.57 20.94 34.74 19.95C42.03 19.06 40.81 7.06996 32.76 8.23996ZM55.09 18.37C60.36 13.18 53.33 4.95996 47.56 9.39996C41 14.44 49.4 23.98 55.09 18.37Z" fill="#FEFEFE"/>
<path d="M129.67 118.25C136.47 117.49 142.18 123.11 141.82 129.88C141.28 139.91 128.67 143.87 122.38 136.02C117.06 129.38 121.28 119.19 129.67 118.25Z" fill="#CBE1ED"/>
<path d="M81.48 121.16C91.66 111.25 107.05 126.87 96.61 137.05C86.17 147.23 71.04 131.32 81.48 121.16Z" fill="#FFE2B8"/>
<path d="M46.58 118.25C60.91 116.84 62.58 139.09 48.57 140.2C34.35 141.33 32.77 119.61 46.58 118.25Z" fill="#FFCCCC"/>
<path d="M83.08 37.06C86.52 36.46 88.95 40.09 88.56 43.22C84.22 57.12 79.5 71.02 74.42 84.69C73.42 87.38 71.72 93.06 69.18 94.46C65.52 96.48 61.64 92.62 62.55 88.85C68.25 73.78 72.53 57.67 78.55 42.77C79.33 40.83 80.72 37.46 83.07 37.05L83.08 37.06ZM83.43 39.28C82.76 39.46 82.21 40.38 81.8 40.89C75.69 56.92 70.24 73.24 64.71 89.48C64.32 91.36 65.7 93.11 67.69 92.78C69 92.57 70.09 89.99 70.59 88.86C73.2 82.97 75.32 75.99 77.51 69.85C80.2 62.32 83.64 53.79 85.74 46.18C86.2 44.53 86.86 42.31 86.01 40.7C85.53 39.79 84.54 38.97 83.43 39.26V39.28Z" fill="#0E1516"/>
<path d="M50.31 86.71C45.58 82.67 39.37 76.3701 35.19 71.7301C33.21 69.5301 31.59 67.44 32.89 64.31C38.12 58.6 43.55 52.68 49.27 47.42C50.28 46.49 51.66 45.0801 53.04 44.8801C57.6 44.2501 60.47 50.2201 56.87 53.3101L43.74 66.4601C48.32 71.6301 53.81 76.1001 58.2 81.4801C59.54 84.0801 58.46 87.2401 55.73 88.3301C53.31 89.3001 52.03 88.18 50.31 86.71ZM36.11 63.7001C34.29 65.8101 33.82 66.8601 35.78 69.2601C38.66 72.8001 42.73 76.28 46.02 79.49C47.4 80.83 51.85 85.8001 53.2 86.3001C55.78 87.2601 57.59 84.12 56.07 82.06L41.14 67.13C40.68 66.5 41.42 65.74 41.83 65.24C45.72 60.47 51.58 56.1701 55.65 51.4301C57.7 49.1501 54.51 45.43 52.16 47.6C47.15 53.1101 40.94 58.1001 36.1 63.7001H36.11Z" fill="#0E1516"/>
<path d="M92.06 85.74C89.95 83.75 90.05 80.88 91.82 78.72C94.84 75.02 99.35 71.64 102.58 67.98C102.93 67.59 103.18 67.12 103.6 66.78L91.83 55.02C87.47 50.7 93.32 43.81 98.15 47.68L114.27 63.8C115.8 65.8 115.41 68.34 113.76 70.12C108.54 74.66 103.83 80.94 98.57 85.29C96.62 86.9 94.13 87.7 92.07 85.75L92.06 85.74ZM101.44 54.01C100.27 52.83 97.16 49.05 95.76 48.69C93.28 48.06 91.51 51.16 93.03 53.13L106.17 66.25C106.42 66.55 106.42 66.99 106.17 67.29L93.05 80.61C91.85 83.85 94.18 86.08 97.12 83.66C102.4 79.3 107.14 72.94 112.39 68.4C113.19 67.43 113.36 66 112.57 64.98C112.31 64.64 111.84 64.45 111.53 64.14C108.17 60.76 104.79 57.4 101.44 54.01Z" fill="#0E1516"/>
<path d="M161.57 43.38C178.02 42.38 188.93 60.01 181.02 74.42C173.17 88.73 152.32 88.57 144.63 74.2C137.37 60.64 146.17 44.31 161.57 43.38ZM159.05 82.56C175.88 85.98 188.12 66.79 177.72 52.9C173.33 47.04 166.23 44.66 159.05 45.72V82.56ZM156.83 81.87V46.39C146.47 50.04 141.43 61.18 145.66 71.46C147.57 76.1 152 80.43 156.83 81.87Z" fill="#0E1516"/>
<path d="M15.53 8.24004C23.47 7.08004 24.76 19.08 17.34 19.95C9.25 20.89 8.33 9.29004 15.53 8.24004ZM15.69 10.45C10.3 11.57 13.39 20.16 18.28 17.31C21.92 15.18 19.61 9.64004 15.69 10.45Z" fill="#0E1516"/>
<path d="M32.76 8.23996C40.82 7.06996 42.04 19.06 34.74 19.95C26.57 20.94 25.59 9.28996 32.76 8.23996ZM32.92 10.45C31.63 10.69 30.32 12.15 30.11 13.43C29.57 16.64 33.18 19.01 35.86 17.13C39.15 14.82 36.89 9.69996 32.92 10.44V10.45Z" fill="#0E1516"/>
<path d="M55.09 18.37C49.4 23.97 41 14.44 47.56 9.39996C53.33 4.95996 60.36 13.18 55.09 18.37ZM50.33 10.45C49.4 10.61 48.35 11.48 47.91 12.3C46.08 15.68 49.96 19.33 53.09 17.14C56.22 14.95 54.3 9.76996 50.33 10.46V10.45Z" fill="#0E1516"/>
<path d="M83.43 39.2801C84.53 38.9901 85.52 39.8001 86.01 40.7201C86.86 42.3301 86.2 44.5401 85.74 46.2001C83.64 53.8001 80.2 62.3301 77.51 69.8701C75.32 76.0101 73.2 82.9901 70.59 88.8801C70.09 90.0101 69 92.5901 67.69 92.8001C65.7 93.1201 64.33 91.3801 64.71 89.5001C70.24 73.2601 75.7 56.9401 81.8 40.9101C82.22 40.4001 82.76 39.4801 83.43 39.3001V39.2801Z" fill="#FFE2B8"/>
<path d="M36.11 63.7C40.94 58.1 47.16 53.11 52.17 47.6C54.52 45.44 57.71 49.15 55.66 51.43C51.59 56.17 45.72 60.47 41.84 65.24C41.43 65.74 40.69 66.5 41.15 67.13L56.08 82.06C57.6 84.12 55.79 87.26 53.21 86.3C51.87 85.8 47.41 80.83 46.03 79.49C42.74 76.28 38.67 72.81 35.79 69.26C33.83 66.86 34.3 65.81 36.12 63.7H36.11Z" fill="#555555"/>
<path d="M101.44 54.0101C104.79 57.3901 108.16 60.7601 111.53 64.1401C111.84 64.4501 112.3 64.6401 112.57 64.9801C113.36 66.0101 113.2 67.4301 112.39 68.4001C107.14 72.9401 102.4 79.3101 97.12 83.6601C94.18 86.0801 91.84 83.8501 93.05 80.6101L106.17 67.2901C106.42 66.9901 106.42 66.5501 106.17 66.2501L93.03 53.1301C91.51 51.1601 93.28 48.0601 95.76 48.6901C97.16 49.0501 100.27 52.8201 101.44 54.0101Z" fill="#555555"/>
<path d="M156.83 81.87C152 80.43 147.56 76.1 145.66 71.46C141.43 61.18 146.47 50.04 156.83 46.39V81.87Z" fill="#CBE1ED"/>
<path d="M15.69 10.45C19.61 9.63004 21.93 15.18 18.28 17.31C13.39 20.17 10.3 11.58 15.69 10.45Z" fill="#FFCCCC"/>
<path d="M32.92 10.45C36.88 9.71 39.15 14.83 35.86 17.14C33.18 19.01 29.57 16.65 30.11 13.44C30.33 12.16 31.63 10.7 32.92 10.46V10.45Z" fill="#FFE2B8"/>
<path d="M50.33 10.45C54.3 9.76003 56.28 14.9 53.09 17.13C49.9 19.36 46.08 15.67 47.91 12.29C48.35 11.47 49.39 10.61 50.33 10.44V10.45Z" fill="#CBE1ED"/>
</g>
<defs>
<clipPath id="clip0_3083_5527">
<rect width="206.83" height="142.37" fill="white"/>
</clipPath>
</defs>
</svg>
