<svg width="189" height="165" viewBox="0 0 189 165" fill="none" xmlns="http://www.w3.org/2000/svg">
<g filter="url(#filter0_d_3083_5491)">
<path d="M127.297 19.7562L167.391 33.8517L178.146 57.1295L158.741 129.198C158.546 129.922 157.985 130.056 157.719 129.962L102.82 110.662C102.554 110.568 102.157 110.098 102.352 109.374L126.277 20.5195C126.472 19.7965 127.031 19.663 127.297 19.7562Z" fill="#FBE7F4" stroke="black" stroke-width="3" stroke-linejoin="round"/>
<path d="M176.743 54.4449L164.281 50.0637C163.989 49.9611 163.762 49.5983 163.868 49.2023L167.38 36.159L176.743 54.4449Z" fill="#D0C1CB" stroke="black" stroke-width="3" stroke-linejoin="round"/>
<path d="M136.328 106.321L115.415 98.9691C114.841 98.7673 114.232 99.1368 114.055 99.7942C113.878 100.452 114.2 101.148 114.774 101.35L135.687 108.702C136.261 108.904 136.87 108.535 137.047 107.877C137.224 107.22 136.902 106.523 136.328 106.321Z" fill="#E7D1FC"/>
<path d="M156.179 100.6L118.539 87.3674C117.965 87.1656 117.356 87.5351 117.179 88.1925C117.002 88.8499 117.324 89.5467 117.898 89.7484L155.537 102.981C156.111 103.183 156.72 102.813 156.897 102.156C157.074 101.498 156.753 100.802 156.179 100.6L156.179 100.6Z" fill="black"/>
<path d="M159.303 88.9982L121.663 75.7656C121.089 75.5638 120.48 75.9333 120.303 76.5907C120.126 77.2481 120.448 77.9448 121.022 78.1466L158.661 91.3791C159.235 91.5809 159.844 91.2114 160.021 90.554C160.198 89.8965 159.876 89.1998 159.302 88.998L159.303 88.9982Z" fill="black"/>
<path d="M162.427 77.3959L124.787 64.1633C124.213 63.9615 123.604 64.331 123.427 64.9884C123.25 65.6458 123.572 66.3426 124.146 66.5443L161.785 79.7768C162.359 79.9786 162.968 79.6091 163.145 78.9517C163.322 78.2942 163 77.5975 162.426 77.3957L162.427 77.3959Z" fill="black"/>
<path d="M165.551 65.7942L127.911 52.5616C127.337 52.3598 126.728 52.7293 126.551 53.3867C126.374 54.0441 126.696 54.7409 127.27 54.9427L164.909 68.1751C165.483 68.3769 166.092 68.0074 166.269 67.35C166.446 66.6926 166.124 65.9958 165.55 65.794L165.551 65.7942Z" fill="black"/>
</g>
<g filter="url(#filter1_d_3083_5491)">
<path d="M61.4716 23.684L21.3771 37.7796L10.6225 61.0574L30.0278 133.126C30.2227 133.85 30.7836 133.984 31.0494 133.89L85.9489 114.59C86.2147 114.496 86.6119 114.026 86.4171 113.302L62.492 24.4474C62.3214 23.8143 61.8711 23.633 61.5832 23.6603L61.4716 23.684Z" fill="#D0D0FF" stroke="black" stroke-width="3" stroke-linejoin="round"/>
<path d="M11.995 58.3834L24.2859 54.0624C24.5468 53.9707 24.784 53.6239 24.6726 53.2101L21.1694 40.1999L11.995 58.3834Z" fill="#8D8DB9" stroke="black" stroke-width="3" stroke-linejoin="round"/>
<path d="M52.4405 110.249L73.3534 102.897C73.9274 102.695 74.5364 103.064 74.7134 103.722C74.8905 104.379 74.5686 105.076 73.9946 105.278L53.0817 112.63C52.5077 112.832 51.8987 112.462 51.7217 111.805C51.5447 111.147 51.8666 110.451 52.4405 110.249Z" fill="#E7D1FC"/>
<path d="M32.5896 104.528L70.2295 91.2951C70.8035 91.0933 71.4125 91.4628 71.5895 92.1202C71.7666 92.7776 71.4447 93.4744 70.8707 93.6762L33.2312 106.909C32.6572 107.11 32.0482 106.741 31.8712 106.084C31.6942 105.426 32.0161 104.729 32.5901 104.528L32.5896 104.528Z" fill="black"/>
<path d="M29.4657 92.9261L67.1057 79.6934C67.6797 79.4916 68.2887 79.8611 68.4657 80.5185C68.6427 81.176 68.3208 81.8727 67.7468 82.0745L30.1074 95.3069C29.5334 95.5087 28.9244 95.1392 28.7474 94.4818C28.5703 93.8244 28.8922 93.1276 29.4662 92.9259L29.4657 92.9261Z" fill="black"/>
<path d="M26.3417 81.3236L63.9817 68.091C64.5556 67.8892 65.1646 68.2587 65.3417 68.9161C65.5187 69.5735 65.1968 70.2703 64.6228 70.4721L26.9833 83.7045C26.4093 83.9063 25.8003 83.5368 25.6233 82.8794C25.4463 82.222 25.7682 81.5252 26.3422 81.3234L26.3417 81.3236Z" fill="black"/>
<path d="M23.2178 69.7221L60.8578 56.4894C61.4318 56.2877 62.0408 56.6571 62.2178 57.3146C62.3948 57.972 62.0729 58.6687 61.4989 58.8705L23.8595 72.103C23.2855 72.3047 22.6765 71.9353 22.4995 71.2778C22.3224 70.6204 22.6443 69.9237 23.2183 69.7219L23.2178 69.7221Z" fill="black"/>
</g>
<g filter="url(#filter2_d_3083_5491)">
<path d="M55.4319 7.5H116.188L139.945 32.1309V130.624C139.945 131.711 139.108 132.5 138.189 132.5H55.4319C54.513 132.5 53.6761 131.711 53.6761 130.624V9.37598C53.6761 8.28857 54.513 7.5 55.4319 7.5Z" fill="#CBE1ED" stroke="black" stroke-width="3" stroke-linejoin="round"/>
<g filter="url(#filter3_d_3083_5491)">
<path d="M141.066 31.3465H117.988C116.374 31.3465 115.066 30.0711 115.066 28.4973V6L141.066 31.3465Z" fill="#90B2C5"/>
<path d="M137.378 29.8467H117.989C117.166 29.8467 116.566 29.2067 116.566 28.4971V9.55664L137.378 29.8467Z" stroke="black" stroke-width="3" stroke-linejoin="round"/>
</g>
<path d="M100.268 84.9966H68.7429C67.8777 84.9966 67.1761 85.7241 67.1761 86.6212C67.1761 87.5183 67.8777 88.2457 68.7429 88.2457H100.268C101.133 88.2457 101.834 87.5183 101.834 86.6212C101.834 85.7241 101.133 84.9966 100.268 84.9966Z" fill="#616161"/>
<path d="M125.482 73.7474H68.7429C67.8777 73.7474 67.1761 74.4749 67.1761 75.372C67.1761 76.2691 67.8777 76.9966 68.7429 76.9966H125.482C126.347 76.9966 127.048 76.2691 127.048 75.372C127.048 74.4749 126.347 73.7474 125.482 73.7474H125.482Z" fill="#616161"/>
<path d="M125.482 62.4983H68.7429C67.8777 62.4983 67.1761 63.2258 67.1761 64.1229C67.1761 65.02 67.8777 65.7474 68.7429 65.7474H125.482C126.347 65.7474 127.048 65.02 127.048 64.1229C127.048 63.2258 126.347 62.4983 125.482 62.4983H125.482Z" fill="#616161"/>
<path d="M125.482 51.2491H68.7429C67.8777 51.2491 67.1761 51.9766 67.1761 52.8737C67.1761 53.7708 67.8777 54.4983 68.7429 54.4983H125.482C126.347 54.4983 127.048 53.7708 127.048 52.8737C127.048 51.9766 126.347 51.2491 125.482 51.2491H125.482Z" fill="#616161"/>
<path d="M125.482 40H68.7429C67.8777 40 67.1761 40.7275 67.1761 41.6246C67.1761 42.5217 67.8777 43.2491 68.7429 43.2491H125.482C126.347 43.2491 127.048 42.5217 127.048 41.6246C127.048 40.7275 126.347 40 125.482 40H125.482Z" fill="#616161"/>
</g>
<g filter="url(#filter4_d_3083_5491)">
<circle cx="97.1763" cy="131" r="22.5" fill="#78E0C4" stroke="black" stroke-width="3"/>
<path d="M94.7031 136.923L94.3925 137.671V137.672M94.7031 136.923L94.9228 137.142M94.7031 136.923L94.3925 137.672M94.7031 136.923L94.9228 137.142M94.3925 137.672L94.9228 137.142M94.3925 137.672L94.9228 137.142M94.3925 136.612L89.6611 131.881C89.5575 131.782 89.4289 131.714 89.29 131.687L89.1425 131.672C88.9437 131.672 88.7529 131.751 88.6123 131.892C88.4716 132.032 88.3927 132.223 88.3925 132.422C88.3925 132.62 88.4711 132.812 88.6113 132.952L89.1425 132.422V132.423L88.6123 132.953L93.331 137.672M94.3925 136.612L93.331 137.672M94.3925 136.612L93.331 137.672M94.3925 136.612L105.863 125.143M93.331 137.672L93.8623 138.203L93.9756 138.296C94.0163 138.323 94.0599 138.346 94.1054 138.365C94.1964 138.403 94.2941 138.423 94.3925 138.423C94.4417 138.423 94.491 138.418 94.539 138.408L94.6806 138.365C94.7259 138.346 94.769 138.323 94.8095 138.296L94.9238 138.203L100.705 132.422L106.924 126.203L106.399 125.679M106.399 125.679L106.93 125.149M106.399 125.679L106.924 126.202C107.029 126.097 107.1 125.963 107.129 125.819L107.144 125.672C107.143 125.476 107.066 125.289 106.93 125.149M106.399 125.679L106.93 125.149M106.93 125.149L106.924 125.142C106.783 125.001 106.592 124.922 106.393 124.922C106.201 124.922 106.019 124.996 105.88 125.127L105.863 125.143M105.863 125.143L106.393 125.672L105.863 125.143Z" fill="black" stroke="black" stroke-width="101"/>
<path d="M88.6762 132L94.6762 138L106.676 125.5" stroke="black" stroke-width="4" stroke-linecap="round" stroke-linejoin="round"/>
</g>
<defs>
<filter id="filter0_d_3083_5491" x="91.8354" y="13.1934" width="96.8746" height="131.332" filterUnits="userSpaceOnUse" color-interpolation-filters="sRGB">
<feFlood flood-opacity="0" result="BackgroundImageFix"/>
<feColorMatrix in="SourceAlpha" type="matrix" values="0 0 0 0 0 0 0 0 0 0 0 0 0 0 0 0 0 0 127 0" result="hardAlpha"/>
<feOffset dy="4"/>
<feGaussianBlur stdDeviation="4.5"/>
<feComposite in2="hardAlpha" operator="out"/>
<feColorMatrix type="matrix" values="0 0 0 0 0 0 0 0 0 0 0 0 0 0 0 0 0 0 0.1 0"/>
<feBlend mode="normal" in2="BackgroundImageFix" result="effect1_dropShadow_3083_5491"/>
<feBlend mode="normal" in="SourceGraphic" in2="effect1_dropShadow_3083_5491" result="shape"/>
</filter>
<filter id="filter1_d_3083_5491" x="0.0584106" y="17.1212" width="96.8748" height="131.332" filterUnits="userSpaceOnUse" color-interpolation-filters="sRGB">
<feFlood flood-opacity="0" result="BackgroundImageFix"/>
<feColorMatrix in="SourceAlpha" type="matrix" values="0 0 0 0 0 0 0 0 0 0 0 0 0 0 0 0 0 0 127 0" result="hardAlpha"/>
<feOffset dy="4"/>
<feGaussianBlur stdDeviation="4.5"/>
<feComposite in2="hardAlpha" operator="out"/>
<feColorMatrix type="matrix" values="0 0 0 0 0 0 0 0 0 0 0 0 0 0 0 0 0 0 0.1 0"/>
<feBlend mode="normal" in2="BackgroundImageFix" result="effect1_dropShadow_3083_5491"/>
<feBlend mode="normal" in="SourceGraphic" in2="effect1_dropShadow_3083_5491" result="shape"/>
</filter>
<filter id="filter2_d_3083_5491" x="43.1761" y="1" width="107.268" height="146" filterUnits="userSpaceOnUse" color-interpolation-filters="sRGB">
<feFlood flood-opacity="0" result="BackgroundImageFix"/>
<feColorMatrix in="SourceAlpha" type="matrix" values="0 0 0 0 0 0 0 0 0 0 0 0 0 0 0 0 0 0 127 0" result="hardAlpha"/>
<feOffset dy="4"/>
<feGaussianBlur stdDeviation="4.5"/>
<feComposite in2="hardAlpha" operator="out"/>
<feColorMatrix type="matrix" values="0 0 0 0 0 0 0 0 0 0 0 0 0 0 0 0 0 0 0.1 0"/>
<feBlend mode="normal" in2="BackgroundImageFix" result="effect1_dropShadow_3083_5491"/>
<feBlend mode="normal" in="SourceGraphic" in2="effect1_dropShadow_3083_5491" result="shape"/>
</filter>
<filter id="filter3_d_3083_5491" x="105.066" y="0" width="46" height="45.3466" filterUnits="userSpaceOnUse" color-interpolation-filters="sRGB">
<feFlood flood-opacity="0" result="BackgroundImageFix"/>
<feColorMatrix in="SourceAlpha" type="matrix" values="0 0 0 0 0 0 0 0 0 0 0 0 0 0 0 0 0 0 127 0" result="hardAlpha"/>
<feOffset dy="4"/>
<feGaussianBlur stdDeviation="5"/>
<feComposite in2="hardAlpha" operator="out"/>
<feColorMatrix type="matrix" values="0 0 0 0 0 0 0 0 0 0 0 0 0 0 0 0 0 0 0.1 0"/>
<feBlend mode="normal" in2="BackgroundImageFix" result="effect1_dropShadow_3083_5491"/>
<feBlend mode="normal" in="SourceGraphic" in2="effect1_dropShadow_3083_5491" result="shape"/>
</filter>
<filter id="filter4_d_3083_5491" x="67.1763" y="103" width="68.2728" height="68.2728" filterUnits="userSpaceOnUse" color-interpolation-filters="sRGB">
<feFlood flood-opacity="0" result="BackgroundImageFix"/>
<feColorMatrix in="SourceAlpha" type="matrix" values="0 0 0 0 0 0 0 0 0 0 0 0 0 0 0 0 0 0 127 0" result="hardAlpha"/>
<feOffset dx="1" dy="3"/>
<feGaussianBlur stdDeviation="3.5"/>
<feComposite in2="hardAlpha" operator="out"/>
<feColorMatrix type="matrix" values="0 0 0 0 0 0 0 0 0 0 0 0 0 0 0 0 0 0 0.1 0"/>
<feBlend mode="normal" in2="BackgroundImageFix" result="effect1_dropShadow_3083_5491"/>
<feBlend mode="normal" in="SourceGraphic" in2="effect1_dropShadow_3083_5491" result="shape"/>
</filter>
</defs>
</svg>
