<svg width="180" height="134" viewBox="0 0 180 134" fill="none" xmlns="http://www.w3.org/2000/svg">
<g clip-path="url(#clip0_3083_5555)">
<path d="M9.24 0.05L170.14 0C174.93 0.4 179 3.89 179.63 8.73V124.4C179.09 129.11 175.18 132.88 170.45 133.28H8.88C4.21 132.76 0.47 128.91 0 124.25V9.03C0.48 4.19 4.41 0.43 9.24 0.05ZM177.65 23.23V9.34C177.65 6.21 174.2 2.74 171.13 2.35L9.04 2.28C6.17 2.26 2.14 5.88 2.14 8.74V23.24H177.66L177.65 23.23ZM3.04 127.05C4.2 129.21 6.52 130.83 8.96 131.15H170.29C171.24 131.08 172.24 130.8 173.09 130.39C175.77 129.12 177.42 126.43 177.65 123.49V25.73L177.49 25.35H2.13V124.69C2.13 124.96 2.85 126.68 3.04 127.04V127.05Z" fill="#0C0D10"/>
<path d="M173.09 130.39L169.98 131C116.59 131.41 63.17 130.43 9.79003 131C9.53003 131 9.11003 130.9 8.96003 131.15C6.52003 130.83 4.20003 129.21 3.04003 127.05L2.28003 124.24V25.51L177.49 25.36L177.64 25.74V123.5C177.41 126.44 175.76 129.13 173.08 130.4L173.09 130.39ZM62.26 33.09C55.18 37.21 48.2 41.61 41 45.54C40.96 45.29 40.52 45.57 40.41 45.63C38.58 46.69 32.15 47.13 29.64 47.46C25.62 47.99 20.93 48.26 16.98 49.07C13.46 49.79 10.79 52.63 10.09 56.15C9.75003 57.88 10.23 61.93 10.49 63.81C10.87 66.55 12.48 69.91 15.03 71.18C15.36 71.35 15.48 71.37 15.79 71.48C15.83 71.5 15.9 71.46 15.94 71.48C15.86 71.85 16.11 71.8 16.35 71.9C17.16 72.22 18.17 72.5 19.04 72.55C19.53 72.58 21.16 72.36 21.33 72.54L26.31 86.69C26.8 87.58 27.04 88.82 28.08 89.24C28.13 89.29 28.18 89.34 28.23 89.39C28.34 89.49 28.38 89.58 28.53 89.69C29.37 90.34 30.42 90.86 31.51 90.89C33 90.93 35.28 90.4 36.58 89.84C36.64 89.81 36.81 89.73 36.88 89.69C37.66 89.28 38.08 89.14 38.7 88.36C39.83 86.93 40.29 85.4 39.88 83.58C39.1 80.04 37.07 75.87 36.02 72.27C35.94 72 35.53 70.73 35.68 70.57C37.82 70.38 39.95 69.82 42.09 69.85C50.42 72.11 58.78 74.38 67.11 76.56C69.33 77.14 71.56 78.46 73.68 76.64C73.87 76.48 73.87 76.25 73.94 76.18C73.99 76.13 74.05 76.08 74.09 76.03C74.99 75.02 75.5 74.39 75.61 72.91L74.23 60.8C75.05 60.38 75.68 60.08 76.36 59.48C76.71 59.17 76.63 59.39 76.97 58.87C79.48 57.48 79.26 52.97 77.88 50.67C77.56 50.14 77.24 49.25 76.51 49C76.46 48.95 76.41 48.89 76.36 48.85C75.47 47.62 74.03 47.23 72.58 47.01C72.13 43.37 71.89 39.67 71.33 36.04C71.04 34.17 70.69 32.66 68.97 31.57C67.03 30.34 64.89 31 63.19 32.27L62.24 33.06L62.26 33.09ZM96.57 33.4C96.38 33.52 96.16 33.71 95.96 33.86C95.73 33.64 95.63 34.04 95.5 34.16C95.4 34.25 95.29 34.37 95.2 34.46C94.31 35.39 93.65 36.18 93.52 37.57C93.02 43.11 93.91 49.41 93.52 55.03C93.66 55.95 94.08 56.65 94.58 57.38C95.69 59 97.08 59.76 99.05 59.97H165.41C166.42 59.78 168.04 59.66 168.52 58.6C168.56 58.58 168.63 58.62 168.67 58.6C168.8 58.54 169.24 58.58 168.97 58.3C169.77 57.34 170.48 56.51 170.64 55.19C170.19 49.55 171.24 42.96 170.64 37.43C170.47 35.85 168.9 33.86 167.45 33.26C167.85 33.12 167.14 32.97 167.07 32.96C166.62 32.83 166.18 32.67 165.71 32.65H98.89C97.88 32.72 97.36 32.88 96.54 33.41L96.57 33.4ZM82.56 35.86C81.8 36.09 77.56 42.14 76.52 43.03C75.95 44.13 77.06 45.12 78.06 44.42L83.8 37.56C84.34 36.56 83.73 35.51 82.56 35.87V35.86ZM81.08 54.19C81.21 54.26 81.34 54.53 81.6 54.48C83.29 54.07 85.56 54.29 87.19 53.85C88.82 53.41 88.46 51.26 86.9 51.16C85.34 51.06 83.02 51.86 81.33 51.79C80.13 52.31 79.75 53.51 81.07 54.19H81.08ZM79.68 62.56C78.76 62.73 78.5 63.91 79.19 64.51L85.17 69.77C86.5 70.53 87.41 69.24 86.56 68.07C84.33 66.31 82.37 64.2 80.07 62.56C79.94 62.52 79.82 62.54 79.69 62.56H79.68ZM96.27 67.09C95.54 67.3 95.82 67.25 95.36 67.7C95.2 67.85 95.2 68.02 94.9 68.16C94.83 68.19 94.59 68.09 94.48 68.19C94.14 68.48 93.42 71.01 93.38 71.57C93.32 72.36 93.56 73.01 93.55 73.7C93.53 76 92.93 77.84 94.75 79.7C94.8 79.75 94.85 79.81 94.9 79.85C95.4 80.92 96.9 81.43 98.01 81.53H166.36C166.56 81.62 166.8 81.38 166.87 81.37C167.72 81.24 168.4 81.17 169.1 80.56C169.22 80.46 169.23 80.22 169.3 80.15C169.35 80.1 169.41 80.05 169.45 80C169.47 79.98 169.65 80.03 169.71 79.96C170.09 79.49 170.72 78.38 170.8 77.78C171 76.28 170.99 71.89 170.81 70.36C170.65 68.95 169.46 67.64 168.23 67.1C167.82 66.92 167.44 66.59 166.95 66.64C143.6 66.73 120.23 66.51 96.9 66.75L96.27 67.1V67.09ZM111.15 92.14C111.45 92.12 110.9 91.71 110.88 91.7C104.08 86.4 94.37 86.61 87.89 92.29C87.67 92.48 87.52 92.83 87.32 93.05C87.16 93.19 86.92 93.46 86.71 93.66C80.42 99.54 79.81 110.48 84.89 117.41L85.65 118.1C87.51 120.46 90.16 122.32 92.94 123.41C92.68 123.81 92.78 123.65 93.09 123.78C98.29 126 105.27 125.08 109.9 121.94L110.85 120.98C111.28 120.63 113.07 118.74 113.28 118.7C113.29 118.7 113.34 118.85 113.43 118.85C113.46 118.76 113.4 118.59 113.43 118.54C113.47 118.47 113.54 118.44 113.58 118.39C117.09 114.28 118.64 109.56 117.96 104.07C117.86 103.26 116.91 99.05 116.46 98.66C116.36 98.57 116.32 98.81 116.31 98.81C116.1 98.77 114.56 95.79 114.1 95.18C113.33 94.18 112.14 92.91 111.15 92.13V92.14ZM161.71 90.16C162.06 90 161.45 89.85 161.38 89.81C157.42 88.06 153.19 87.1 148.86 88.32C148.55 88.41 148.36 88.19 148.65 88.64C143.39 89.93 138.63 93.94 136.5 98.96C136.37 98.56 136.14 99.38 136.13 99.42C134.31 104.61 134.07 108.54 136.35 113.68C137.42 116.09 137.91 116.95 139.69 118.84C139.74 118.89 139.79 118.94 139.84 118.99C139.94 119.1 140.04 119.19 140.14 119.29C140.33 119.49 140.55 119.71 140.75 119.9C146.67 125.56 154.21 126.4 161.63 122.93C161.73 122.88 162.22 122.74 161.86 122.63C162.93 122.06 164.28 121 165.2 120.2C165.26 120.5 165.56 120.16 165.65 120.08C166.02 119.73 166.54 119.17 166.72 118.68C166.77 118.63 166.82 118.58 166.87 118.53C171.36 113.85 172.46 106.4 170.47 100.29C170.4 100.07 170.1 99.16 169.76 99.26C168.3 95.66 165.13 92.01 161.71 90.15V90.16ZM71.06 95.17L71.44 95.02H14.65C14.2 94.98 13.79 95.14 13.37 95.26C13.33 95.26 12.51 95.51 12.91 95.63C12.52 95.81 11.76 96.52 11.39 96.84C11.39 96.84 11.33 96.68 11.18 96.83C10.8 97.21 10.6 97.98 10.37 98.48C10.44 104.72 9.62003 111.99 10.18 118.17C10.42 120.75 12.66 122.81 15.26 122.81H70.69C71.88 122.69 72.98 122.44 73.88 121.59L74.56 120.68C74.65 120.57 74.83 120.43 74.86 120.38C75.33 119.74 75.55 119.32 75.63 118.49C75.27 112.26 76.09 105.53 75.63 99.35C75.59 98.82 75.23 97.3 74.86 97C74.75 96.91 74.72 97.15 74.71 97.15C74.65 97.15 74.27 96.59 74.11 96.46C73.31 95.81 72.12 95.22 71.07 95.17H71.06Z" fill="#D0D0FF"/>
<path d="M177.65 23.23H2.13V8.72998C2.13 5.87998 6.16 2.24998 9.03 2.26998L171.12 2.33998C174.19 2.72998 177.64 6.19998 177.64 9.32998V23.22L177.65 23.23ZM12.73 8.38998C5.98 9.00998 6.87 19.46 13.75 18.82C20.24 18.22 19.33 7.77998 12.73 8.38998ZM27.61 8.39998C20.9 9.04998 21.76 19.47 28.63 18.83C35.5 18.19 34.4 7.74998 27.61 8.39998ZM42.48 8.39998C35.77 9.04998 36.67 19.44 43.5 18.83C50.05 18.24 49.29 7.74998 42.48 8.39998Z" fill="white"/>
<path d="M177.5 25.35L2.29001 25.5V124.23L3.05001 127.04C2.86001 126.68 2.14001 124.96 2.14001 124.69V25.35H177.51H177.5Z" fill="white"/>
<path d="M173.09 130.39C172.24 130.79 171.24 131.08 170.29 131.16H8.96002C9.12002 130.9 9.54002 131 9.79002 131C63.18 130.44 116.59 131.42 169.98 131L173.09 130.39Z" fill="white"/>
<path d="M62.26 33.0901C63.44 32.4001 64.92 31.3601 66.28 31.2601C68.49 31.1001 70.13 32.2901 70.81 34.3301L72.43 47.3501C73.79 47.2601 75.35 48.0301 76.38 48.8701C76.43 48.9101 76.48 48.9701 76.53 49.0201C76.96 49.4201 77.47 50.1801 77.74 50.6901C79.46 53.8801 78.8 56.1301 76.98 58.8901C76.59 59.1101 76.58 59.2001 76.37 59.3501C75.57 59.9001 74.83 60.3101 73.93 60.6601C74.4 64.8901 75.12 69.1201 75.29 73.3701C75.13 74.3901 74.71 75.2301 74.09 76.0401C74.04 76.0901 73.99 76.1401 73.94 76.1901C72.93 76.9101 71.85 77.4801 70.57 77.3701L41.96 69.5201L35.22 70.4301C36.63 75.1401 38.48 79.7301 39.77 84.4701C39.92 86.7001 38.7 88.5601 36.89 89.7001C36.82 89.7401 36.65 89.8301 36.59 89.8501C34.48 90.1901 32.08 91.0401 29.98 90.3101C29.6 90.1801 28.92 89.8801 28.54 89.7001C28.5 89.6801 28.39 89.4101 28.24 89.4001C28.19 89.3501 28.14 89.3001 28.09 89.2501C27.6 88.7101 27.26 88.2701 26.95 87.5801L21.55 72.1001C19.51 72.5501 17.84 72.1701 15.94 71.4901C15.9 71.4701 15.83 71.5101 15.79 71.4901C15.69 71.1001 15.22 71.1501 15.03 71.0301C11.1 68.5201 10.76 64.3301 10.33 60.0201C9.84 55.1401 11.53 50.8101 16.55 49.3901L39.39 46.4201C39.97 46.2001 40.46 45.8101 41 45.5201C48.2 41.6001 55.17 37.1901 62.26 33.0701V33.0901ZM69.7 74.8301C70.04 75.0101 70.25 75.2501 70.71 75.2801C72.15 75.3801 73.33 74.0001 73.35 72.6301C73.37 70.7701 72.68 68.0201 72.46 66.0801C71.34 56.3901 70.71 45.9601 69.06 36.3901C68.95 35.7401 68.84 34.7801 68.5 34.2601C67.04 32.1001 64.04 33.7201 64.11 36.0201C65.77 48.3401 67.02 60.7101 68.52 73.0501C68.72 73.9701 68.94 74.3901 69.72 74.8101L69.7 74.8301ZM59.07 37.5001C53.24 40.8601 47.4 44.2401 41.61 47.6701L40.73 48.0001C41.26 54.5701 42.21 61.1201 42.85 67.6901L66.52 74.0801L64.85 60.2701C64.85 60.2201 64.85 60.1701 64.85 60.1201C64.12 52.9001 63.43 45.4501 62.4 38.2101C62.36 37.9001 62.32 37.4401 62.12 37.2001C62.12 37.1501 62.12 37.1001 62.12 37.0501C62.04 36.8001 62.33 35.7101 61.9 35.8401C61.29 36.0101 59.75 37.1201 59.09 37.5101L59.07 37.5001ZM14.58 52.6701C14.44 52.7901 14.39 52.8601 14.28 52.9701C12.99 54.2701 12.11 56.1601 12.15 58.0501C12.18 59.7501 12.88 64.9301 13.54 66.3901C13.89 67.1701 14.8 68.2501 15.5 68.7601C15.7 68.9101 15.67 68.9201 15.96 69.0601C16.67 69.7801 17.8 70.1001 18.77 70.2701C25.98 69.4401 33.29 68.7801 40.48 67.6901C40.63 67.6701 40.77 67.6401 40.82 67.4701L38.73 48.5701L17.29 51.3401C16.16 51.5601 15.46 51.9301 14.59 52.6701H14.58ZM74.55 50.2501C74.07 49.6501 73.35 49.3401 72.58 49.3401L73.64 58.6001C76.78 57.6201 77.7 53.4501 75.46 51.1601C75.33 50.9301 75.38 50.8101 75.09 50.5401C74.84 50.3101 74.74 50.3501 74.55 50.2501ZM29.31 87.2801C30.07 88.5301 31.23 88.5801 32.57 88.4901C35.49 88.3101 38.24 87.4701 37.59 83.9301L33.11 70.8001L23.69 71.7901C25.26 76.8701 27.13 81.8601 28.87 86.8801C28.91 87.0201 29.09 87.0601 29.15 87.1201C29.2 87.1701 29.25 87.2201 29.3 87.2701L29.31 87.2801Z" fill="#0C0D10"/>
<path d="M167.48 33.25C168.92 33.86 170.5 35.84 170.67 37.42C171.27 42.95 170.22 49.54 170.67 55.18C170.5 56.5 169.8 57.33 169 58.29C168.91 58.4 168.8 58.5 168.7 58.59C168.66 58.61 168.59 58.57 168.55 58.59C167.65 59.03 166.87 59.66 165.75 59.66H98.63C97.02 59.47 95.46 58.61 94.61 57.23C94.09 56.38 93.78 55.42 93.69 54.43C94.05 49.08 93.23 43.16 93.69 37.87C93.8 36.54 94.37 35.45 95.21 34.46C95.3 34.36 95.42 34.25 95.51 34.16C95.72 34.13 95.83 33.96 95.97 33.86C96.17 33.72 96.39 33.53 96.58 33.4L99.23 32.79H165.29C165.95 32.84 166.88 33 167.48 33.25ZM97.03 35.83C96.29 36.32 95.91 37.08 95.82 37.95C95.26 43.08 96.24 49.19 95.82 54.43C95.82 54.72 95.9 54.99 95.98 55.26C96.28 56.28 96.98 56.94 97.95 57.23C98.06 57.26 98.2 57.45 98.41 57.38C98.41 57.45 98.41 57.5 98.49 57.53H98.72H165.68C167.43 57.39 168.54 56.14 168.72 54.42C168.38 49.23 169.18 43.45 168.72 38.34C168.6 37.07 168.14 35.94 166.9 35.53C166.9 34.97 165.67 35.04 165.31 34.92H99.86C98.92 35.1 97.63 34.93 97.06 35.84L97.03 35.83Z" fill="#0C0D10"/>
<path d="M71.06 95.17C72.11 95.22 73.3 95.81 74.1 96.46C74.26 96.59 74.65 97.14 74.7 97.15C75.18 97.95 75.42 98.86 75.47 99.8C75.1 105.72 75.93 112.17 75.47 118.03C75.4 118.89 75.1 119.57 74.86 120.38C74.82 120.43 74.65 120.58 74.56 120.68C73.65 121.71 72.74 122.35 71.3 122.51H14.8C12.54 122.34 10.86 120.88 10.48 118.63C10.89 112.35 9.93998 105.39 10.48 99.2C10.55 98.35 10.87 97.52 11.4 96.85C11.77 96.53 12.53 95.82 12.92 95.64C14.58 94.86 17.65 95.34 19.53 95.34C34.59 95.33 49.69 95.27 64.76 95.34C66.78 95.34 69.09 95.1 71.07 95.19L71.06 95.17ZM14.54 97.33C13.22 97.62 12.57 98.47 12.45 99.79C11.94 105.53 12.85 112.03 12.45 117.86C12.56 118.93 13.09 119.88 14.14 120.26C33.29 120.45 52.51 120.39 71.66 120.29C72.68 119.84 73.23 119.14 73.33 118.01C73.85 112.12 72.93 105.46 73.33 99.49C73.21 98.12 72 97.26 70.68 97.28L14.53 97.32L14.54 97.33Z" fill="#0C0D10"/>
<path d="M168.08 67.09C169.16 67.76 170.09 68.54 170.44 69.82C170.85 71.33 170.84 77.06 170.32 78.52C170.13 79.07 169.75 79.51 169.44 80C169.4 80.05 169.34 80.1 169.29 80.15C168.52 80.6 167.78 81.1 166.86 81.21H97.69C96.59 81.14 95.67 80.56 94.89 79.84C94.84 79.79 94.79 79.74 94.74 79.69C94.29 79.03 93.91 78.13 93.83 77.34C93.68 75.88 93.66 70.5 94.17 69.34C94.35 68.93 94.73 68.6 94.89 68.16C95.19 68.02 95.19 67.86 95.35 67.7L96.41 67.09C96.93 66.95 97.45 66.78 98 66.78H166.49L168.08 67.09ZM97.33 69.07C96.74 69.12 96.21 69.73 96.01 70.25C95.68 71.11 95.69 75.92 95.81 77.03C95.87 77.55 95.98 77.77 96.27 78.17C96.8 78.92 97.1 78.95 97.94 79.08C98.02 79.09 98.25 79.33 98.45 79.24C120.92 79.01 143.41 79.51 165.88 79.24C166.14 79.24 166.56 79.34 166.71 79.09C166.81 79.08 166.92 79.11 167.01 79.09C167.85 78.92 168.43 78.08 168.53 77.27C168.68 76.08 168.71 71.72 168.53 70.59C168.43 69.93 167.39 68.91 166.71 68.92C161.3 68.95 155.88 68.88 150.46 68.92C150.41 68.92 150.36 68.92 150.31 68.92L97.32 69.07H97.33Z" fill="#0C0D10"/>
<path d="M111.15 92.14C112.14 92.92 113.33 94.19 114.1 95.19C114.57 95.8 116.1 98.78 116.31 98.82C119.03 105.41 118.08 112.87 113.58 118.4C113.54 118.45 113.47 118.48 113.43 118.55L113.28 118.7C113.08 118.74 111.28 120.63 110.85 120.98C105.85 125.02 98.87 125.74 92.93 123.41C90.15 122.32 87.51 120.46 85.64 118.1C80.48 111.57 80.45 101.85 85.39 95.24C85.75 94.76 86.5 94.31 86.7 93.67C86.91 93.48 87.14 93.2 87.31 93.06C94.31 87.02 103.72 86.26 111.15 92.15V92.14ZM98.21 90.21C85.92 91.27 79.71 105.82 86.58 115.86C91.8 123.5 102.92 125 110.01 119C122.05 108.81 114.04 88.85 98.22 90.21H98.21Z" fill="#0C0D10"/>
<path d="M161.71 90.16C165.13 92.02 168.3 95.67 169.76 99.27C172.39 105.77 171.25 113.13 166.88 118.55C166.83 118.6 166.78 118.65 166.73 118.7C166.29 119.14 165.65 119.84 165.21 120.22C164.29 121.02 162.94 122.08 161.87 122.65C160.43 123.42 158.34 124.13 156.74 124.43C150.83 125.53 145.18 123.82 140.77 119.92C140.57 119.73 140.36 119.51 140.16 119.31L139.86 119.01C139.81 118.96 139.76 118.91 139.71 118.86C138.36 117.24 137.33 115.52 136.52 113.55C134.68 109.04 134.59 103.53 136.52 98.98C138.65 93.96 143.4 89.95 148.67 88.66C152.99 87.6 157.76 88.02 161.73 90.18L161.71 90.16ZM144.55 92.59C142.69 93.76 141.11 95.26 140 97.14C136.57 101.75 136.25 108.17 138.56 113.38C138.72 113.75 138.87 114.23 139.24 114.45C139.76 115.53 140.08 116.01 140.91 116.88L142.6 118.76C155.02 129.16 172.87 117.6 168.54 101.94C165.68 91.63 153.75 86.8 144.56 92.59H144.55Z" fill="#0C0D10"/>
<path d="M82.56 35.86C83.73 35.51 84.34 36.55 83.8 37.55L78.06 44.41C77.06 45.12 75.96 44.12 76.52 43.02C77.56 42.13 81.8 36.08 82.56 35.85V35.86Z" fill="#0C0D10"/>
<path d="M166.87 81.21V81.36C166.79 81.37 166.56 81.61 166.36 81.52H98.01C96.91 81.42 95.4 80.91 94.9 79.84C95.68 80.56 96.6 81.13 97.7 81.21H166.87Z" fill="#E4D6E8"/>
<path d="M94.6 57.23C95.45 58.61 97.01 59.47 98.62 59.66H165.74C166.86 59.66 167.64 59.03 168.54 58.59C168.06 59.65 166.45 59.77 165.43 59.96H99.07C97.1 59.75 95.7 58.99 94.6 57.37V57.22V57.23Z" fill="#E4D6E8"/>
<path d="M79.68 62.56C79.81 62.54 79.93 62.52 80.06 62.56C82.36 64.2 84.33 66.32 86.55 68.07C87.4 69.23 86.49 70.53 85.16 69.77L79.18 64.51C78.49 63.91 78.76 62.72 79.67 62.56H79.68Z" fill="#0C0D10"/>
<path d="M11.39 96.8399C10.86 97.5099 10.55 98.34 10.47 99.19C9.93 105.39 10.88 112.35 10.47 118.62C10.85 120.86 12.53 122.33 14.79 122.5H71.28C72.72 122.34 73.63 121.71 74.54 120.67L73.86 121.58C72.97 122.43 71.87 122.68 70.67 122.8H15.26C12.66 122.8 10.42 120.74 10.18 118.16C9.62 111.98 10.44 104.71 10.37 98.47C10.6 97.98 10.79 97.21 11.18 96.82C11.34 96.67 11.38 96.84 11.39 96.83V96.8399Z" fill="#E7DDE9"/>
<path d="M12.91 95.63C12.51 95.5 13.33 95.27 13.37 95.26C13.79 95.15 14.2 94.99 14.65 95.02H71.44L71.06 95.18C69.07 95.09 66.77 95.34 64.75 95.33C49.68 95.26 34.59 95.33 19.52 95.33C17.63 95.33 14.57 94.85 12.91 95.63Z" fill="white"/>
<path d="M168.23 67.09H168.08L166.49 66.78H98C97.45 66.78 96.93 66.95 96.41 67.09C96.36 67.1 96.3 67.08 96.26 67.09L96.89 66.74C120.22 66.49 143.6 66.72 166.94 66.63C167.44 66.58 167.81 66.91 168.22 67.09H168.23Z" fill="white"/>
<path d="M96.57 33.4C97.39 32.86 97.91 32.71 98.92 32.63H165.74C166.21 32.65 166.66 32.81 167.1 32.94C167.17 32.96 167.88 33.1 167.48 33.24C166.87 32.99 165.95 32.82 165.29 32.78H99.23L96.58 33.39L96.57 33.4Z" fill="white"/>
<path d="M73.95 76.2C73.88 76.27 73.87 76.5 73.69 76.66C71.58 78.48 69.34 77.16 67.12 76.58C58.79 74.4 50.43 72.13 42.1 69.87C39.96 69.84 37.83 70.4 35.69 70.59C35.54 70.74 35.95 72.01 36.03 72.29C37.09 75.9 39.11 80.07 39.89 83.6C40.29 85.42 39.84 86.94 38.71 88.38C38.09 89.16 37.68 89.3 36.89 89.71C38.7 88.56 39.92 86.71 39.77 84.48C38.48 79.74 36.63 75.15 35.22 70.44L41.96 69.53L70.57 77.38C71.86 77.49 72.93 76.92 73.94 76.2H73.95Z" fill="#E7DDE9"/>
<path d="M41 45.5401C40.47 45.8301 39.97 46.22 39.39 46.44L16.55 49.41C11.53 50.83 9.84001 55.1601 10.33 60.0401C10.77 64.35 11.11 68.5401 15.03 71.0501V71.2C12.48 69.93 10.86 66.5601 10.49 63.8301C10.23 61.9501 9.75001 57.9 10.09 56.17C10.79 52.66 13.46 49.8201 16.98 49.09C20.93 48.2801 25.62 48.01 29.64 47.48C32.14 47.15 38.58 46.7001 40.41 45.6501C40.51 45.5901 40.96 45.3001 41 45.5601V45.5401Z" fill="#E7DDE9"/>
<path d="M15.95 71.5C17.85 72.18 19.52 72.55 21.56 72.11L26.96 87.59C27.27 88.29 27.61 88.72 28.1 89.26C27.06 88.84 26.82 87.6 26.33 86.71L21.35 72.56C21.19 72.39 19.55 72.6 19.06 72.57C18.19 72.52 17.18 72.24 16.37 71.92C16.13 71.83 15.88 71.88 15.96 71.5H15.95Z" fill="#E4D6E8"/>
<path d="M87.31 93.05C87.51 92.82 87.66 92.48 87.88 92.29C94.36 86.61 104.07 86.4 110.87 91.7C110.89 91.72 111.45 92.12 111.14 92.14C103.72 86.25 94.3 87.01 87.3 93.05H87.31Z" fill="#E7DDE9"/>
<path d="M86.7 93.66C86.49 94.3 85.75 94.75 85.39 95.23C80.45 101.84 80.48 111.56 85.64 118.09L84.88 117.4C79.8 110.47 80.41 99.53 86.7 93.65V93.66Z" fill="#E7DDE9"/>
<path d="M140.75 119.91C145.16 123.81 150.82 125.52 156.72 124.42C158.32 124.12 160.42 123.42 161.85 122.64C162.21 122.75 161.72 122.89 161.62 122.94C154.2 126.41 146.66 125.57 140.74 119.91H140.75Z" fill="#E7DDE9"/>
<path d="M169.75 99.27C170.09 99.18 170.39 100.08 170.46 100.3C172.46 106.41 171.36 113.86 166.86 118.54C171.23 113.12 172.38 105.76 169.74 99.26L169.75 99.27Z" fill="#E7DDE9"/>
<path d="M136.5 98.97C134.57 103.52 134.66 109.03 136.5 113.54L136.35 113.69C134.07 108.55 134.31 104.62 136.13 99.43C136.14 99.39 136.37 98.57 136.5 98.97Z" fill="#E4D6E8"/>
<path d="M62.26 33.0901L63.21 32.3001C64.91 31.0401 67.05 30.3701 68.99 31.6001C70.71 32.6901 71.06 34.2001 71.35 36.0701C71.9 39.7001 72.15 43.4001 72.6 47.0401C74.05 47.2601 75.49 47.6401 76.38 48.8801C75.36 48.0401 73.79 47.2701 72.43 47.3601L70.81 34.3401C70.13 32.3001 68.49 31.1101 66.28 31.2701C64.92 31.3701 63.44 32.4101 62.26 33.1001V33.0901Z" fill="#E7DDE9"/>
<path d="M76.38 59.5C75.7 60.1 75.06 60.39 74.25 60.82L75.63 72.93C75.52 74.41 75.01 75.04 74.11 76.05C74.72 75.24 75.15 74.39 75.31 73.38C75.14 69.13 74.42 64.9 73.95 60.67C74.85 60.32 75.59 59.91 76.39 59.36V59.51L76.38 59.5Z" fill="#E7DDE9"/>
<path d="M116.31 98.82C116.31 98.82 116.36 98.58 116.46 98.67C116.91 99.06 117.86 103.27 117.96 104.08C118.63 109.58 117.09 114.3 113.58 118.4C118.08 112.87 119.04 105.41 116.31 98.82Z" fill="#E7DDE9"/>
<path d="M74.86 120.37C75.1 119.57 75.4 118.88 75.47 118.02C75.93 112.17 75.11 105.71 75.47 99.79C75.42 98.86 75.18 97.94 74.7 97.14C74.71 97.14 74.74 96.9 74.85 96.99C75.22 97.29 75.58 98.81 75.62 99.34C76.08 105.51 75.26 112.24 75.62 118.48C75.54 119.31 75.32 119.73 74.85 120.37H74.86Z" fill="white"/>
<path d="M94.9 68.1601C94.74 68.5901 94.36 68.93 94.18 69.34C93.66 70.5 93.69 75.88 93.84 77.34C93.92 78.13 94.3 79.0401 94.75 79.6901C92.93 77.8301 93.53 75.9901 93.55 73.6901C93.55 73.0001 93.32 72.35 93.38 71.56C93.42 71 94.14 68.47 94.48 68.18C94.6 68.08 94.83 68.1801 94.9 68.1501V68.1601Z" fill="#E4D6E8"/>
<path d="M94.6 57.23V57.38C94.1 56.65 93.67 55.95 93.54 55.03C93.92 49.41 93.03 43.11 93.54 37.57C93.67 36.19 94.32 35.4 95.22 34.46C94.38 35.45 93.81 36.54 93.7 37.87C93.24 43.15 94.06 49.08 93.7 54.43C93.79 55.42 94.1 56.39 94.62 57.23H94.6Z" fill="white"/>
<path d="M161.71 90.16C157.75 88 152.97 87.58 148.65 88.64C148.36 88.19 148.54 88.41 148.86 88.32C153.18 87.1 157.42 88.06 161.38 89.81C161.46 89.84 162.06 90 161.71 90.16Z" fill="#E7DDE9"/>
<path d="M110.84 120.98L109.89 121.94C105.26 125.08 98.28 126.01 93.08 123.78C92.77 123.65 92.66 123.8 92.93 123.41C98.87 125.74 105.84 125.03 110.85 120.98H110.84Z" fill="#E7DDE9"/>
<path d="M168.23 67.09C169.46 67.64 170.65 68.95 170.81 70.35C170.98 71.88 171 76.27 170.8 77.77C170.72 78.36 170.09 79.48 169.71 79.95C169.65 80.02 169.47 79.97 169.45 79.99C169.75 79.51 170.13 79.06 170.33 78.51C170.84 77.05 170.86 71.32 170.45 69.81C170.1 68.54 169.17 67.75 168.09 67.08H168.24L168.23 67.09Z" fill="#E7DDE9"/>
<path d="M77.89 50.7C79.27 53 79.49 57.5 76.98 58.9C76.64 59.41 76.72 59.1999 76.37 59.5099V59.36C76.58 59.21 76.59 59.12 76.98 58.9C78.8 56.15 79.46 53.89 77.74 50.7H77.89Z" fill="#E4D6E8"/>
<path d="M36.6 89.86C35.3 90.42 33.02 90.94 31.53 90.91C30.44 90.88 29.39 90.36 28.55 89.71C28.93 89.89 29.6 90.19 29.99 90.32C32.09 91.05 34.49 90.2 36.6 89.86Z" fill="#E7DDE9"/>
<path d="M81.08 54.19C81.31 54.27 81.92 54.14 82.22 54.19C83.2 53.85 87.49 53.94 87.91 53.16C88.56 51.98 87.55 51.42 86.47 51.45C84.74 51.5 82.71 51.96 80.97 52.17C80.72 52.28 80.46 52.92 80.48 53.2C80.49 53.41 80.98 54.16 81.09 54.2C79.77 53.53 80.15 52.33 81.35 51.8C83.03 51.87 85.33 51.07 86.92 51.17C88.51 51.27 88.76 53.45 87.21 53.86C85.58 54.3 83.31 54.08 81.62 54.49C81.36 54.54 81.23 54.27 81.1 54.2L81.08 54.19Z" fill="#E7DDE9"/>
<path d="M136.5 113.54C137.3 115.52 138.33 117.23 139.69 118.85C137.91 116.96 137.42 116.1 136.35 113.69L136.5 113.54Z" fill="#E7DDE9"/>
<path d="M169.3 80.15C169.24 80.21 169.22 80.45 169.1 80.56C168.4 81.17 167.72 81.24 166.87 81.37V81.22C167.78 81.11 168.53 80.61 169.3 80.16V80.15Z" fill="#E7DDE9"/>
<path d="M166.72 118.7C166.54 119.18 166.02 119.75 165.65 120.1C165.56 120.18 165.26 120.52 165.2 120.22C165.64 119.84 166.28 119.15 166.72 118.7Z" fill="#E7DDE9"/>
<path d="M77.89 50.7H77.74C77.46 50.19 76.95 49.43 76.53 49.03C77.26 49.28 77.58 50.17 77.9 50.7H77.89Z" fill="#E7DDE9"/>
<path d="M96.27 67.09C96.27 67.09 96.37 67.1 96.42 67.09L95.36 67.7C95.82 67.25 95.54 67.31 96.27 67.09Z" fill="#E4D6E8"/>
<path d="M15.8 71.5C15.49 71.38 15.37 71.36 15.04 71.2V71.05C15.22 71.17 15.7 71.12 15.8 71.51V71.5Z" fill="#E4D6E8"/>
<path d="M95.96 33.85C95.82 33.95 95.72 34.12 95.5 34.15C95.63 34.02 95.72 33.62 95.96 33.85Z" fill="white"/>
<path d="M113.42 118.55C113.42 118.55 113.44 118.76 113.42 118.86C113.33 118.86 113.28 118.7 113.27 118.71L113.42 118.56V118.55Z" fill="#E7DDE9"/>
<path d="M168.69 58.59C168.79 58.49 168.9 58.4 168.99 58.29C169.25 58.57 168.81 58.54 168.69 58.59Z" fill="#E4D6E8"/>
<path d="M140.15 119.31C140.05 119.21 139.95 119.11 139.85 119.01L140.15 119.31Z" fill="#E7DDE9"/>
<path d="M28.55 89.71C28.4 89.59 28.35 89.51 28.25 89.41C28.4 89.43 28.51 89.69 28.55 89.71Z" fill="#E4D6E8"/>
<path d="M27.61 8.40004C34.39 7.75004 35.26 18.21 28.63 18.83C22 19.45 20.91 9.05004 27.61 8.40004ZM29.46 10.93C27.75 9.72004 25.26 11.13 25.06 13.13C24.58 17.78 31.27 17.96 31.13 13.36C31.22 12.5 30.31 11.21 29.46 10.93Z" fill="#0C0D10"/>
<path d="M42.48 8.39996C49.29 7.73996 50.05 18.24 43.5 18.83C36.67 19.44 35.77 9.04996 42.48 8.39996ZM42.48 10.52C39.01 10.99 39.23 16.26 42.3 16.69C47.31 17.39 47.02 9.90996 42.48 10.52Z" fill="#0C0D10"/>
<path d="M12.73 8.38997C19.33 7.77997 20.24 18.22 13.75 18.82C6.86997 19.46 5.97997 9.00997 12.73 8.38997ZM15.8 12.3C15.03 10.14 12.06 9.82997 10.74 11.73C8.57997 14.83 12.52 18.43 15.19 15.94C16.04 15.15 16.52 13.8 16.1 12.67C15.99 12.36 15.85 12.37 15.8 12.29V12.3Z" fill="#0C0D10"/>
<path d="M59.07 37.5001C59.17 37.8201 59.52 37.5001 59.66 37.4101C60.19 37.1101 61.26 36.2701 61.73 36.1401C62.04 36.0501 61.92 36.2201 61.95 36.3701C61.99 36.5801 62.1 36.9501 62.11 37.0401C62.11 37.0901 62.11 37.1401 62.11 37.1901C62.84 43.9801 63.57 50.8001 64.41 57.5901C64.51 58.4201 64.65 59.3001 64.85 60.1101C64.85 60.1601 64.85 60.2101 64.85 60.2601C64.89 60.6301 64.81 61.0201 64.85 61.4001C65.26 65.5301 65.81 69.6601 66.37 73.7701L43.14 67.4701L40.92 48.3401C40.99 47.9001 42.08 47.8501 41.62 47.6601C47.41 44.2301 53.25 40.8501 59.08 37.4901L59.07 37.5001Z" fill="#FFE2B8"/>
<path d="M14.58 52.67L16.17 51.91L18.02 51.48L38.57 48.87L40.55 67.31C33.58 68.44 26.5 69.12 19.49 70.06C18.37 70.06 16.94 69.57 15.95 69.06C15.67 68.91 15.7 68.9 15.49 68.76L14.3 67.29C12.97 64.89 11.91 58.12 12.76 55.64L14.27 52.98C14.38 52.87 14.44 52.79 14.57 52.68L14.58 52.67Z" fill="#FFE2B8"/>
<path d="M29.16 87.13L24 72.19L32.96 71.11L37.5 84.64C37.52 86.36 36.79 87.42 35.11 87.84C33.19 88.31 30.9 88.69 29.31 87.28C29.26 87.23 29.21 87.18 29.16 87.13Z" fill="#6297D0"/>
<path d="M74.55 50.2501C74.74 50.3601 74.84 50.3201 75.09 50.5401C75.38 50.8101 75.33 50.9201 75.46 51.1601C76.96 53.7901 76.91 56.8201 73.94 58.2901L72.88 49.6401C73.04 49.4901 74.3 50.1101 74.55 50.2501Z" fill="#FFE2B8"/>
<path d="M15.95 69.07C16.95 69.59 18.37 70.08 19.49 70.07C26.5 69.12 33.57 68.45 40.55 67.32L38.57 48.88L18.02 51.49L16.17 51.92L14.58 52.68C15.45 51.94 16.14 51.57 17.28 51.35L38.72 48.58L40.81 67.48C40.76 67.65 40.62 67.68 40.47 67.7C33.28 68.79 25.97 69.45 18.76 70.28C17.79 70.1 16.66 69.78 15.95 69.07Z" fill="#FFE2B8"/>
<path d="M41.61 47.67C42.07 47.86 40.98 47.9 40.91 48.35L43.13 67.48L66.36 73.78C65.8 69.67 65.26 65.54 64.84 61.41C64.8 61.03 64.88 60.64 64.84 60.27L66.51 74.08L42.84 67.69C42.21 61.12 41.26 54.56 40.72 48L41.6 47.67H41.61Z" fill="#FFE2B8"/>
<path d="M29.16 87.1301C29.1 87.0601 28.92 87.0201 28.88 86.8901C27.14 81.8701 25.27 76.8801 23.7 71.8001L33.12 70.8101L37.6 83.9401C38.25 87.4801 35.5 88.3201 32.58 88.5001C31.24 88.5801 30.08 88.5401 29.32 87.2901C30.91 88.7001 33.2 88.3301 35.12 87.8501C36.8 87.4401 37.53 86.3701 37.51 84.6501L32.97 71.1201L24.01 72.2001L29.17 87.1401L29.16 87.1301Z" fill="#60B1E0"/>
<path d="M69.7 74.83C68.93 74.41 68.7 73.98 68.5 73.07C67 60.73 65.75 48.36 64.09 36.04C64.01 33.73 67.02 32.12 68.48 34.28C68.83 34.79 68.93 35.75 69.04 36.41C70.69 45.98 71.32 56.4 72.44 66.1C72.66 68.04 73.35 70.78 73.33 72.65C73.31 74.02 72.13 75.4 70.69 75.3C70.23 75.27 70.02 75.04 69.68 74.85C69.8 74.91 70.92 75.03 71.12 75.01C72.55 74.89 73.1 73.65 73.02 72.35C71.21 60.24 70.66 47.87 68.75 35.78C68.55 34.49 67.87 33.49 66.42 33.56C64.97 33.63 64.32 35.01 64.37 36.37C64.39 36.95 64.71 37.7 64.75 38.19C65.88 49.29 66.92 61.25 68.73 72.23C68.94 73.48 68.52 73.72 69.62 74.61C69.7 74.68 69.67 74.85 69.68 74.85L69.7 74.83Z" fill="#60B1E0"/>
<path d="M64.84 60.1099C64.64 59.2999 64.51 58.4199 64.4 57.5899C63.56 50.7999 62.83 43.9799 62.1 37.1899C62.3 37.4299 62.34 37.8899 62.38 38.1999C63.41 45.4399 64.1 52.8899 64.83 60.1099H64.84Z" fill="#FFE2B8"/>
<path d="M15.49 68.76C14.79 68.25 13.89 67.17 13.53 66.39C12.87 64.94 12.18 59.75 12.14 58.05C12.1 56.16 12.98 54.27 14.27 52.97L12.76 55.63C11.91 58.11 12.97 64.88 14.3 67.28L15.49 68.75V68.76Z" fill="#F2DB36"/>
<path d="M75.47 51.16C77.71 53.45 76.79 57.62 73.65 58.6L72.59 49.34C73.37 49.34 74.09 49.65 74.56 50.25C74.31 50.11 73.05 49.5 72.89 49.64L73.95 58.29C76.92 56.82 76.97 53.79 75.47 51.16Z" fill="#FFE2B8"/>
<path d="M59.07 37.4999C59.74 37.1099 61.28 36.01 61.88 35.83C62.31 35.71 62.02 36.7899 62.1 37.0399C62.09 36.9399 61.98 36.5799 61.94 36.3699C61.91 36.2199 62.04 36.0499 61.72 36.1399C61.25 36.2699 60.18 37.1099 59.65 37.4099C59.5 37.4899 59.16 37.8199 59.06 37.4999H59.07Z" fill="#F2DB36"/>
<path d="M166.87 35.5199C168.11 35.9299 168.57 37.0599 168.69 38.3299C169.15 43.4499 168.35 49.2299 168.69 54.4099C168.52 56.1299 167.41 57.3799 165.65 57.5199H98.47C98.4 57.4899 98.38 57.4399 98.39 57.3699C98.39 57.3499 98.53 57.2999 98.54 57.2199H97.93C96.95 56.9199 96.25 56.2599 95.96 55.2399L95.81 37.9399C95.91 37.0599 96.28 36.3099 97.02 35.8199C97.49 35.5099 98.19 35.2399 98.76 35.2099H165.43C165.94 35.1799 166.4 35.3699 166.87 35.5199ZM139.54 41.4399C139.54 41.4399 139.65 41.0699 139.32 41.1299C138.87 41.1899 137.65 40.9899 137.4 41.3899C136.59 44.2999 135.64 47.1899 134.94 50.1299C134.88 50.3899 134.72 50.6199 134.99 50.8499V51.4599C136.44 51.4599 136.46 51.7799 137.12 50.5499C137.27 50.2599 137.46 49.5799 137.67 49.5099C137.97 49.4099 139.88 49.4399 140.08 49.6399C140.44 49.9999 140.04 50.7599 140.61 50.7099C140.66 50.8899 140.63 51.4199 140.86 51.4799C141.33 51.4099 142.39 51.6199 142.73 51.3199C142.98 51.0999 142.89 50.9499 142.85 50.6799C142.6 48.9299 141.36 45.4499 140.71 43.6999C140.62 43.4599 140.7 43.1999 140.3 43.2799C140.01 42.3999 140.3 42.2499 139.54 41.4599V41.4399ZM103.1 42.1999C102.7 42.5499 101.85 43.9999 101.73 44.0199C101.72 44.0199 101.68 43.7799 101.58 43.8699C101.12 44.2899 101.32 47.5199 101.28 48.2699C101.35 48.2499 101.41 48.1199 101.43 48.1199C101.5 48.1199 101.56 48.1199 101.58 48.1999C101.58 49.0199 102.12 50.0799 102.64 50.6999C104.59 53.0099 108.98 51.6299 109.15 48.5899C109.06 48.5299 108.9 48.5999 108.86 48.5799C108.78 48.5199 108.8 48.3399 108.48 48.2799C108.16 48.2199 107.36 48.2499 107.07 48.3799C106.81 48.4899 106.87 48.9799 106.43 49.3399L105.45 49.4999C103.17 50.0999 103.42 44.9999 104.09 44.1899C104.41 43.8099 105.06 43.8999 105.07 43.4199C105.53 43.3599 106.18 43.5499 106.52 43.8699C106.86 44.1899 107 45.0199 107.07 45.0699C107.16 45.1299 108.57 45.1299 108.69 45.0599C109.74 44.4499 107.89 42.3999 107.36 41.9099C106.23 40.8799 104.18 41.2699 103.11 42.2099L103.1 42.1999ZM109.32 51.1599C109.35 51.3099 109.47 51.5599 109.47 51.6199C109.47 51.6399 109.28 51.6599 109.32 51.7699C109.96 51.7299 110.54 51.8999 111.14 51.6199C111.17 51.6099 111.27 51.4999 111.29 51.4699C111.32 51.4199 111.42 51.3799 111.44 51.3199C111.52 51.0899 111.5 50.5599 111.59 50.2599C112.14 50.3599 111.84 49.5699 112.15 49.4899C112.76 49.3499 113.86 49.6099 114.54 49.4899C114.9 50.0999 114.83 50.7599 115.24 51.3199C115.78 52.0599 117.46 51.9099 117.51 51.2599C116.54 48.3499 115.88 45.0499 114.7 42.2199C114.62 42.0199 114.53 41.7599 114.39 41.5999C114.25 41.4299 114.18 41.6199 114.17 41.6099C113.4 41.3899 112.94 41.5099 112.2 41.4599C112.19 41.4599 112.15 41.2999 112.06 41.3099L109.19 50.6899C109.05 50.9199 109.31 51.1099 109.32 51.1699V51.1599ZM130.43 51.4599C130.55 51.3399 130.68 51.3899 130.73 51.0799C130.82 50.5799 130.62 48.0699 130.73 47.9599H132.71C132.69 47.8899 132.56 47.8299 132.56 47.8099C132.56 47.7399 132.56 47.6899 132.64 47.6599C133.28 47.6399 134.06 47.1499 134.54 46.7499C135.79 45.6799 135.75 43.8099 134.69 42.6499C133.08 40.8899 131.1 41.4899 128.92 41.4399C128.89 41.4399 128.79 41.1499 128.54 41.4399C128.15 41.8699 128.31 45.2399 128.3 46.0799C128.3 46.3499 128.43 46.5899 128.43 46.8299C128.43 48.0199 128.09 49.7499 128.31 50.9199C128.48 51.7899 129.8 52.0899 130.43 51.4499V51.4599ZM143.94 41.4399C143.94 41.4399 143.78 41.2199 143.64 41.2899C143.29 41.5899 143.59 46.5299 143.49 47.3599C143.75 47.3999 143.63 47.0199 143.64 46.8299C143.66 46.3499 143.63 45.8599 143.64 45.3899C143.64 45.4199 143.8 45.6299 143.8 45.8999C143.83 47.7199 143.75 49.5599 143.77 51.3699C143.91 51.5599 145.53 51.5099 145.76 51.3099C145.89 51.1899 145.94 51.1399 145.92 50.9499V41.7499C145.65 41.7099 145.77 42.0899 145.76 42.2799C145.68 44.3399 145.76 46.5099 145.76 48.5799L145.61 41.4499C145.06 41.4199 144.49 41.4899 143.94 41.4499V41.4399ZM152.14 43.8699C152.18 43.9299 152.32 43.9699 152.41 44.1299C152.5 44.2999 152.55 44.7099 152.62 44.7599C152.69 44.8099 154.15 44.8099 154.32 44.7599C155.08 44.5099 154.07 42.8799 153.74 42.4999C151.68 40.1699 148.13 41.3399 147.29 44.1699C146.9 44.0599 146.87 44.6499 146.85 44.8699C146.8 45.3999 146.72 47.2499 146.83 47.6599C146.87 47.8299 146.99 47.8299 147.13 47.8099C147.13 47.8599 147.13 47.9099 147.13 47.9599C147.14 48.2099 146.88 48.3899 147.13 49.1099C148.46 52.9699 154.16 52.6599 154.99 48.2999C155.1 47.7199 155.32 46.4299 154.88 46.1399C154.73 46.0399 154.49 46.0299 154.42 45.9899C154.4 45.9799 154.46 45.7799 154.39 45.7199C154.28 45.6299 151.96 45.6499 151.61 45.6899C150.28 45.8299 150.45 46.5199 150.47 47.6599C150.56 47.6899 150.61 47.5099 150.62 47.5099C150.84 47.5399 150.86 47.7699 150.92 47.8099C151.38 48.1099 151.89 47.9199 152.44 47.9599L152.29 48.8699C151.67 49.5299 150.6 49.6899 149.86 49.0999C148.98 48.3899 149.08 45.7899 149.32 44.7599C149.62 43.4599 151.13 43.0299 152.14 43.8599V43.8699ZM158.97 42.9599C158.65 42.7399 158.32 41.7099 158.11 41.5799C157.7 41.3199 156.73 41.3899 156.24 41.4499V44.7799C156.24 44.7799 156.08 44.6099 156.08 44.4099C156.04 43.6499 156.11 42.8799 156.08 42.1199C156.08 41.9899 156.14 41.5699 155.93 41.8199C155.96 42.7799 155.89 43.7499 155.93 44.7099C155.94 44.9999 155.77 45.3199 156.23 45.2299C156.23 45.2799 156.23 45.3299 156.23 45.3799L156.1 51.1999C156.29 51.7599 157.64 51.6799 158.05 51.4499C158.08 51.4299 158.19 51.3299 158.2 51.2999C158.75 50.3299 157.99 47.4699 158.5 46.2899C158.97 47.0499 161.21 51.4099 161.58 51.5599C161.8 51.6499 162.29 51.6499 162.53 51.5999C163.42 51.4299 163.2 50.4499 163.22 49.7799V41.5799C162.68 41.2699 161.72 41.0999 161.25 41.5799C161.1 41.7299 161.11 41.7299 161.09 41.9399C160.94 43.3399 161.22 44.9999 161.09 46.4299C160.34 45.5599 159.76 44.2699 159.24 43.1899C159.19 43.0799 159.11 42.5599 158.97 42.9299V42.9599ZM118.13 41.5899V51.1499C118.18 51.6299 119.98 51.4899 120.07 51.4099C120.14 51.3499 120.09 51.1599 120.1 51.1499C120.11 51.1399 120.39 51.3299 120.4 51.2999L120.48 46.7399C120.67 46.7399 121.44 49.7199 122.6 49.7899C123.76 49.8599 124.07 48.2999 124.5 47.4199C124.57 47.2799 124.62 47.0099 124.8 47.0499L124.96 51.2999C125.04 51.2999 125.1 51.1399 125.11 51.1499C125.19 51.1699 125.78 51.7399 125.83 51.7499C127.36 52.0899 127.06 50.9499 127.09 49.9399C127.34 49.7799 127.24 49.3599 127.24 49.1099C127.26 47.0399 127.43 44.3099 127.09 42.3499C127.04 42.0699 127.23 41.5899 126.84 41.4599C126.66 41.3999 125.02 41.3899 124.81 41.4399C124.51 41.5099 123.18 44.6899 122.92 45.2499C122.8 45.5199 122.86 46.2799 122.5 45.6499C121.87 44.5399 121.37 43.0599 120.86 41.8999C120.79 41.9199 120.72 42.0599 120.71 42.0499C120.59 42.0299 120.43 41.5799 119.99 41.4699C119.63 41.3899 118.37 41.3699 118.12 41.5899H118.13Z" fill="#F8B2AD"/>
<path d="M97.03 35.83C97.6 34.92 98.89 35.09 99.83 34.91H165.28C165.64 35.04 166.86 34.97 166.87 35.52C166.4 35.37 165.95 35.18 165.43 35.21H98.76C98.19 35.24 97.49 35.51 97.02 35.82L97.03 35.83Z" fill="#FFCCCC"/>
<path d="M95.96 55.2499C95.88 54.9799 95.8 54.7099 95.8 54.4199C96.23 49.1799 95.25 43.0699 95.8 37.9399L95.95 55.2399L95.96 55.2499Z" fill="#FDE4D7"/>
<path d="M97.94 57.23H98.55C98.54 57.31 98.4 57.36 98.4 57.38C98.2 57.45 98.05 57.26 97.94 57.23Z" fill="#FDE4D7"/>
<path d="M14.54 97.3301L70.69 97.2901C72.01 97.2601 73.22 98.1301 73.34 99.5001C72.94 105.47 73.87 112.13 73.34 118.02C73.24 119.14 72.68 119.85 71.67 120.3C52.51 120.4 33.3 120.46 14.15 120.27C13.09 119.89 12.56 118.94 12.46 117.87C12.85 112.05 11.94 105.54 12.46 99.8001C12.58 98.4701 13.24 97.6301 14.55 97.3401L14.54 97.3301ZM17.57 103.25C16.54 103.79 16.9 105.45 18.14 105.35H67.65C68.78 105.12 68.99 103.76 67.88 103.29L17.57 103.25ZM53.58 110.83L17.47 110.88C16.64 111.25 16.91 113.01 18 112.93H52.63C53.89 112.91 54.22 111.81 53.58 110.83Z" fill="white"/>
<path d="M150.47 69.07V69.22L150.32 78.93C132.66 78.88 114.98 79.02 97.32 78.86L96.26 78.17C95.98 77.77 95.86 77.55 95.8 77.03C95.68 75.92 95.67 71.11 96 70.25C96.2 69.72 96.73 69.12 97.32 69.07C114.9 69.14 132.71 69.04 150.31 68.92C150.36 68.92 150.41 68.92 150.46 68.92V69.07H150.47Z" fill="#7ABBE7"/>
<path d="M168.54 70.58V77.26C168.44 78.07 167.86 78.91 167.02 79.08H150.62C150.57 79.08 150.52 79.08 150.47 79.08V78.93C150.47 75.69 150.47 72.45 150.47 69.22V69.07C155.71 69.07 160.96 69.07 166.2 69.08C166.48 69.08 166.69 68.92 166.71 68.92C167.39 68.91 168.43 69.93 168.53 70.59L168.54 70.58Z" fill="#CBE1ED"/>
<path d="M150.47 79.0801C150.52 79.0801 150.57 79.0801 150.62 79.0801C155.98 79.0801 161.35 79.0801 166.71 79.0801C166.55 79.3301 166.13 79.2301 165.88 79.2301C143.41 79.5101 120.92 79.0101 98.45 79.2301C98.25 79.3201 98.02 79.0801 97.94 79.0701C115.45 79.0501 132.97 79.1001 150.47 79.0701V79.0801Z" fill="#5177BB"/>
<path d="M150.32 68.91C132.72 69.03 114.92 69.14 97.33 69.06L150.32 68.91Z" fill="#67CAF3"/>
<path d="M150.32 78.93H150.47V79.08C132.96 79.11 115.44 79.06 97.94 79.08C97.1 78.95 96.8 78.92 96.27 78.17L97.33 78.86C114.98 79.02 132.67 78.88 150.33 78.93H150.32Z" fill="#67CAF3"/>
<path d="M167.02 79.08C166.93 79.1 166.81 79.07 166.72 79.08C161.36 79.08 155.99 79.08 150.63 79.08H167.03H167.02Z" fill="white"/>
<path d="M166.72 68.91C166.72 68.91 166.48 69.07 166.21 69.07C160.97 69.06 155.72 69.06 150.48 69.06V68.91C155.89 68.87 161.31 68.94 166.73 68.91H166.72Z" fill="white"/>
<path d="M168.54 77.26V70.58C168.72 71.71 168.69 76.07 168.54 77.26Z" fill="white"/>
<path d="M98.21 90.21C114.03 88.85 122.04 108.81 110 119C102.91 125 91.8 123.51 86.57 115.86C79.71 105.82 85.92 91.27 98.2 90.21H98.21ZM103.4 102.31C103.99 100.3 104.95 97.86 103.62 95.94C102.71 94.64 100.7 93.91 99.6 95.4C98.96 96.26 98.44 97.91 97.72 98.99C97.32 99.59 95.46 102.04 94.98 102.32C93.67 103.07 90.47 101.35 90.19 103.75C89.79 107.1 90.49 111.24 90.2 114.67C90.47 116.41 93.85 115.49 95.13 115.66C95.6 115.72 95.91 116.05 96.49 116.12C98.59 116.37 102.79 116.3 104.99 116.24C107.05 116.18 108.85 114.75 109.13 112.67C109.21 112.09 108.96 111.36 109.04 111.07C109.16 110.62 109.82 110.19 109.91 109.2C109.98 108.5 109.66 107.97 109.69 107.55C109.71 107.28 110.08 106.8 110.16 106.42C110.49 104.89 109.83 103.21 108.34 102.61C108.22 102.56 107.32 102.31 107.27 102.31H103.4Z" fill="#77D4A4"/>
<path d="M144.55 92.59C144.59 92.86 144.99 92.52 145.1 92.46C158.8 84.89 173.47 98.71 167.7 112.77C163.01 124.18 149.15 125.49 140.91 116.87C140.08 116 139.76 115.52 139.24 114.44C136.43 108.63 136.73 102.67 140 97.14C141.11 95.25 142.7 93.76 144.55 92.59ZM154.27 94.87C153.75 94.6 152.07 94.57 151.87 95.28C151.77 95.64 151.87 96.89 151.66 97.12C151.61 97.17 150.58 97.41 150.32 97.53C149.96 97.69 149.62 97.89 149.26 98.06C149.21 98.09 149.16 98.17 149.11 98.21C149.06 98.26 149 98.31 148.96 98.36C147.66 98.99 146.82 101.13 146.87 102.49C146.93 104.17 148.1 106.13 149.61 106.9C151.12 107.67 154.5 107.85 155.57 108.84C156.76 109.94 156.02 111.99 154.46 112.45C153.54 112.72 152.82 112.4 151.99 112.64C150.86 112.34 150.1 111.34 149.86 110.21C149.86 110.2 150 110.14 150.01 110.07C149.51 109.89 147.17 110.01 146.86 110.26C146.01 110.95 147.13 112.51 147.58 113.1C147.77 113.35 148.27 113.93 148.49 114.16C149.29 114.98 150.19 115.51 151.36 115.69C151.41 117.53 151.62 118.43 153.72 118.09C155.27 117.84 154.21 116.43 154.79 115.82C154.98 115.63 156.01 115.4 156.44 115.19C156.9 114.97 157.09 114.78 157.45 114.45C157.81 114.12 158.32 113.59 158.66 113.24C160.87 110.96 159.52 106.86 156.79 105.62C155.24 104.92 153.35 104.79 151.83 104.2C151.36 104.02 151.19 103.64 150.77 103.52C150.71 103.43 150.56 103.43 150.47 103.14C149.56 100.21 153.31 99.08 155.17 100.72C155.45 100.97 155.38 101.11 155.48 101.24C155.87 103.04 156.46 102.57 157.84 102.45C158.26 102.41 158.77 102.85 158.97 102.15C158.98 102.11 158.97 102.05 158.97 102C159.46 102.06 159.23 101.86 159.17 101.57C158.83 100 157.58 98.21 156.13 97.47C155.8 97.3 154.63 97.04 154.58 96.97C154.33 96.59 154.93 95.22 154.26 94.87H154.27Z" fill="#FFE2B8"/>
<path d="M144.55 92.59C153.74 86.8 165.67 91.62 168.53 101.94C172.87 117.6 155.01 129.16 142.59 118.76L140.9 116.88C149.14 125.49 163.01 124.19 167.69 112.78C173.47 98.72 158.79 84.89 145.09 92.47C144.98 92.53 144.58 92.87 144.54 92.6L144.55 92.59Z" fill="#F2DB36"/>
<path d="M139.23 114.45C138.87 114.23 138.72 113.75 138.55 113.38C136.24 108.17 136.56 101.75 139.99 97.14C136.72 102.68 136.42 108.63 139.23 114.44V114.45Z" fill="#F2DB36"/>
<path d="M81.08 54.19C80.98 54.15 80.49 53.41 80.47 53.19C80.45 52.91 80.71 52.28 80.96 52.16C82.7 51.96 84.73 51.49 86.46 51.44C87.54 51.41 88.55 51.97 87.9 53.15C87.48 53.92 83.19 53.83 82.21 54.18C81.91 54.13 81.31 54.26 81.07 54.18L81.08 54.19Z" fill="#0C0D10"/>
<path d="M29.46 10.93C30.31 11.21 31.22 12.5 31.13 13.36C31.13 13.45 30.8 14.55 30.74 14.71C29.87 16.98 26.62 17.22 25.59 15.03C24.28 12.23 26.68 10.03 29.46 10.93Z" fill="#FFE2B8"/>
<path d="M29.46 10.93C26.68 10.02 24.28 12.23 25.59 15.03C26.62 17.23 29.87 16.98 30.74 14.71C30.8 14.55 31.12 13.45 31.13 13.36C31.26 17.96 24.58 17.79 25.06 13.13C25.27 11.13 27.75 9.72004 29.46 10.93Z" fill="#F2DB36"/>
<path d="M42.48 10.52C47.03 9.89996 47.31 17.38 42.3 16.69C39.23 16.26 39.01 10.99 42.48 10.52Z" fill="#60C08E"/>
<path d="M15.8 12.3C15.85 12.37 15.99 12.37 16.1 12.68C16.52 13.81 16.04 15.15 15.19 15.95L13.29 16.57C9.21 16.67 9.37 10.19 13.73 10.8C14.66 10.93 15.31 11.55 15.79 12.3H15.8Z" fill="#F4D1C5"/>
<path d="M15.19 15.9401C12.52 18.4301 8.58999 14.8301 10.74 11.7301C12.06 9.83006 15.02 10.1401 15.8 12.3001C15.32 11.5401 14.67 10.9301 13.74 10.8001C9.36999 10.1901 9.21999 16.6701 13.3 16.5701L15.2 15.9501L15.19 15.9401Z" fill="#FFCCCC"/>
<path d="M69.7 74.83C69.7 74.83 69.72 74.66 69.64 74.59C68.54 73.7 68.96 73.46 68.75 72.21C66.94 61.23 65.89 49.27 64.77 38.17C64.72 37.69 64.4 36.93 64.39 36.35C64.34 35 64.96 33.62 66.44 33.54C67.92 33.46 68.57 34.47 68.77 35.76C70.68 47.85 71.22 60.22 73.04 72.33C73.12 73.64 72.57 74.87 71.14 74.99C70.94 75.01 69.81 74.89 69.7 74.83Z" fill="#6297D0"/>
<path d="M120.71 42.05L122.35 45.8C122.41 45.97 122.66 46.28 122.84 46.15C123.04 46 124.46 42.01 124.82 41.45C125.03 41.4 126.67 41.41 126.85 41.47C127.24 41.6 127.05 42.08 127.1 42.36C127.05 44.88 127.17 47.43 127.1 49.95C127.07 50.96 127.38 52.11 125.84 51.76C125.79 51.75 125.2 51.18 125.12 51.16V46.15C124.06 46.89 124.07 49.94 122.5 49.61C121.61 49.43 120.86 46.55 120.19 45.84C120.05 46.32 120.12 46.86 120.11 47.36C120.11 47.92 120.11 48.47 120.11 49.03V51.15C120.11 51.15 120.15 51.35 120.08 51.41C119.99 51.49 118.19 51.62 118.14 51.15V41.59C118.39 41.37 119.65 41.39 120.01 41.47C120.44 41.57 120.61 42.03 120.73 42.05H120.71Z" fill="#0C0D10"/>
<path d="M156.24 44.78V41.45C156.74 41.39 157.7 41.33 158.11 41.58C158.32 41.71 158.65 42.74 158.97 42.96L160.95 46.91C161.39 46.99 161.23 46.76 161.25 46.46C161.36 44.88 161.17 43.19 161.25 41.6C161.73 41.12 162.68 41.29 163.22 41.6C163.16 44.33 163.31 47.07 163.22 49.8C163.2 50.47 163.42 51.44 162.53 51.62C162.29 51.67 161.81 51.67 161.58 51.58C161.21 51.43 158.98 47.07 158.5 46.31C158.4 46.15 158.42 45.83 158.2 45.86V51.32C158.2 51.32 158.07 51.46 158.05 51.47C157.53 51.42 156.45 51.7 156.26 51.06C156.17 49.18 156.28 47.28 156.23 45.4C156.23 45.35 156.23 45.3 156.23 45.25C156.23 45.1 156.23 44.95 156.23 44.79L156.24 44.78Z" fill="#0C0D10"/>
<path d="M147.28 44.17C148.13 41.34 151.67 40.17 153.73 42.5C154.06 42.87 155.07 44.5 154.31 44.76C154.14 44.82 152.68 44.82 152.61 44.76C152.54 44.71 152.5 44.29 152.4 44.13C152.31 43.97 152.17 43.93 152.13 43.87C152.11 43.84 152.17 43.69 152.03 43.56C151.35 42.97 150.19 43.26 149.62 43.86C148.71 44.83 148.77 47.45 149.28 48.61C149.84 49.86 151.74 50.09 152.43 48.87C152.52 48.71 152.83 47.9 152.73 47.81H150.91C150.85 47.77 150.82 47.54 150.61 47.51C150.39 45.62 151.18 46.03 152.58 45.99C153.08 45.98 153.59 45.99 154.1 45.99H154.4C154.46 46.03 154.7 46.04 154.86 46.14C155.04 48.61 154.17 51.48 151.3 51.61C148.93 51.72 147.33 50.31 147.12 47.96C147.12 47.91 147.12 47.86 147.12 47.81C147.11 47.53 146.97 47.52 146.97 47.51C146.94 46.25 146.91 45.38 147.27 44.17H147.28Z" fill="#0C0D10"/>
<path d="M114.18 41.5901C115.4 44.6601 116.32 47.8901 117.22 51.0801C117.28 51.9001 115.52 51.8001 115.24 51.1501C115.13 50.7701 114.97 49.4401 114.69 49.3501L112 49.3201C111.89 49.3501 111.65 50.0701 111.6 50.2401C111.51 50.5401 111.53 51.0801 111.45 51.3001L111.3 51.4501C111.3 51.4501 111.17 51.5901 111.15 51.6001H109.48C109.48 51.5401 109.36 51.3001 109.33 51.1401L112.21 41.4301C112.95 41.4801 113.42 41.3701 114.18 41.5801V41.5901ZM112.51 47.2101C112.61 47.5301 113.87 47.2901 114.18 47.3601C114.01 47.0701 113.97 46.7601 113.88 46.4501C113.71 45.8801 113.58 45.0101 113.12 44.6301C113.18 45.2101 112.38 46.7901 112.51 47.2101Z" fill="#0C0D10"/>
<path d="M139.54 41.44C140.3 42.23 140.01 42.38 140.3 43.26C141.19 45.91 142.12 48.57 142.73 51.3C142.38 51.6 141.33 51.39 140.86 51.46C140.63 51.41 140.66 50.87 140.61 50.69C140.53 50.41 140.37 49.64 140.23 49.47C140.06 49.27 137.82 49.24 137.52 49.34C137.19 49.45 137.11 50.21 137.12 50.53C136.47 51.77 136.45 51.44 134.99 51.44V50.83L137.57 41.53C137.79 41.17 139.13 41.53 139.55 41.42L139.54 41.44ZM139.53 47.35C139.66 47.16 138.87 44.45 138.63 44.63C138.65 45.16 137.84 46.97 137.9 47.29C137.97 47.68 139.42 47.51 139.53 47.35Z" fill="#0C0D10"/>
<path d="M134.68 42.66C135.43 44.17 135.44 45.32 134.53 46.76C134.05 47.17 133.27 47.65 132.63 47.67C132.55 47.7 132.55 47.75 132.55 47.82H130.58C130.53 48.36 130.71 51.28 130.43 51.46C130.35 51.51 128.49 51.62 128.61 51.08C128.56 48.8 128.67 46.52 128.61 44.24C128.59 43.43 128 41.96 128.91 41.44C131.09 41.49 133.07 40.9 134.68 42.65V42.66ZM132.1 43.26C131.63 43.2 131.07 43.3 130.58 43.26V45.84C132.1 46.49 134.22 45.27 132.86 43.72C132.6 43.42 132.55 43.32 132.1 43.26Z" fill="#0C0D10"/>
<path d="M107.35 41.9C107.89 42.39 109.73 44.45 108.68 45.05C108.56 45.12 107.15 45.12 107.06 45.06C106.99 45.02 106.85 44.19 106.51 43.86C106.17 43.53 105.53 43.35 105.06 43.41C104.05 43.54 103.5 44.79 103.39 45.69C103.34 46.07 103.37 46.65 103.39 47.06C103.46 48.64 103.94 49.84 105.75 49.64C106.14 49.6 106.15 49.56 106.43 49.33C106.87 48.97 106.81 48.48 107.07 48.37C107.37 48.24 108.16 48.21 108.48 48.27C108.8 48.33 108.77 48.51 108.86 48.57C109.09 49.96 107.66 51.2 106.4 51.5C104.91 51.86 103.85 51.5 102.63 50.69C102.1 50.07 101.57 49.01 101.57 48.19C101.55 48.11 101.49 48.11 101.42 48.11C101.46 46.73 101.25 45.33 101.72 44.01C101.83 43.99 102.69 42.54 103.09 42.19C104.53 41.5 105.82 41.24 107.34 41.89L107.35 41.9Z" fill="#0C0D10"/>
<path d="M143.94 41.44C144.49 41.48 145.06 41.41 145.61 41.44L145.76 48.57V51.3C145.53 51.5 143.91 51.55 143.77 51.36C143.75 49.55 143.83 47.71 143.8 45.89C143.8 45.62 143.64 45.4 143.64 45.38C143.62 44.34 143.57 43.13 143.64 42.11C143.66 41.83 143.61 41.54 143.95 41.44H143.94Z" fill="#0C0D10"/>
<path d="M128.91 41.44C128.01 41.96 128.59 43.43 128.61 44.24C128.66 46.52 128.56 48.8 128.61 51.08C128.5 51.62 130.35 51.51 130.43 51.46C129.79 52.1 128.47 51.8 128.31 50.93C128.09 49.76 128.44 48.02 128.43 46.84C128.43 46.6 128.3 46.35 128.3 46.09C128.3 45.25 128.14 41.88 128.54 41.45C128.79 41.17 128.89 41.45 128.92 41.45L128.91 41.44Z" fill="#F4D1C5"/>
<path d="M112.21 41.44L109.33 51.15C109.32 51.09 109.06 50.9 109.2 50.67L112.07 41.29C112.16 41.29 112.19 41.44 112.21 41.44Z" fill="#F4D1C5"/>
<path d="M140.3 43.26C140.69 43.18 140.62 43.44 140.71 43.68C141.36 45.44 142.6 48.91 142.85 50.66C142.89 50.93 142.98 51.08 142.73 51.3C142.12 48.56 141.19 45.91 140.3 43.26Z" fill="#F4D1C5"/>
<path d="M115.25 51.31V51.16C115.53 51.82 117.29 51.91 117.23 51.09C116.33 47.9 115.41 44.67 114.19 41.6C114.2 41.6 114.26 41.42 114.41 41.59C114.55 41.75 114.64 42.01 114.72 42.21C115.89 45.03 116.56 48.33 117.53 51.25C117.48 51.9 115.8 52.06 115.26 51.31H115.25Z" fill="#F4D1C5"/>
<path d="M134.98 50.85C134.71 50.61 134.87 50.39 134.93 50.13C135.64 47.19 136.58 44.3 137.39 41.39C137.64 40.98 138.86 41.19 139.31 41.13C139.64 41.07 139.5 41.41 139.53 41.44C139.11 41.55 137.77 41.18 137.55 41.55L134.97 50.85H134.98Z" fill="#F4D1C5"/>
<path d="M120.1 47.36C120.1 46.86 120.03 46.32 120.18 45.84C120.85 46.55 121.6 49.42 122.49 49.61C124.06 49.93 124.05 46.89 125.11 46.15V51.16C125.11 51.16 125.04 51.31 124.96 51.31L124.8 47.06C124.61 47.03 124.56 47.29 124.5 47.43C124.07 48.31 123.78 49.88 122.6 49.8C121.42 49.72 120.67 46.74 120.48 46.75L120.4 51.31C120.4 51.31 120.11 51.15 120.1 51.16V49.04C120.35 48.68 120.36 47.76 120.1 47.37V47.36Z" fill="#F4D1C5"/>
<path d="M145.76 51.31V48.58C145.76 46.51 145.68 44.34 145.76 42.28C145.76 42.1 145.65 41.72 145.91 41.75V50.95C145.94 51.15 145.89 51.2 145.76 51.31Z" fill="#FDE4D7"/>
<path d="M163.22 49.79C163.31 47.07 163.16 44.32 163.22 41.59V49.79Z" fill="#FDE4D7"/>
<path d="M127.09 49.94C127.16 47.42 127.04 44.88 127.09 42.35C127.44 44.3 127.27 47.04 127.24 49.11C127.24 49.37 127.34 49.78 127.09 49.94Z" fill="#FDE4D7"/>
<path d="M158.06 51.46C157.65 51.69 156.3 51.77 156.11 51.21L156.24 45.39C156.29 47.27 156.18 49.17 156.27 51.05C156.46 51.69 157.54 51.41 158.06 51.46Z" fill="#FDE4D7"/>
<path d="M134.53 46.75C135.44 45.31 135.44 44.16 134.68 42.65C135.74 43.81 135.78 45.68 134.53 46.75Z" fill="#F4D1C5"/>
<path d="M132.55 47.8199C132.55 47.8199 132.69 47.8999 132.7 47.9699H130.72C130.61 48.0799 130.81 50.5899 130.72 51.0899C130.67 51.3999 130.54 51.3499 130.42 51.4699C130.7 51.2899 130.52 48.3599 130.57 47.8299H132.54L132.55 47.8199Z" fill="#FDE4D7"/>
<path d="M150.62 47.5099C150.62 47.5099 150.56 47.69 150.47 47.66C150.44 46.52 150.28 45.8199 151.61 45.6899C151.96 45.6499 154.29 45.63 154.39 45.72C154.46 45.78 154.39 45.98 154.42 45.99H154.12C153.81 45.74 152.94 45.73 152.6 45.99C151.2 46.03 150.41 45.6199 150.63 47.5099H150.62Z" fill="#F4D1C5"/>
<path d="M143.94 41.44C143.59 41.55 143.64 41.83 143.63 42.11C143.57 43.14 143.61 44.34 143.63 45.38C143.62 45.86 143.65 46.34 143.63 46.82C143.63 47 143.74 47.38 143.48 47.35C143.58 46.52 143.28 41.58 143.63 41.28C143.78 41.21 143.91 41.43 143.93 41.43L143.94 41.44Z" fill="#FDE4D7"/>
<path d="M152.44 48.88C151.75 50.1 149.85 49.86 149.29 48.62C148.77 47.46 148.72 44.84 149.63 43.87C150.2 43.26 151.36 42.98 152.04 43.57C152.18 43.7 152.12 43.84 152.14 43.88C151.13 43.05 149.62 43.48 149.32 44.78C149.08 45.81 148.98 48.41 149.86 49.12C150.6 49.71 151.67 49.55 152.29 48.89H152.44V48.88Z" fill="#F4D1C5"/>
<path d="M158.52 46.3C158 47.48 158.76 50.34 158.22 51.31V45.85C158.45 45.82 158.42 46.14 158.52 46.3Z" fill="#FDE4D7"/>
<path d="M105.07 43.42C105.07 43.9 104.41 43.8 104.09 44.19C103.42 45 103.17 50.1 105.45 49.5L106.43 49.34C106.16 49.57 106.14 49.61 105.75 49.65C103.94 49.84 103.46 48.65 103.39 47.07C103.65 46.79 103.65 45.99 103.39 45.7C103.5 44.81 104.05 43.56 105.06 43.42H105.07Z" fill="#FDE4D7"/>
<path d="M108.87 48.58C108.87 48.58 109.07 48.54 109.16 48.59C108.99 51.63 104.6 53.02 102.65 50.7C103.86 51.51 104.93 51.87 106.42 51.51C107.68 51.21 109.11 49.97 108.88 48.58H108.87Z" fill="#F4D1C5"/>
<path d="M115.25 51.16V51.31C114.84 50.75 114.91 50.09 114.55 49.48C113.87 49.61 112.77 49.34 112.16 49.48C111.85 49.55 112.16 50.35 111.6 50.25C111.65 50.08 111.89 49.36 112 49.33L114.69 49.36C114.98 49.46 115.13 50.79 115.24 51.16H115.25Z" fill="#FDE4D7"/>
<path d="M147.13 47.97C147.34 50.32 148.94 51.73 151.31 51.62C154.18 51.49 155.05 48.62 154.87 46.15C155.32 46.45 155.09 47.74 154.98 48.31C154.14 52.67 148.45 52.98 147.12 49.12C146.87 48.4 147.14 48.22 147.12 47.97H147.13Z" fill="#F4D1C5"/>
<path d="M161.25 46.45H161.1C161.22 45.02 160.94 43.36 161.1 41.96C161.12 41.74 161.11 41.75 161.26 41.6C161.18 43.19 161.37 44.88 161.26 46.46L161.25 46.45Z" fill="#FDE4D7"/>
<path d="M101.73 44.02C101.26 45.34 101.46 46.74 101.43 48.12C101.41 48.12 101.35 48.25 101.28 48.27C101.32 47.52 101.12 44.28 101.58 43.87C101.68 43.78 101.72 44.02 101.73 44.02Z" fill="#FDE4D7"/>
<path d="M140.6 50.7C140.03 50.75 140.44 49.99 140.07 49.63C139.87 49.43 137.96 49.4 137.66 49.5C137.45 49.57 137.26 50.26 137.11 50.54C137.11 50.22 137.18 49.46 137.51 49.35C137.81 49.25 140.06 49.28 140.22 49.48C140.35 49.64 140.52 50.42 140.6 50.7Z" fill="#FDE4D7"/>
<path d="M107.35 41.9C105.83 41.25 104.54 41.52 103.1 42.2C104.17 41.26 106.22 40.86 107.35 41.9Z" fill="#F4D1C5"/>
<path d="M156.24 44.78C156.24 44.93 156.24 45.08 156.24 45.24C155.78 45.32 155.95 45.01 155.94 44.72C155.9 43.76 155.97 42.79 155.94 41.83C156.16 41.58 156.09 42 156.09 42.13C156.11 42.89 156.05 43.66 156.09 44.42C156.09 44.62 156.25 44.77 156.25 44.79L156.24 44.78Z" fill="#F4D1C5"/>
<path d="M147.28 44.17C146.92 45.38 146.94 46.25 146.98 47.51L146.83 47.66C146.72 47.24 146.8 45.4 146.85 44.87C146.87 44.65 146.9 44.06 147.29 44.17H147.28Z" fill="#FDE4D7"/>
<path d="M124.81 41.4401C124.45 42.0001 123.04 45.9901 122.83 46.1401C122.66 46.2701 122.4 45.9701 122.34 45.7901L120.7 42.0401C120.7 42.0401 120.78 41.9101 120.85 41.8901C121.36 43.0601 121.86 44.5401 122.49 45.6401C122.85 46.2701 122.79 45.5101 122.91 45.2401C123.17 44.6801 124.5 41.5001 124.8 41.4301L124.81 41.4401Z" fill="#F4D1C5"/>
<path d="M150.93 47.8199H152.75C152.85 47.9199 152.54 48.7199 152.45 48.8799H152.3L152.45 47.9699C151.91 47.9199 151.39 48.1199 150.93 47.8199Z" fill="#FDE4D7"/>
<path d="M111.15 51.61C110.55 51.89 109.97 51.72 109.33 51.76C109.29 51.65 109.48 51.63 109.48 51.61H111.15Z" fill="#FDE4D7"/>
<path d="M161.1 46.45H161.25C161.23 46.75 161.39 46.99 160.95 46.9L158.97 42.95C159.11 42.57 159.19 43.09 159.24 43.21C159.76 44.29 160.34 45.57 161.09 46.45H161.1Z" fill="#F4D1C5"/>
<path d="M147.13 47.82C146.99 47.83 146.87 47.84 146.83 47.67L146.98 47.52C146.98 47.52 147.12 47.54 147.13 47.82Z" fill="#F4D1C5"/>
<path d="M111.3 51.4601L111.45 51.3101C111.43 51.3801 111.33 51.4101 111.3 51.4601Z" fill="#FDE4D7"/>
<path d="M17.57 103.25L67.88 103.29C68.99 103.76 68.78 105.13 67.65 105.35H18.14C16.9 105.45 16.54 103.79 17.57 103.25Z" fill="#0C0D10"/>
<path d="M53.58 110.83C54.21 111.81 53.89 112.91 52.63 112.94H17.99C16.9 113.02 16.63 111.25 17.46 110.89L53.57 110.84L53.58 110.83Z" fill="#0C0D10"/>
<path d="M150.47 78.93H150.32L150.47 69.22C150.47 72.46 150.47 75.7 150.47 78.93Z" fill="#5177BB"/>
<path d="M103.4 102.31H107.27C107.33 102.31 108.22 102.56 108.34 102.61C109.84 103.21 110.49 104.89 110.16 106.42C110.08 106.8 109.7 107.27 109.69 107.55C109.66 107.98 109.98 108.5 109.91 109.2C109.82 110.2 109.16 110.62 109.04 111.07C108.96 111.36 109.21 112.08 109.13 112.67C108.86 114.75 107.06 116.19 104.99 116.24C102.79 116.3 98.59 116.37 96.49 116.12C95.91 116.05 95.6 115.72 95.13 115.66C93.85 115.49 90.47 116.41 90.2 114.67C90.49 111.24 89.79 107.1 90.19 103.75C90.48 101.35 93.67 103.07 94.98 102.32C95.47 102.04 97.33 99.59 97.72 98.99C98.44 97.91 98.96 96.27 99.6 95.4C100.7 93.91 102.7 94.64 103.62 95.94C104.96 97.85 104 100.29 103.4 102.31ZM101.37 96.7C100.01 99.41 98.26 101.8 96.3 104.09C96.52 106.99 95.88 110.67 96.26 113.47C96.3 113.78 96.35 114 96.68 114.12L105.6 114.14C106.6 113.9 107.31 112.65 107.02 111.68C106.92 111.35 106.38 111.15 106.44 110.59C106.52 109.78 108.11 109.98 107.78 108.49C107.67 108.01 107.1 107.75 107.2 107.1C107.27 106.61 108.96 105.66 107.81 104.67C107.28 104.21 104.14 104.5 103.19 104.44C99.91 104.2 101.14 103.25 101.7 100.98C101.98 99.85 102.91 97.06 101.38 96.71L101.37 96.7ZM94.14 104.43H92.17V113.84H94.14V104.43Z" fill="#0C0D10"/>
<path d="M154.27 94.87C154.53 95.65 154.39 96.49 154.42 97.3C156.56 97.21 159.15 99.95 158.97 102.01C158.97 102.06 158.98 102.12 158.97 102.16C158.11 102.47 157.09 102.27 156.18 102.29C155.95 101.93 155.72 101.6 155.48 101.25C155.38 101.11 155.45 100.98 155.17 100.73C153.31 99.09 149.56 100.23 150.47 103.15C150.56 103.44 150.71 103.44 150.77 103.53C150.79 103.57 150.73 103.71 150.87 103.84C152.74 105.5 156.71 104.74 158.51 107.25C159.9 109.19 159.72 111.21 158.66 113.25C158.31 113.61 157.8 114.15 157.45 114.46C157.07 114.88 154.57 115.53 154.48 115.67C153.88 116.52 155.56 118.06 152.66 117.81C150.88 117.66 152.06 116 151.67 115.54C151.61 115.47 150.17 115.19 149.83 115.03C149.36 114.8 149.03 114.28 148.5 114.16C148.28 113.93 147.78 113.35 147.59 113.1C147.47 112.39 146.38 111.23 146.9 110.51C147.12 110.21 149.39 110.2 149.87 110.22C150.1 111.35 150.86 112.35 152 112.65C154.22 113.23 156.83 112.24 156.22 109.57C155.82 107.83 151.79 107.5 150.33 106.96C148.66 106.34 147.49 105.07 147.21 103.25C146.89 101.22 147.69 99.84 148.96 98.39C149.01 98.34 149.06 98.2899 149.11 98.2399C149.16 98.1899 149.22 98.1499 149.26 98.0899C149.62 97.9199 149.96 97.7199 150.32 97.5599C150.58 97.4399 151.61 97.2 151.66 97.15C151.87 96.92 151.76 95.6699 151.87 95.3099C152.07 94.5999 153.75 94.63 154.27 94.9V94.87Z" fill="#0C0D10"/>
<path d="M148.5 114.15C149.03 114.27 149.36 114.79 149.83 115.02C150.17 115.18 151.61 115.46 151.67 115.53C152.06 115.99 150.89 117.65 152.66 117.8C155.56 118.05 153.88 116.51 154.48 115.66C154.57 115.53 157.07 114.87 157.45 114.45C157.09 114.77 156.9 114.97 156.44 115.19C156.02 115.4 154.98 115.63 154.79 115.82C154.2 116.42 155.27 117.84 153.72 118.09C151.62 118.42 151.41 117.52 151.36 115.69C150.19 115.51 149.29 114.98 148.49 114.16L148.5 114.15Z" fill="#F2DB36"/>
<path d="M150.77 103.52C151.19 103.64 151.37 104.02 151.83 104.2C153.35 104.79 155.24 104.91 156.79 105.62C159.52 106.86 160.87 110.95 158.66 113.24C159.72 111.2 159.9 109.19 158.51 107.24C156.71 104.73 152.74 105.49 150.87 103.83C150.72 103.7 150.79 103.56 150.77 103.52Z" fill="#F2DB36"/>
<path d="M148.95 98.36C147.67 99.82 146.88 101.19 147.2 103.22C147.49 105.03 148.65 106.31 150.32 106.93C151.78 107.47 155.81 107.81 156.21 109.54C156.82 112.21 154.21 113.2 151.99 112.62C152.81 112.38 153.54 112.7 154.46 112.43C156.01 111.98 156.76 109.93 155.57 108.82C154.5 107.83 151.09 107.63 149.61 106.88C148.13 106.13 146.93 104.16 146.87 102.47C146.82 101.11 147.66 98.97 148.96 98.34L148.95 98.36Z" fill="#F2DB36"/>
<path d="M154.27 94.87C154.94 95.23 154.35 96.59 154.59 96.97C154.63 97.04 155.81 97.31 156.14 97.47C157.59 98.21 158.84 100 159.18 101.57C159.24 101.86 159.46 102.06 158.98 102C159.16 99.94 156.57 97.2 154.43 97.29C154.39 96.48 154.54 95.64 154.28 94.86L154.27 94.87Z" fill="#F2DB36"/>
<path d="M147.59 113.08C147.14 112.48 146.02 110.93 146.87 110.24C147.18 109.99 149.52 109.88 150.02 110.05C150.02 110.13 149.86 110.18 149.87 110.19C149.39 110.17 147.12 110.18 146.9 110.48C146.38 111.2 147.47 112.36 147.59 113.07V113.08Z" fill="#F2DB36"/>
<path d="M158.97 102.16C158.77 102.85 158.26 102.42 157.84 102.46C156.46 102.58 155.87 103.06 155.48 101.25C155.73 101.6 155.95 101.93 156.18 102.29C157.08 102.27 158.11 102.47 158.97 102.16Z" fill="#F2DB36"/>
<path d="M149.1 98.2101C149.1 98.2101 149.2 98.0801 149.25 98.0601C149.21 98.1201 149.15 98.1601 149.1 98.2101Z" fill="#F2DB36"/>
<path d="M120.1 49.03C120.1 48.47 120.1 47.92 120.1 47.36C120.36 47.75 120.35 48.67 120.1 49.03Z" fill="#F8B2AD"/>
<path d="M154.11 46C153.61 46 153.1 45.99 152.59 46C152.93 45.74 153.8 45.75 154.11 46Z" fill="#F8B2AD"/>
<path d="M113.88 46.45C113.55 46.52 113.95 47.15 113.88 47.21C113.81 47.28 112.77 47.17 112.51 47.21C112.38 46.79 113.18 45.21 113.12 44.63C113.57 45.01 113.71 45.88 113.88 46.45Z" fill="#F8B2AD"/>
<path d="M113.88 46.45C113.97 46.76 114.02 47.07 114.18 47.36C113.87 47.29 112.61 47.5299 112.51 47.2099C112.76 47.1699 113.8 47.2699 113.88 47.2099C113.95 47.1499 113.55 46.52 113.88 46.45Z" fill="#FDE4D7"/>
<path d="M139.53 47.35C139.42 47.52 137.97 47.68 137.9 47.29C137.85 46.97 138.66 45.16 138.63 44.63C138.86 44.45 139.66 47.16 139.53 47.35ZM139.39 47.21C139.12 46.68 139.08 46.08 138.86 45.54C138.8 45.39 138.84 45.19 138.64 45.24L138.18 47.21H139.39Z" fill="#F4D1C5"/>
<path d="M132.86 43.72C133.46 45.72 132.45 45.83 130.73 45.69V43.57C130.73 43.5 131.93 43.6 132.1 43.27C132.55 43.33 132.6 43.43 132.86 43.73V43.72Z" fill="#F8B2AD"/>
<path d="M132.1 43.26C131.93 43.6 130.73 43.49 130.73 43.56V45.68C132.44 45.82 133.45 45.7 132.86 43.71C134.23 45.26 132.1 46.49 130.58 45.83V43.25C131.06 43.29 131.63 43.19 132.1 43.25V43.26Z" fill="#F4D1C5"/>
<path d="M103.4 47.0599C103.38 46.6599 103.35 46.0799 103.4 45.6899C103.66 45.9699 103.66 46.7699 103.4 47.0599Z" fill="#F8B2AD"/>
<path d="M101.37 96.6999C102.9 97.0599 101.97 99.8399 101.69 100.97C101.13 103.24 99.9 104.19 103.18 104.43C104.13 104.5 107.27 104.21 107.8 104.66C108.96 105.66 107.26 106.6 107.19 107.09C107.1 107.74 107.66 108 107.77 108.48C108.1 109.97 106.51 109.77 106.43 110.58C106.37 111.14 106.91 111.34 107.01 111.67C107.3 112.64 106.59 113.89 105.59 114.13L96.67 114.11C96.34 114 96.29 113.77 96.25 113.46C95.88 110.66 96.51 106.98 96.29 104.08C98.25 101.79 100 99.3999 101.36 96.6899L101.37 96.6999Z" fill="white"/>
<path d="M94.14 104.43H92.17V113.84H94.14V104.43Z" fill="#5177BB"/>
<path d="M139.39 47.21H138.18L138.64 45.2401C138.85 45.2001 138.81 45.4001 138.86 45.5401C139.08 46.0801 139.12 46.68 139.39 47.21Z" fill="#F8B2AD"/>
</g>
<defs>
<clipPath id="clip0_3083_5555">
<rect width="179.63" height="133.28" fill="white"/>
</clipPath>
</defs>
</svg>
