<svg width="407" height="97" viewBox="0 0 407 97" fill="none" xmlns="http://www.w3.org/2000/svg">
<path d="M21.2208 37.0728C1.56577 41.6083 -5.54865 48.3527 4.60741 53.4121C7.62551 54.9157 11.9579 55.4189 16.0935 55.6809C30.1766 56.5698 44.4684 55.3736 58.6066 55.9676C72.7448 56.5616 87.8667 59.5192 94.4892 66.0925C98.1211 69.6978 99.4197 74.423 106.247 76.3783C121.88 80.8581 133.634 65.2283 151.416 64.6343C159.844 64.3538 167.03 67.592 174.951 69.1285C203.105 74.5901 221.281 58.9005 245.055 65.0303C253.252 67.1423 264.191 75.0686 273.324 75.0686C283.354 75.0686 288.131 68.1942 294.616 67.1815C306.861 65.2696 315.691 73.301 318.654 79.8145C321.617 86.3279 320.744 96.5786 334.422 96.5786C348.099 96.5786 345.29 73.1711 363.332 69.7452C372.579 67.99 382.865 68.1839 392.064 66.3689C401.268 64.5539 409.559 59.2965 405.734 54.5486C402.252 50.2255 391.714 49.285 383.231 47.7855C357.807 43.2975 342.941 29.9653 326.729 18.7617C310.517 7.55809 285.109 -3.1856 259.43 0.877571C239.515 4.02911 227.006 15.2039 206.953 18.1058C178.343 22.2474 149.606 7.84478 120.416 10.6746C111.413 11.547 103.303 14.0076 95.3982 16.429C69.5536 24.3409 40.8757 32.5352 21.2208 37.0728Z" fill="white"/>
<g opacity="0.35">
<path d="M124.218 18.9946C127.378 18.9946 127.382 16.4226 124.218 16.4226C121.062 16.4226 121.058 18.9946 124.218 18.9946Z" fill="#336EC2"/>
</g>
<g opacity="0.35">
<path d="M113.176 23.4423C113.176 23.1267 113.129 22.9556 112.771 22.6998C112.303 22.3657 111.516 22.3657 111.047 22.6998C110.689 22.9556 110.638 23.1267 110.642 23.4423C110.642 24.2982 113.176 24.3003 113.176 23.4423Z" fill="#336EC2"/>
</g>
<g opacity="0.15">
<path d="M135.617 23.721C137.47 23.721 137.47 22.2133 135.617 22.2133C133.768 22.2133 133.764 23.721 135.617 23.721Z" fill="#336EC2"/>
</g>
<g opacity="0.35">
<path d="M271.498 8.80599C274.284 8.80599 274.288 6.53516 271.498 6.53516C268.709 6.53516 268.705 8.80599 271.498 8.80599Z" fill="#336EC2"/>
</g>
<g opacity="0.15">
<path d="M255.995 15.6939C258.084 15.6939 258.088 13.9902 255.995 13.9902C253.905 13.9902 253.901 15.6939 255.995 15.6939Z" fill="#336EC2"/>
</g>
<g opacity="0.35">
<path d="M293.172 15.4218C293.254 15.2032 293.286 15.0671 293.298 14.8423C293.321 14.2854 291.621 14.2833 291.645 14.8423C291.657 15.0671 291.688 15.2032 291.771 15.4218C291.909 15.7848 293.034 15.7848 293.172 15.4218Z" fill="#336EC2"/>
</g>
<g opacity="0.15">
<path d="M344.452 44.1572C346.01 44.1572 346.014 42.8867 344.452 42.8867C342.894 42.8867 342.89 44.1572 344.452 44.1572Z" fill="#336EC2"/>
</g>
<g opacity="0.35">
<path d="M336.244 55.4315C338.498 55.4315 338.502 53.5938 336.244 53.5938C333.989 53.5938 333.985 55.4315 336.244 55.4315Z" fill="#336EC2"/>
</g>
<g opacity="0.35">
<path d="M322.566 49.1678C323.518 49.1678 323.522 48.3903 322.566 48.3903C321.613 48.3903 321.609 49.1678 322.566 49.1678Z" fill="#336EC2"/>
</g>
<g opacity="0.15">
<path d="M167.537 49.048C169.371 49.048 169.375 47.5547 167.537 47.5547C165.704 47.5547 165.7 49.048 167.537 49.048Z" fill="#336EC2"/>
</g>
<g opacity="0.15">
<path d="M138.356 45.036C139.733 45.036 139.733 43.916 138.356 43.916C136.979 43.916 136.979 45.036 138.356 45.036Z" fill="#336EC2"/>
</g>
<g opacity="0.35">
<path d="M106.436 46.2752C107.333 46.2752 107.337 45.543 106.436 45.543C105.539 45.543 105.539 46.2752 106.436 46.2752Z" fill="#336EC2"/>
</g>
<g opacity="0.35">
<path d="M159.329 41.9352C161.308 41.9352 161.312 40.3223 159.329 40.3223C157.35 40.3223 157.346 41.9352 159.329 41.9352Z" fill="#336EC2"/>
</g>
<g opacity="0.15">
<path d="M253.26 46.135C254.983 46.135 254.987 44.7305 253.26 44.7305C251.536 44.7305 251.532 46.135 253.26 46.135Z" fill="#336EC2"/>
</g>
<g opacity="0.15">
<path d="M211.309 29.7171C212.632 29.7171 212.632 28.6426 211.309 28.6426C209.987 28.6426 209.987 29.7171 211.309 29.7171Z" fill="#336EC2"/>
</g>
<mask id="mask0_3083_5888" style="mask-type:luminance" maskUnits="userSpaceOnUse" x="0" y="0" width="407" height="97">
<path d="M21.2208 37.0728C1.56577 41.6083 -5.54865 48.3527 4.60741 53.4121C7.62551 54.9157 11.9579 55.4189 16.0935 55.6809C30.1766 56.5698 44.4684 55.3736 58.6066 55.9676C72.7448 56.5616 87.8667 59.5192 94.4892 66.0925C98.1211 69.6978 99.4197 74.423 106.247 76.3783C121.88 80.8581 133.634 65.2283 151.416 64.6343C159.844 64.3538 167.03 67.592 174.951 69.1285C203.105 74.5901 221.281 58.9005 245.055 65.0303C253.252 67.1423 264.191 75.0686 273.324 75.0686C283.354 75.0686 288.131 68.1942 294.616 67.1815C306.861 65.2696 315.691 73.301 318.654 79.8145C321.617 86.3279 320.744 96.5786 334.422 96.5786C348.099 96.5786 345.29 73.1711 363.332 69.7452C372.579 67.99 382.865 68.1839 392.064 66.3689C401.268 64.5539 409.559 59.2965 405.734 54.5486C402.252 50.2255 391.714 49.285 383.231 47.7855C357.807 43.2975 342.941 29.9653 326.729 18.7617C310.517 7.55809 285.109 -3.1856 259.43 0.877571C239.515 4.02911 227.006 15.2039 206.953 18.1058C178.343 22.2474 149.606 7.84478 120.416 10.6746C111.413 11.547 103.303 14.0076 95.3982 16.429C69.5536 24.3409 40.8757 32.5352 21.2208 37.0728Z" fill="white"/>
</mask>
<g mask="url(#mask0_3083_5888)">
<g opacity="0.3">
<path d="M-5.68229 35.175C-16.5506 41.6864 -13.0878 51.9537 -0.948554 57.6235C20.3945 67.5917 51.5592 58.892 74.3621 65.4508C90.8771 70.2008 96.6732 82.6069 119.075 81.7241C128.944 81.3364 134.409 77.8796 142.157 75.3179C156.327 70.6298 169.088 76.9164 184.269 77.1474C195.708 77.3227 205.868 74.9425 216.319 72.8202C232.798 69.4727 241.801 71.0506 256.742 75.5077C264.903 77.9435 273.596 80.2309 283.275 79.6534C287.565 79.3976 291.275 78.5623 295.037 77.4857C302.982 75.2148 301.774 75.5737 305.842 80.3319C312.965 88.6583 320.732 102.725 344.601 99.2927C368.306 95.8834 359.263 80.6681 377.753 75.3984C396.456 70.0688 419.263 67.305 420.526 53.8471C421.423 44.3141 406.64 30.7159 385.533 33.9437C379.217 34.909 377.694 38.8216 381.834 41.2842C388.814 45.434 402.905 49.1239 396.129 56.0127C391.659 60.5564 377.73 62.0126 369.742 63.9576C362.289 65.7726 355.245 67.9712 350.224 71.4734C344.165 75.7016 346.349 81.7283 341.284 85.5811C333.796 91.2798 329.487 80.5918 327.496 77.9868C325.367 75.2045 323.29 72.3252 319.973 69.8564C315.518 66.5398 310.281 63.8915 302.065 63.8627C289.996 63.8214 284.306 69.3593 271.868 67.0225C261.614 65.0961 253.96 60.8225 242.958 59.4901C220.191 56.7346 201.24 67.8784 179.44 65.3848C168.615 64.1473 159.691 60.9215 148.24 61.6166C136.278 62.3426 131.977 67.3999 121.766 69.3799C110.642 71.5373 104.763 64.6588 98.3967 61.0844C91.2509 57.0728 82.7986 54.2328 72.615 52.8674C55.2462 50.5367 -6.34332 55.7941 4.02523 38.1389C5.69758 35.3112 -1.82605 32.865 -5.68229 35.175Z" fill="#336EC2"/>
</g>
</g>
<mask id="mask1_3083_5888" style="mask-type:luminance" maskUnits="userSpaceOnUse" x="0" y="0" width="407" height="97">
<path d="M21.2208 37.0728C1.56577 41.6083 -5.54865 48.3527 4.60741 53.4121C7.62551 54.9157 11.9579 55.4189 16.0935 55.6809C30.1766 56.5698 44.4684 55.3736 58.6066 55.9676C72.7448 56.5616 87.8667 59.5192 94.4892 66.0925C98.1211 69.6978 99.4197 74.423 106.247 76.3783C121.88 80.8581 133.634 65.2283 151.416 64.6343C159.844 64.3538 167.03 67.592 174.951 69.1285C203.105 74.5901 221.281 58.9005 245.055 65.0303C253.252 67.1423 264.191 75.0686 273.324 75.0686C283.354 75.0686 288.131 68.1942 294.616 67.1815C306.861 65.2696 315.691 73.301 318.654 79.8145C321.617 86.3279 320.744 96.5786 334.422 96.5786C348.099 96.5786 345.29 73.1711 363.332 69.7452C372.579 67.99 382.865 68.1839 392.064 66.3689C401.268 64.5539 409.559 59.2965 405.734 54.5486C402.252 50.2255 391.714 49.285 383.231 47.7855C357.807 43.2975 342.941 29.9653 326.729 18.7617C310.517 7.55809 285.109 -3.1856 259.43 0.877571C239.515 4.02911 227.006 15.2039 206.953 18.1058C178.343 22.2474 149.606 7.84478 120.416 10.6746C111.413 11.547 103.303 14.0076 95.3982 16.429C69.5536 24.3409 40.8757 32.5352 21.2208 37.0728Z" fill="white"/>
</mask>
<g mask="url(#mask1_3083_5888)">
<path opacity="0.15" d="M444.49 41.6452C443.435 27.1498 424.244 17.4003 401.174 11.0188C366.617 1.45903 331.262 20.098 360.865 35.237C362.903 36.2806 362.879 24.5531 364.512 25.6772C366.641 27.1436 357.492 16.6351 359.649 38.1059C360.255 44.1615 383.593 47.4512 369.376 49.5777C360.723 50.8709 349.315 51.172 346.274 57.8628C343.574 63.8029 329.432 63.2254 315.876 56.2685C304.257 50.3078 289.839 49.6623 275.107 49.7303C262.389 49.7901 256.14 52.556 249.27 50.6708C238.228 47.6389 227.51 43.5201 214.957 43.8418C203.597 44.1326 197.415 47.0944 188.814 50.8523C187.2 51.5577 178.378 56.3304 168.749 54.6763C164.106 53.8781 156.476 50.5718 151.613 49.6581C145.95 48.5939 139.832 47.8101 133.76 47.7173C127.539 47.6204 120.794 48.3361 114.829 49.1693C113.932 49.2951 110.642 49.9283 107.978 50.5141C104.917 51.1885 100.112 51.0442 97.6136 49.8953C93.9069 48.1917 90.7708 45.8734 89.0315 44.7988C81.807 40.3355 77.5533 39.0609 64.1785 39.0609C56.8516 39.0609 41.6825 41.9299 32.5652 39.0609C26.0451 37.0107 50.3157 31.2481 43.5083 29.1814C38.023 27.517 -1.50339 26.5929 -6.88244 28.7586C-33.6636 39.5415 -18.6046 58.725 7.98764 65.3354C21.8111 68.7715 36.2287 66.5089 49.8239 68.7488C60.2672 70.469 67.7868 76.4503 77.6595 79.1151C91.0894 82.741 105.33 83.0566 119.846 81.1488C125.205 80.4454 128.621 79.3214 133.126 79.6802C140.213 80.2433 147.335 83.696 154.674 84.5787C168.017 86.1834 181.558 85.2408 194.271 82.8194C200.441 81.6438 206.359 79.7648 212.769 78.9439C213.34 78.8924 213.855 78.8429 214.316 78.7975C215.949 78.6345 217.617 78.7624 219.112 79.144C220.391 79.4719 221.647 79.8267 222.866 80.2186C231.421 82.3182 239.507 84.0899 249.073 84.3766C251.19 84.4406 253.642 84.2528 256.215 83.9744C259.564 83.6114 262.837 84.5148 264.348 86.1215C268.74 90.791 276.374 94.5469 286.329 95.4296C296.705 96.3495 306.712 97.2261 316.648 97.5788C316.982 97.5912 317.313 97.618 317.635 97.6593C331.722 99.4743 346.341 98.3585 361.301 94.1035C361.47 94.056 361.648 94.0127 361.825 93.9735C369.344 92.3936 376.581 90.4507 383.475 88.2005C383.766 88.1056 384.073 88.0211 384.388 87.9509C392.155 86.206 399.923 84.4818 406.891 81.8913C419.672 77.1392 428.833 70.4009 434.062 62.6871C434.782 61.6249 435.392 60.5606 435.935 59.4943C441.476 53.9688 444.95 47.9731 444.49 41.6452Z" fill="#336EC2"/>
</g>
</svg>
