<svg width="244" height="46" viewBox="0 0 244 46" fill="none" xmlns="http://www.w3.org/2000/svg">
<path d="M43.3257 2.30147C45.4139 4.07785 46.093 7.71969 45.8296 10.3397C44.5084 23.3088 29.9884 38.4901 18.5636 43.524C6.80161 48.7079 -2.89534 45.4551 0.79588 30.8409C3.33215 20.7778 12.8351 10.2976 21.4926 5.0387C27.2442 1.54216 37.4216 -2.72773 43.3257 2.30615V2.30147ZM39.4405 15.2564C41.9028 3.27168 31.3882 4.81841 24.0889 8.60085C16.7896 12.3833 8.51556 21.059 6.33501 29.2848C4.06207 37.862 7.79025 41.6867 16.3461 39.2588C16.591 38.2089 15.1773 38.7573 14.415 38.5604C6.1225 36.4278 10.9779 26.1538 14.3688 21.5183C18.0832 16.4376 29.6095 6.43075 36.1604 10.3163C38.4518 11.6755 37.9945 13.5597 39.4358 15.2564H39.4405ZM35.7446 22.737C37.708 16.4188 35.2041 12.7629 28.5978 14.7221C22.241 16.611 13.6805 25.5164 13.9069 32.5235C14.0131 35.7998 16.9836 37.0887 19.8618 36.7372C20.4623 36.6622 23.3035 36.0388 22.6521 35.1998C21.5896 35.6545 19.7232 35.1108 19.1503 34.0749C16.882 29.9784 24.0057 22.4229 27.2257 20.4966C29.3601 19.2217 32.7787 17.5859 34.7929 19.8029L35.7446 22.7276V22.737Z" fill="#55989E"/>
<path d="M64.3915 20.2486H80.4083V6.37495L80.8703 5.90625H85.3376V39.7279C84.2243 40.4919 81.4847 40.4826 80.4083 39.7279V24.9216C80.1496 24.9216 79.7385 24.9216 79.6368 24.9216H64.3915C64.3915 26.4823 64.373 27.4901 64.4054 28.8071C64.4516 30.8882 64.7657 37.8578 64.3314 39.3577C63.9526 40.656 59.7578 40.4591 59.5084 39.6904C58.9124 28.5634 59.1157 17.3333 59.2912 6.20622L62.3634 6.09369H64.3915C64.3656 6.88717 64.3915 8.44194 64.3915 8.87315V20.2486Z" fill="#55989E"/>
<path d="M162.946 5.90625V19.4659C162.946 19.569 163.352 19.9393 163.255 20.2439H179.272V6.37495L179.734 5.90625H184.201V39.7279C183.088 40.4919 180.348 40.4826 179.272 39.7279V25.2356C178.972 25.3387 178.602 24.9216 178.5 24.9216H163.255L162.904 39.6858C162.585 40.67 159.453 40.0092 158.534 40.2107L158.104 39.3483C158.104 29.0602 158.007 16.8739 158.007 6.98427C158.058 6.52963 158.044 6.18279 158.483 5.91094H162.95L162.946 5.90625Z" fill="#55989E"/>
<path d="M225.308 29.2846C223.849 29.7204 226.39 34.1122 227.244 34.8996C230.801 38.1712 235.98 37.1119 238.295 33.0576C243.326 33.6716 242.697 35.4621 239.33 38.1759C233.61 42.7785 224.44 40.8287 221.104 34.1731C216.11 24.2132 223.844 12.3128 235.024 15.0969C240.919 16.5639 244.781 23.3695 243.635 29.2892H225.308V29.2846ZM224.846 25.8583H238.553C239.468 25.8583 238.424 23.2242 238.216 22.7743C234.992 15.8234 224.717 18.2559 224.851 25.8583H224.846Z" fill="#55989E"/>
<path d="M137.625 14.7258C153.72 13.4087 154.547 38.5453 141.21 40.4857C122.92 43.148 121.77 16.0241 137.625 14.7258ZM135.338 35.4003C143.122 39.9889 149.821 26.598 142.623 20.7064C134.289 13.8774 126.514 30.2024 135.338 35.4003Z" fill="#55989E"/>
<path d="M93.7734 38.5074C85.7073 32.6252 87.5044 17.636 97.6402 15.0863C109.508 12.096 116.983 26.1055 110.539 35.6202C106.908 40.9869 98.9199 42.2571 93.778 38.5074H93.7734ZM99.4188 19.3843C96.4344 19.8999 94.2539 23.2933 93.7873 26.1524C92.7432 32.5596 98.8229 39.4495 104.708 34.7109C110.594 29.9723 107.554 17.9782 99.4188 19.3843Z" fill="#55989E"/>
<path d="M201.285 15.2617L208.063 34.5911C208.585 34.7551 208.871 33.7615 209.028 33.3959C211.454 27.7433 212.558 20.933 215.14 15.2617H219.608L210.825 39.8827C210.4 40.3843 205.67 40.3468 205.411 40.0093L196.818 15.2664H201.285V15.2617Z" fill="#55989E"/>
<path d="M120.753 4.97266C120.896 5.54448 121.03 6.07411 121.077 6.67405C121.779 15.6872 120.518 25.6238 121.067 34.7354C121.557 37.3132 125.267 35.3306 125.692 35.654C125.997 36.5399 126.69 39.1506 125.992 39.7364C123.636 40.6785 119.705 41.2269 117.663 39.4271C117.293 39.1037 116.133 37.5663 116.133 37.2383V4.97266H120.753Z" fill="#55989E"/>
<path d="M189.935 14.9883L194.069 15.082L194.356 15.7241L194.222 39.9046L189.935 40.153L189.431 39.4171L189.565 15.2367L189.935 14.9883Z" fill="#55989E"/>
<path d="M189.431 4.97266H193.898C194.799 6.29909 194.314 8.67073 194.226 10.2924C193.921 10.733 189.985 10.883 189.431 10.119V4.97734V4.97266Z" fill="#55989E"/>
</svg>
