<svg width="1440" height="213" viewBox="0 0 1440 213" fill="none" xmlns="http://www.w3.org/2000/svg">
<path d="M404.909 1.25393C382.673 5.85872 338.373 16.9079 317.671 26.2411C292.624 37.5375 253.894 59.0955 273.221 72.6253C280.666 77.8365 316.748 78.2821 325.829 78.6759C342.793 79.4146 373.285 78.2188 390.253 78.9547C396.381 79.222 402.897 79.6158 407.873 83.203C422.794 93.959 416.05 126.213 434.337 128.187C452.305 130.128 454.475 97.2042 472.092 93.1772C489.931 89.1013 499.043 135.577 516.732 140.263C529.793 143.723 532.193 91.947 553.452 91.947C574.711 91.947 571.923 120.599 584.913 120.599C597.902 120.599 602.754 95.2152 624.959 95.813C658.109 96.7041 713.499 105.074 745.267 114.594C772.484 122.752 801.993 137.026 827.65 124.816C839.429 119.208 848.285 108.647 860.05 103.005C872.626 96.9743 897.047 114.836 910.987 115.14C935.423 115.672 949.981 98.5178 974.417 99.0496C985.431 99.2882 998.562 100.774 1003.62 110.562C1005.72 114.614 1010.99 134.474 1013.42 138.334C1021.54 151.24 1035.87 126.684 1049.58 120.004C1073.75 108.228 1102.07 110.22 1128.87 112.476C1146.91 113.996 1166.62 116.27 1179.24 129.254C1187.35 137.592 1196.38 151.07 1206.81 145.94C1213.6 142.602 1215.32 132.64 1222.38 129.929C1231.84 126.299 1239.42 138.196 1242.62 147.805C1248.11 164.284 1253.6 180.763 1259.08 197.239C1261.51 204.517 1266.19 213.333 1273.8 212.433C1280.95 211.591 1283.77 202.896 1285 195.808C1288.42 176.063 1279.47 136.578 1295.26 136.578C1311.05 136.578 1313.35 166.94 1330.07 166.04C1350.3 164.954 1334.24 109.343 1349.7 109.343C1365.16 109.343 1349.7 151.861 1369.03 151.861C1388.35 151.861 1394.84 114.839 1421.21 101.614C1426.46 98.9806 1475.8 90.9553 1479.19 86.1522C1490.1 70.6678 1448.83 46.0974 1433.08 35.5599C1405.12 16.8447 1371.41 -2.22984 1339.66 8.91421C1321.92 15.1402 1307.94 30.1445 1289.65 34.5193C1247.93 44.4993 1207.97 -4.40002 1166.77 7.53736C1158.01 10.0755 1150.19 15.2494 1141.42 17.7587C1110.08 26.7297 1078.58 -0.013675 1046.08 2.60203C1029.94 3.90126 1015.28 12.352 999.456 15.7754C961.565 23.9703 923.589 2.71412 884.836 1.65347C822.568 -0.0539217 763.37 50.136 703.16 34.1629C679.765 27.9571 658.747 11.9869 634.545 11.7311C614.513 11.5184 596.094 22.1882 576.462 26.175C519.23 37.8077 462.564 -8.04475 404.909 1.25393Z" fill="white"/>
<mask id="mask0_2903_9141" style="mask-type:luminance" maskUnits="userSpaceOnUse" x="268" y="0" width="1213" height="213">
<path d="M404.909 1.25393C382.673 5.85872 338.373 16.9079 317.671 26.2411C292.624 37.5375 253.894 59.0955 273.221 72.6253C280.666 77.8365 316.748 78.2821 325.829 78.6759C342.793 79.4146 373.285 78.2188 390.253 78.9547C396.381 79.222 402.897 79.6158 407.873 83.203C422.794 93.959 416.05 126.213 434.337 128.187C452.305 130.128 454.475 97.2042 472.092 93.1772C489.931 89.1013 499.043 135.577 516.732 140.263C529.793 143.723 532.193 91.947 553.452 91.947C574.711 91.947 571.923 120.599 584.913 120.599C597.902 120.599 602.754 95.2152 624.959 95.813C658.109 96.7041 713.499 105.074 745.267 114.594C772.484 122.752 801.993 137.026 827.65 124.816C839.429 119.208 848.285 108.647 860.05 103.005C872.626 96.9743 897.047 114.836 910.987 115.14C935.423 115.672 949.981 98.5178 974.417 99.0496C985.431 99.2882 998.562 100.774 1003.62 110.562C1005.72 114.614 1010.99 134.474 1013.42 138.334C1021.54 151.24 1035.87 126.684 1049.58 120.004C1073.75 108.228 1102.07 110.22 1128.87 112.476C1146.91 113.996 1166.62 116.27 1179.24 129.254C1187.35 137.592 1196.38 151.07 1206.81 145.94C1213.6 142.602 1215.32 132.64 1222.38 129.929C1231.84 126.299 1239.42 138.196 1242.62 147.805C1248.11 164.284 1253.6 180.763 1259.08 197.239C1261.51 204.517 1266.19 213.333 1273.8 212.433C1280.95 211.591 1283.77 202.896 1285 195.808C1288.42 176.063 1279.47 136.578 1295.26 136.578C1311.05 136.578 1313.35 166.94 1330.07 166.04C1350.3 164.954 1334.24 109.343 1349.7 109.343C1365.16 109.343 1349.7 151.861 1369.03 151.861C1388.35 151.861 1394.84 114.839 1421.21 101.614C1426.46 98.9806 1475.8 90.9553 1479.19 86.1522C1490.1 70.6678 1448.83 46.0974 1433.08 35.5599C1405.12 16.8447 1371.41 -2.22984 1339.66 8.91421C1321.92 15.1402 1307.94 30.1445 1289.65 34.5193C1247.93 44.4993 1207.97 -4.40002 1166.77 7.53736C1158.01 10.0755 1150.19 15.2494 1141.42 17.7587C1110.08 26.7297 1078.58 -0.013675 1046.08 2.60203C1029.94 3.90126 1015.28 12.352 999.456 15.7754C961.565 23.9703 923.589 2.71412 884.836 1.65347C822.568 -0.0539217 763.37 50.136 703.16 34.1629C679.765 27.9571 658.747 11.9869 634.545 11.7311C614.513 11.5184 596.094 22.1882 576.462 26.175C519.23 37.8077 462.564 -8.04475 404.909 1.25393Z" fill="white"/>
</mask>
<g mask="url(#mask0_2903_9141)">
<path opacity="0.3" d="M277.188 35.9514C257.608 43.5915 243.598 76.6787 269.146 86.4028C279.927 90.5075 293.012 90.4529 304.371 91.0967C321.46 92.0654 338.588 92.0136 355.694 92.4707C362.995 92.6661 370.278 93.0369 377.574 93.379C383.702 93.6664 398.281 91.2261 402.472 95.6613C406.013 99.4095 406.369 108.973 408.192 113.882C410.569 120.28 413.633 126.69 418.534 131.577C428.226 141.241 442.219 142.002 452.596 133.184C457.436 129.07 461.089 123.402 464.24 117.955C467.333 112.606 472.555 98.2741 479.33 107.03C485.522 115.029 485.772 128.82 490.949 137.869C496.985 148.418 506.93 155.523 519.457 153.911C532.472 152.235 540.178 142.29 544.964 130.907C546.853 126.414 547.931 119.067 551.185 115.4C555.847 110.148 559.144 116.202 564.366 120.278C576.065 129.412 588.336 131.64 601.323 123.316C609.564 118.033 616.031 112.129 625.606 108.97C634.875 105.911 644.597 105.078 654.312 105.388C696.025 106.719 732.395 129.237 772.071 139.056C791.024 143.747 811.634 145.429 830.372 138.852C846.713 133.118 856.897 112.468 874.94 114.322C893.5 116.23 910.306 126.21 929.404 125.081C947.101 124.034 966.156 111.764 983.741 114.353C999.122 116.619 1001.57 138.527 1013.94 146.524C1028.64 156.029 1041.92 147.237 1055.57 140.588C1075.42 130.91 1098.13 126.55 1120.14 128.268C1130.71 129.093 1143.81 130.858 1153.32 135.753C1159.65 139.01 1164.62 145.273 1169.74 150.071C1179.76 159.456 1191.55 169.884 1206.37 166.432C1212.41 165.023 1217.51 161.586 1222.06 157.464C1224.13 155.595 1226.46 153.474 1228.11 151.218C1228.45 150.74 1230.91 148.852 1230.89 148.32C1230.87 147.392 1226.46 147.346 1226.06 148.524C1226.19 148.162 1233.02 162.442 1233.44 164.135C1235.2 171.229 1236.2 178.484 1237.84 185.604C1240.97 199.269 1246.5 211.64 1257.5 220.701C1268.03 229.37 1284.18 235.843 1293.78 222.161C1299.59 213.885 1303.75 200.637 1303.73 190.585C1303.71 180.789 1301.07 170.965 1301.99 161.14C1302.11 159.841 1303.55 155.167 1303.25 154.173C1303.49 153.46 1303.73 152.744 1303.97 152.031C1300.56 151.862 1297.15 151.695 1293.74 151.525C1293.25 153.08 1300.5 160.72 1301.7 162.005C1313.48 174.699 1330.36 177.058 1343.18 164.115C1348.26 158.979 1351.33 152.776 1353.29 145.871C1354.12 142.936 1359.04 127.168 1357.61 124.914C1356.67 123.454 1344.19 124.256 1344.35 123.971C1343.93 124.693 1345.32 127.832 1345.61 128.967C1346.35 131.925 1346.96 134.868 1348 137.745C1351.01 146.095 1356.32 151.149 1364.36 155.003C1400.16 172.163 1404.77 123.879 1429.58 113.707C1450.87 104.977 1482.44 103.365 1487.07 75.2818C1491.19 50.3262 1461.75 25.914 1445.08 11.6886C1431.42 0.0271473 1417.31 -9.36925 1400.64 -16.0867C1386.33 -21.8556 1376.7 1.64257 1390.17 8.75096C1404.91 16.5233 1418.61 26.4199 1430.88 37.6703C1439.22 45.3162 1453.73 56.6816 1457.48 67.7279C1459.26 72.9535 1456.88 74.0228 1450.61 76.7334C1438.85 81.8182 1425.96 83.6405 1414.26 89.0904C1403.34 94.181 1395.29 101.424 1389.01 111.689C1386.5 115.796 1384.02 124.178 1380.01 126.966C1372.92 131.899 1374.27 123.184 1372.37 116.958C1368.92 105.63 1360.5 96.8168 1347.87 99.1623C1332.79 101.962 1329.55 117.032 1327.2 129.783C1326.81 131.902 1325.75 142.488 1323.38 142.965C1321.93 143.256 1311.94 127.889 1309.11 126.32C1294.45 118.194 1280.21 131.197 1275.87 144.655C1270.56 161.097 1277.81 176.555 1275.7 192.698C1275.43 194.811 1270.99 201.957 1271.41 205.144C1271.12 205.762 1270.82 206.377 1270.53 206.995C1280.55 205.432 1282.67 203.46 1276.9 201.077C1274.59 198.119 1271.2 196.619 1269.13 193.218C1256.42 172.359 1264.45 142.701 1242.05 126.734C1232.09 119.637 1221.74 120.26 1212.62 128.355C1209.51 131.123 1205.74 137.941 1201.84 139.315C1197.11 140.982 1190.95 133.005 1187.47 129.723C1177.74 120.542 1169.24 112.683 1156.31 108.389C1137.8 102.238 1117.48 99.7716 1098.06 101.856C1078.9 103.911 1059.95 110.033 1042.76 118.691C1038.37 120.898 1031.57 127.058 1026.78 124.882C1021.61 122.528 1017.42 109.878 1013.89 105.348C990.887 75.8797 958.329 98.7857 929.395 101.447C911.41 103.103 894.235 92.4678 876.474 90.8208C859.567 89.2514 848.719 95.9717 836.555 107.038C806.167 134.681 760.74 111.358 728.161 99.283C696.046 87.3801 659.894 76.8138 625.545 84.9512C617.793 86.788 610.032 89.7802 603.134 93.79C598.641 96.4 591.127 104.92 586.382 105.46C579.92 106.196 574.481 98.4897 569.667 95.1554C564.312 91.4445 558.457 88.9352 551.843 89.4382C540.84 90.2775 534.076 97.9608 529.621 107.374C527.04 112.833 522.9 134.259 513.987 130.853C506.12 127.846 503.964 106.294 500.598 99.214C495.223 87.9205 484.171 79.7055 471.204 81.295C453.372 83.4824 450.491 100.309 441.224 112.318C435.108 120.243 432.055 113.905 429.161 106.325C426.536 99.4469 426.203 91.6083 422.782 85.049C415.582 71.2375 400.655 71.4991 387.042 71.4387C370.603 71.3668 354.124 70.2688 337.674 70.0044C321.555 69.7457 305.326 69.9124 289.238 68.708C286.317 68.4896 277.441 68.8978 275.165 66.581C270.531 61.8584 279.143 47.791 282.33 44.8103C286.03 41.3639 282.218 33.991 277.188 35.9514Z" fill="#336EC2"/>
</g>
<mask id="mask1_2903_9141" style="mask-type:luminance" maskUnits="userSpaceOnUse" x="268" y="0" width="1213" height="213">
<path d="M404.909 1.25393C382.673 5.85872 338.373 16.9079 317.671 26.2411C292.624 37.5375 253.894 59.0955 273.221 72.6253C280.666 77.8365 316.748 78.2821 325.829 78.6759C342.793 79.4146 373.285 78.2188 390.253 78.9547C396.381 79.222 402.897 79.6158 407.873 83.203C422.794 93.959 416.05 126.213 434.337 128.187C452.305 130.128 454.475 97.2042 472.092 93.1772C489.931 89.1013 499.043 135.577 516.732 140.263C529.793 143.723 532.193 91.947 553.452 91.947C574.711 91.947 571.923 120.599 584.913 120.599C597.902 120.599 602.754 95.2152 624.959 95.813C658.109 96.7041 713.499 105.074 745.267 114.594C772.484 122.752 801.993 137.026 827.65 124.816C839.429 119.208 848.285 108.647 860.05 103.005C872.626 96.9743 897.047 114.836 910.987 115.14C935.423 115.672 949.981 98.5178 974.417 99.0496C985.431 99.2882 998.562 100.774 1003.62 110.562C1005.72 114.614 1010.99 134.474 1013.42 138.334C1021.54 151.24 1035.87 126.684 1049.58 120.004C1073.75 108.228 1102.07 110.22 1128.87 112.476C1146.91 113.996 1166.62 116.27 1179.24 129.254C1187.35 137.592 1196.38 151.07 1206.81 145.94C1213.6 142.602 1215.32 132.64 1222.38 129.929C1231.84 126.299 1239.42 138.196 1242.62 147.805C1248.11 164.284 1253.6 180.763 1259.08 197.239C1261.51 204.517 1266.19 213.333 1273.8 212.433C1280.95 211.591 1283.77 202.896 1285 195.808C1288.42 176.063 1279.47 136.578 1295.26 136.578C1311.05 136.578 1313.35 166.94 1330.07 166.04C1350.3 164.954 1334.24 109.343 1349.7 109.343C1365.16 109.343 1349.7 151.861 1369.03 151.861C1388.35 151.861 1394.84 114.839 1421.21 101.614C1426.46 98.9806 1475.8 90.9553 1479.19 86.1522C1490.1 70.6678 1448.83 46.0974 1433.08 35.5599C1405.12 16.8447 1371.41 -2.22984 1339.66 8.91421C1321.92 15.1402 1307.94 30.1445 1289.65 34.5193C1247.93 44.4993 1207.97 -4.40002 1166.77 7.53736C1158.01 10.0755 1150.19 15.2494 1141.42 17.7587C1110.08 26.7297 1078.58 -0.013675 1046.08 2.60203C1029.94 3.90126 1015.28 12.352 999.456 15.7754C961.565 23.9703 923.589 2.71412 884.836 1.65347C822.568 -0.0539217 763.37 50.136 703.16 34.1629C679.765 27.9571 658.747 11.9869 634.545 11.7311C614.513 11.5184 596.094 22.1882 576.462 26.175C519.23 37.8077 462.564 -8.04475 404.909 1.25393Z" fill="white"/>
</mask>
<g mask="url(#mask1_2903_9141)">
<path opacity="0.15" d="M1497.34 44.4904C1489.69 23.5993 1474.79 7.51704 1457.85 -6.15647C1454.01 -9.95355 1449.6 -13.2994 1444.66 -16.1306C1444 -16.602 1443.35 -17.0792 1442.68 -17.5448C1442.64 -17.45 1442.6 -17.3551 1442.56 -17.2603C1410.06 -34.452 1373.67 -8.57959 1403.81 12.7168C1404.99 13.5504 1399.4 10.6616 1400.91 11.751C1401.18 12.4869 1418.3 27.2124 1418.43 38.1121C1418.39 42.1018 1418.28 42.99 1415.77 46.5744C1398.98 77.4627 1354.53 60.0668 1329.07 77.4397C1317.83 78.555 1313.55 103.513 1302.34 104.519C1290.61 105.574 1275.78 82.1738 1264.71 79.1959C1242.76 73.2948 1226.88 99.4432 1205.71 106.451C1184.29 113.545 1169.99 80.4089 1149.68 74.0737C1128.51 67.4684 1106.79 67.4856 1085.01 70.406C1064.46 73.1597 1043.54 79.7564 1022.66 78.6527C1001.83 77.5518 984.839 61.8403 963.893 69.2764C944.106 76.2985 936.049 92.7487 912.675 86.3934C890.013 80.2336 871.094 68.5089 846.969 77.8564C825.983 85.9881 820.921 93.1885 797.612 87.7904C778.558 83.3753 759.644 78.3221 740.556 74.045C701.372 65.2666 659.906 60.1358 620.647 71.7225C609.164 75.1114 599.063 81.7398 587.882 85.5369C575.424 89.768 560.256 77.2442 546.692 78.5463C533.148 79.8484 524.369 99.0667 515.266 97.9888C505.134 96.7901 501.268 72.6308 477.111 72.6308C452.955 72.6308 447.154 95.8214 438.459 93.8898C431.857 92.4239 429.523 72.5647 424.932 68.7647C414.303 55.2378 384.346 53.3034 361.155 56.2036C344.817 58.2473 315.929 58.5232 300.637 51.8747C280.439 43.0906 307.737 26.9077 290.005 17.7183C273.664 9.2503 259.991 35.6344 259.594 48.0346C258.243 90.4003 307.93 91.9525 337.852 91.461C356.616 91.1534 378.519 91.0844 393.762 103.812C410.667 117.928 419.157 138.561 445.792 131.076C452.495 129.193 466.674 123.232 471.038 117.446C471.575 116.736 472.182 116.411 472.662 116.247C474.403 117.946 475.961 120.697 477.189 122.321C496.933 148.457 533.15 160.513 551.906 124.767C552.978 125.181 554.004 125.603 554.424 125.761C572.754 132.68 585.18 136.08 604.378 129.397C621.869 123.309 636.922 116.051 655.758 115.229C692.723 113.617 729.71 125.319 764.876 135.137C782.499 140.058 801.579 145.689 820.082 144.922C836.667 144.232 846.963 134.893 862.048 131.05C877.742 127.052 891.013 137.811 906.012 141.585C925.379 146.457 942.442 142.499 960.418 134.31C962.856 133.2 965.42 132.114 967.943 130.964C983.753 159.826 1013.83 176.27 1046.03 162.654C1058.66 157.311 1067.64 145.497 1080.35 140.817C1097.2 134.614 1113.16 144.974 1128.25 151.409C1134.61 154.123 1140.87 156.474 1147.17 158.489C1156.2 187.799 1202.62 190.001 1226.72 187.492C1228.84 187.27 1231.03 187.017 1233.25 186.776C1236.69 195.546 1239.82 204.385 1246.39 211.657C1270.27 238.078 1313.36 226.946 1318.54 193.264C1343.19 182.111 1385.14 169.521 1390.41 138.607C1445.95 147.086 1522.39 112.961 1497.34 44.4904ZM509.974 104.672C509.825 104.893 509.724 105.063 509.738 105.112C509.69 104.942 509.784 104.795 509.974 104.672ZM517.997 103.516C519.787 107.414 519.968 103.249 517.997 103.516V103.516ZM548.681 123.847C548.678 123.689 549.221 123.818 549.954 124.057C549.236 124.617 548.695 124.761 548.681 123.847Z" fill="#336EC2"/>
</g>
<g opacity="0.91">
<mask id="mask2_2903_9141" style="mask-type:luminance" maskUnits="userSpaceOnUse" x="-131" y="2" width="562" height="153">
<path d="M425.842 78.8592C422.781 77.1743 419.064 77.535 415.567 77.5515C380.024 77.7277 357.63 40.7361 328.476 20.4067C301.831 1.8256 266.043 -2.87958 235.502 8.18266C207.32 18.3887 183.161 41.0747 153.24 42.8395C120.772 44.7557 92.8492 21.6209 62.2697 10.5421C43.1793 3.62615 23.1665 1.58879 3.83096 4.10794C-48.3691 8.55981 -56.5818 25.4395 -82.5855 34.1065C-108.589 42.7762 -131 49.6178 -131 67.4418C-131 79.0933 -116.312 85.5605 -104.947 88.1402C-85.9196 92.4572 -66.1463 87.8594 -46.6429 87.3611C-27.1394 86.8627 -4.98743 92.3002 4.37334 109.417C12.743 124.724 11.3829 148.685 28.0836 153.732C38.2731 156.81 48.9389 149.541 54.8637 140.701C60.7885 131.861 63.795 121.316 69.7501 112.495C73.8496 106.419 81.8255 100.904 88.0174 104.827C92.4445 107.63 93.7605 114.215 98.6391 116.129C107.177 119.48 113.696 105.427 122.864 105.65C128.913 105.796 132.988 112.079 138.742 113.948C147.907 116.927 157.122 107.971 166.717 108.877C183.946 110.504 187.586 140.324 204.878 140.987C221.073 141.607 226.73 115.975 242.668 113.04C262.868 109.318 272.546 143.818 293.087 143.848C302.905 143.862 317.376 125.275 325.252 119.419C351.468 99.9265 380.635 113.326 412.063 104.417C418.062 102.716 424.298 100.301 427.968 95.2599C431.638 90.2133 431.307 81.8657 425.842 78.8592Z" fill="white"/>
</mask>
<g mask="url(#mask2_2903_9141)">
<path d="M425.842 78.8592C422.781 77.1743 419.064 77.535 415.567 77.5515C380.024 77.7277 357.63 40.7361 328.476 20.4067C301.831 1.8256 266.043 -2.87958 235.502 8.18266C207.32 18.3887 183.161 41.0747 153.24 42.8395C120.772 44.7557 92.8492 21.6209 62.2697 10.5421C43.1793 3.62615 23.1665 1.58879 3.83096 4.10794C-48.3691 8.55981 -56.5818 25.4395 -82.5855 34.1065C-108.589 42.7762 -131 49.6178 -131 67.4418C-131 79.0933 -116.312 85.5605 -104.947 88.1402C-85.9196 92.4572 -66.1463 87.8594 -46.6429 87.3611C-27.1394 86.8627 -4.98743 92.3002 4.37334 109.417C12.743 124.724 11.3829 148.685 28.0836 153.732C38.2731 156.81 48.9389 149.541 54.8637 140.701C60.7885 131.861 63.795 121.316 69.7501 112.495C73.8496 106.419 81.8255 100.904 88.0174 104.827C92.4445 107.63 93.7605 114.215 98.6391 116.129C107.177 119.48 113.696 105.427 122.864 105.65C128.913 105.796 132.988 112.079 138.742 113.948C147.907 116.927 157.122 107.971 166.717 108.877C183.946 110.504 187.586 140.324 204.878 140.987C221.073 141.607 226.73 115.975 242.668 113.04C262.868 109.318 272.546 143.818 293.087 143.848C302.905 143.862 317.376 125.275 325.252 119.419C351.468 99.9265 380.635 113.326 412.063 104.417C418.062 102.716 424.298 100.301 427.968 95.2599C431.638 90.2133 431.307 81.8657 425.842 78.8592Z" fill="white"/>
</g>
<mask id="mask3_2903_9141" style="mask-type:luminance" maskUnits="userSpaceOnUse" x="-131" y="2" width="562" height="153">
<path d="M425.842 78.8592C422.781 77.1743 419.064 77.535 415.567 77.5515C380.024 77.7277 357.63 40.7361 328.476 20.4067C301.831 1.8256 266.043 -2.87958 235.502 8.18266C207.32 18.3887 183.161 41.0747 153.24 42.8395C120.772 44.7557 92.8492 21.6209 62.2697 10.5421C43.1793 3.62615 23.1665 1.58879 3.83096 4.10794C-48.3691 8.55981 -56.5818 25.4395 -82.5855 34.1065C-108.589 42.7762 -131 49.6178 -131 67.4418C-131 79.0933 -116.312 85.5605 -104.947 88.1402C-85.9196 92.4572 -66.1463 87.8594 -46.6429 87.3611C-27.1394 86.8627 -4.98743 92.3002 4.37334 109.417C12.743 124.724 11.3829 148.685 28.0836 153.732C38.2731 156.81 48.9389 149.541 54.8637 140.701C60.7885 131.861 63.795 121.316 69.7501 112.495C73.8496 106.419 81.8255 100.904 88.0174 104.827C92.4445 107.63 93.7605 114.215 98.6391 116.129C107.177 119.48 113.696 105.427 122.864 105.65C128.913 105.796 132.988 112.079 138.742 113.948C147.907 116.927 157.122 107.971 166.717 108.877C183.946 110.504 187.586 140.324 204.878 140.987C221.073 141.607 226.73 115.975 242.668 113.04C262.868 109.318 272.546 143.818 293.087 143.848C302.905 143.862 317.376 125.275 325.252 119.419C351.468 99.9265 380.635 113.326 412.063 104.417C418.062 102.716 424.298 100.301 427.968 95.2599C431.638 90.2133 431.307 81.8657 425.842 78.8592Z" fill="white"/>
</mask>
<g mask="url(#mask3_2903_9141)">
<path d="M425.842 78.8592C422.781 77.1743 419.064 77.535 415.567 77.5515C380.024 77.7277 357.63 40.7361 328.476 20.4067C301.831 1.8256 266.043 -2.87958 235.502 8.18266C207.32 18.3887 183.161 41.0747 153.24 42.8395C120.772 44.7557 92.8492 21.6209 62.2697 10.5421C43.1793 3.62615 23.1665 1.58879 3.83096 4.10794C-48.3691 8.55981 -56.5818 25.4395 -82.5855 34.1065C-108.589 42.7762 -131 49.6178 -131 67.4418C-131 79.0933 -116.312 85.5605 -104.947 88.1402C-85.9196 92.4572 -66.1463 87.8594 -46.6429 87.3611C-27.1394 86.8627 -4.98743 92.3002 4.37334 109.417C12.743 124.724 11.3829 148.685 28.0836 153.732C38.2731 156.81 48.9389 149.541 54.8637 140.701C60.7885 131.861 63.795 121.316 69.7501 112.495C73.8496 106.419 81.8255 100.904 88.0174 104.827C92.4445 107.63 93.7605 114.215 98.6391 116.129C107.177 119.48 113.696 105.427 122.864 105.65C128.913 105.796 132.988 112.079 138.742 113.948C147.907 116.927 157.122 107.971 166.717 108.877C183.946 110.504 187.586 140.324 204.878 140.987C221.073 141.607 226.73 115.975 242.668 113.04C262.868 109.318 272.546 143.818 293.087 143.848C302.905 143.862 317.376 125.275 325.252 119.419C351.468 99.9265 380.635 113.326 412.063 104.417C418.062 102.716 424.298 100.301 427.968 95.2599C431.638 90.2133 431.307 81.8657 425.842 78.8592Z" fill="white"/>
</g>
<mask id="mask4_2903_9141" style="mask-type:luminance" maskUnits="userSpaceOnUse" x="-131" y="2" width="562" height="153">
<path d="M425.842 78.8592C422.781 77.1743 419.064 77.535 415.567 77.5515C380.024 77.7277 357.63 40.7361 328.476 20.4067C301.831 1.8256 266.043 -2.87958 235.502 8.18266C207.32 18.3887 183.161 41.0747 153.24 42.8395C120.772 44.7557 92.8492 21.6209 62.2697 10.5421C43.1793 3.62615 23.1665 1.58879 3.83096 4.10794C-48.3691 8.55981 -56.5818 25.4395 -82.5855 34.1065C-108.589 42.7762 -131 49.6178 -131 67.4418C-131 79.0933 -116.312 85.5605 -104.947 88.1402C-85.9196 92.4572 -66.1463 87.8594 -46.6429 87.3611C-27.1394 86.8627 -4.98743 92.3002 4.37334 109.417C12.743 124.724 11.3829 148.685 28.0836 153.732C38.2731 156.81 48.9389 149.541 54.8637 140.701C60.7885 131.861 63.795 121.316 69.7501 112.495C73.8496 106.419 81.8255 100.904 88.0174 104.827C92.4445 107.63 93.7605 114.215 98.6391 116.129C107.177 119.48 113.696 105.427 122.864 105.65C128.913 105.796 132.988 112.079 138.742 113.948C147.907 116.927 157.122 107.971 166.717 108.877C183.946 110.504 187.586 140.324 204.878 140.987C221.073 141.607 226.73 115.975 242.668 113.04C262.868 109.318 272.546 143.818 293.087 143.848C302.905 143.862 317.376 125.275 325.252 119.419C351.468 99.9265 380.635 113.326 412.063 104.417C418.062 102.716 424.298 100.301 427.968 95.2599C431.638 90.2133 431.307 81.8657 425.842 78.8592Z" fill="white"/>
</mask>
<g mask="url(#mask4_2903_9141)">
<g opacity="0.3">
<path d="M-128.643 39.7896C-143.805 65.5565 -133.062 90.4754 -104.154 97.7631C-74.2628 105.298 -37.965 89.498 -10.4333 106.27C11.0414 119.351 5.47174 154.423 33.9147 160.332C46.7005 162.988 59.3595 156.722 67.6906 147.304C71.5863 142.899 74.502 137.775 76.9 132.439C78.2325 129.477 78.863 125.788 80.3827 123.001C80.146 119.786 81.5253 118.054 84.518 117.806C86.8527 115.92 88.7992 116.35 90.3547 119.097C95.3903 120.873 98.2205 123.263 104.101 122.236C109.415 121.308 114.087 116.721 119.224 116.074C125.331 115.306 131.237 120.168 137.316 120.758C144.377 121.443 150.779 118.996 157.546 117.597C170.488 114.921 171.876 122.297 177.457 131.646C179.929 135.787 182.9 139.487 186.928 142.235C195.936 148.38 208.061 149.512 218.217 145.743C223.754 143.689 228.297 140.322 231.939 135.707C234.524 132.431 236.11 125.914 239.461 123.613C249.675 116.592 266.855 141.516 276.009 145.558C286.532 150.203 298.781 150.043 309.4 145.806C313.953 143.989 318.295 141.428 321.921 138.097C328.102 132.417 330.756 123.037 337.832 118.428C345.114 113.685 355.537 114.337 363.868 113.908C375.999 113.283 388.135 112.721 400.268 112.157C414.546 111.493 432.576 110.662 438.562 94.9714C443.008 83.309 436.654 72.8111 426.123 67.5388C420.204 64.5764 413.588 63.7312 407.525 61.2533C396.012 56.5482 391.216 47.4626 386.761 36.5381C383.419 28.3446 369.851 28.4355 370.126 38.7902C370.432 50.3177 375.41 59.4363 383.691 67.4755C387.537 71.2061 391.945 74.3419 396.78 76.6573C402.487 79.3912 410.791 79.6279 415.917 83.0116C425.905 89.6054 412.387 93.358 405.469 93.983C396.86 94.7594 388.102 94.8613 379.468 95.255C365.768 95.88 350.838 95.0512 337.562 99.0571C326.359 102.438 321.277 109.172 314.9 118.307C306.068 130.961 290.937 136.756 277.344 126.649C268.08 119.761 262.433 109.478 250.597 106.188C241.237 103.586 231.898 106.414 225.772 113.858C218.925 122.178 215.93 133.786 202.172 130.853C189.637 128.18 188.792 112.377 179.533 105.227C171.584 99.0901 162.518 99.9409 153.281 102.124C144.132 104.288 139.7 105.037 130.978 101.703C125.967 99.7866 121.851 98.7707 116.435 99.9133C112.441 100.756 106.51 105.546 102.639 105.56C97.6671 105.574 94.7488 99.3516 90.0794 97.5731C80.7214 94.0132 71.2395 100.136 66.5783 108.082C60.4415 118.544 59.2136 133.235 47.4658 139.666C30.7623 148.81 25.6772 127.189 21.1097 116.339C10.6807 91.574 -11.7108 81.5112 -37.5493 79.9942C-54.2197 79.014 -70.8571 82.227 -87.5303 81.0514C-95.6329 80.4787 -106.026 79.0085 -112.62 73.7196C-121.548 66.5614 -118.757 54.4006 -116.326 44.9875C-114.434 37.6311 -124.723 33.1269 -128.643 39.7896Z" fill="#336EC2"/>
</g>
</g>
<mask id="mask5_2903_9141" style="mask-type:luminance" maskUnits="userSpaceOnUse" x="-131" y="2" width="562" height="153">
<path d="M425.842 78.8592C422.781 77.1743 419.064 77.535 415.567 77.5515C380.024 77.7277 357.63 40.7361 328.476 20.4067C301.831 1.8256 266.043 -2.87958 235.502 8.18266C207.32 18.3887 183.161 41.0747 153.24 42.8395C120.772 44.7557 92.8492 21.6209 62.2697 10.5421C43.1793 3.62615 23.1665 1.58879 3.83096 4.10794C-48.3691 8.55981 -56.5818 25.4395 -82.5855 34.1065C-108.589 42.7762 -131 49.6178 -131 67.4418C-131 79.0933 -116.312 85.5605 -104.947 88.1402C-85.9196 92.4572 -66.1463 87.8594 -46.6429 87.3611C-27.1394 86.8627 -4.98743 92.3002 4.37334 109.417C12.743 124.724 11.3829 148.685 28.0836 153.732C38.2731 156.81 48.9389 149.541 54.8637 140.701C60.7885 131.861 63.795 121.316 69.7501 112.495C73.8496 106.419 81.8255 100.904 88.0174 104.827C92.4445 107.63 93.7605 114.215 98.6391 116.129C107.177 119.48 113.696 105.427 122.864 105.65C128.913 105.796 132.988 112.079 138.742 113.948C147.907 116.927 157.122 107.971 166.717 108.877C183.946 110.504 187.586 140.324 204.878 140.987C221.073 141.607 226.73 115.975 242.668 113.04C262.868 109.318 272.546 143.818 293.087 143.848C302.905 143.862 317.376 125.275 325.252 119.419C351.468 99.9265 380.635 113.326 412.063 104.417C418.062 102.716 424.298 100.301 427.968 95.2599C431.638 90.2133 431.307 81.8657 425.842 78.8592Z" fill="white"/>
</mask>
<g mask="url(#mask5_2903_9141)">
<path opacity="0.15" d="M431.481 57.7646C429.603 56.5394 427.709 55.6474 425.829 55.0334C420.391 42.1045 411.19 31.5874 400.439 22.2487C395.326 16.5606 389.132 11.6544 382.012 7.89083C381.684 7.65406 381.357 7.41461 381.029 7.17784C381.004 7.23565 380.982 7.29066 380.957 7.34848C379.248 6.48123 377.505 5.65804 375.696 4.92845C355.51 -3.21267 339.415 18.4052 356.729 31.8297C361.787 35.7529 363.202 50.7054 369.047 56.008C370.416 59.5844 379.082 63.7637 376.346 70.1511C371.721 80.9462 356.162 78.5372 345.78 79.275C332.499 80.2194 325.09 84.1234 316.129 93.8724C314.402 95.75 307.005 106.19 299.249 106.647C287.842 107.104 275.982 66.5031 239.943 86.5737C232.239 90.8631 211.202 124.438 201.167 114.403C170.268 83.5039 155.547 79.7321 130.912 87.9448C112.978 93.922 92.205 71.4753 73.4311 88.8561C61.1134 100.262 56.4441 118.532 42.4111 114.403C26.8998 109.841 24.1631 84.2941 6.80717 73.32C-18.2246 57.4947 -46.8493 66.4123 -74.3755 70.6053C-84.3861 72.1306 -97.8133 72.0507 -105.396 64.218C-112.746 56.6275 -107.771 41.7026 -103.57 32.284C-98.5704 21.0703 -116.557 13.7551 -126.391 23.1792C-146.748 42.6909 -153.306 69.9225 -137.833 94.7258C-119.789 123.645 -86.8584 124.276 -56.7332 118.632C-44.7074 116.38 -31.9767 112.236 -19.5985 114.185C-7.62495 116.071 -3.88889 125.66 2.13229 134.873C17.985 159.133 43.1545 173.822 71.7407 160.381C82.5937 155.276 95.0077 145.472 100.321 134.382C102.901 129 100.946 130.743 107.482 129.655C113.936 128.582 120.408 127.665 126.931 127.155C138.356 126.266 150.977 125.658 161.838 130.101C174.271 135.186 181.543 147.512 194.887 151.516C206.585 155.026 218.859 152.496 229.42 146.86C235.675 143.52 246.881 130.952 253.811 131.026C258.373 131.076 267.166 140.23 271.04 142.986C272.915 144.319 274.831 145.538 276.777 146.662C280.197 156.32 289.657 164.169 302.624 161.642C311.297 159.951 317.824 156.1 323.546 151.243C335.643 147.028 345.733 139.517 356.997 133.006C359.931 140.09 366.299 145.266 376.192 144.663C396.191 143.449 417.533 138.845 432.045 123.995C437.469 118.444 441.318 111.936 443.603 105.012C443.892 104.511 444.2 104.029 444.47 103.506C453.198 86.6673 446.816 67.7778 431.481 57.7646Z" fill="#336EC2"/>
</g>
<g opacity="0.35">
<path d="M21.4264 17.6262C23.6977 17.6262 23.7005 14.0967 21.4264 14.0967C19.1578 14.0967 19.1523 17.6262 21.4264 17.6262Z" fill="#336EC2"/>
</g>
<g opacity="0.35">
<path d="M37.8491 29.2639C38.6613 29.2639 38.6613 28.003 37.8491 28.003C37.0397 28.003 37.0369 29.2639 37.8491 29.2639Z" fill="#336EC2"/>
</g>
<g opacity="0.35">
<path d="M265.005 16.7728C264.991 17.2739 265.008 17.428 265.173 17.8988C265.44 18.6587 266.453 18.6587 266.72 17.8988C266.885 17.428 266.902 17.2739 266.888 16.7728C266.855 15.5614 265.041 15.5614 265.005 16.7728Z" fill="#336EC2"/>
</g>
<g opacity="0.35">
<path d="M239.199 35.7938C238.178 36.1352 237.41 36.851 237.567 38.0184C237.721 39.1582 238.872 39.9731 240.009 39.6455C241.025 39.3509 241.661 38.2716 241.374 37.2392C241.157 36.4463 240.094 35.4909 239.199 35.7938Z" fill="#336EC2"/>
</g>
<g opacity="0.15">
<path d="M284.194 28.7266C285.488 28.7266 285.491 26.7168 284.194 26.7168C282.9 26.7168 282.9 28.7266 284.194 28.7266Z" fill="#336EC2"/>
</g>
<g opacity="0.15">
<path d="M358.098 64.975C359.075 64.975 359.075 63.458 358.098 63.458C357.12 63.458 357.12 64.975 358.098 64.975Z" fill="#336EC2"/>
</g>
<g opacity="0.35">
<path d="M43.3252 96.0199C44.3301 96.0199 44.3301 94.4589 43.3252 94.4589C42.3203 94.4589 42.3176 96.0199 43.3252 96.0199Z" fill="#336EC2"/>
</g>
<g opacity="0.35">
<path d="M62.4845 80.2385C64.3154 80.2385 64.3181 77.3945 62.4845 77.3945C60.6537 77.3918 60.6509 80.2385 62.4845 80.2385Z" fill="#336EC2"/>
</g>
<g opacity="0.15">
<path d="M330.726 73.0668C332.722 73.0668 332.725 69.9668 330.726 69.9668C328.732 69.9668 328.727 73.0668 330.726 73.0668Z" fill="#336EC2"/>
</g>
</g>
</svg>
