<svg width="24" height="24" viewBox="0 0 24 24" fill="none" xmlns="http://www.w3.org/2000/svg">
<path d="M21.7081 3.20514C21.5919 3.1048 21.4505 3.03806 21.2992 3.01213C21.1479 2.98619 20.9923 3.00203 20.8494 3.05795L1.84998 10.4933C1.58071 10.598 1.35275 10.7873 1.20041 11.0328C1.04806 11.2783 0.979587 11.5666 1.00529 11.8543C1.03098 12.1421 1.14947 12.4137 1.3429 12.6283C1.53633 12.8429 1.79423 12.9889 2.07779 13.0442L7.0006 14.0108V19.4998C6.99963 19.7988 7.08848 20.0912 7.25564 20.3391C7.4228 20.587 7.66056 20.779 7.9381 20.8901C8.21522 21.0033 8.51997 21.0305 8.81274 20.9681C9.1055 20.9057 9.37272 20.7567 9.57967 20.5405L11.9534 18.0786L15.7194 21.3748C15.9911 21.6158 16.3415 21.7492 16.7047 21.7498C16.8638 21.7497 17.022 21.7247 17.1734 21.6758C17.4209 21.5972 17.6434 21.4553 17.8189 21.264C17.9944 21.0727 18.1168 20.8387 18.1737 20.5855L21.979 4.03108C22.0131 3.88178 22.0058 3.72603 21.9581 3.58053C21.9104 3.43503 21.824 3.30527 21.7081 3.20514ZM15.9762 6.58014L7.57717 12.5951L2.92717 11.683L15.9762 6.58014ZM8.5006 19.4998V15.0486L10.8247 17.0867L8.5006 19.4998ZM16.7065 20.2498L8.95529 13.453L20.1115 5.45702L16.7065 20.2498Z" fill="white"/>
</svg>
