<svg width="221" height="748" viewBox="0 0 221 748" fill="none" xmlns="http://www.w3.org/2000/svg">
<path d="M193.658 685.904C185.947 680.19 181.087 669.422 185.184 660.754C181.706 657.341 177.113 655.076 172.284 654.389C168.374 653.834 164.179 654.24 160.69 652.397C157.2 650.553 155.398 644.983 158.681 642.792C160.81 641.373 163.663 642.232 166.018 643.237C171.185 645.439 176.131 648.153 180.766 651.326C179.839 647.771 179.342 644.104 179.287 640.431C183.953 640.393 187.318 644.613 190.598 647.92C193.879 651.228 199.397 653.94 202.906 650.87C203.986 649.926 204.626 648.59 205.198 647.277C207.437 642.112 209.014 636.665 209.873 631.104C209.995 630.312 210.089 629.44 209.657 628.765C209.062 627.831 207.782 627.698 206.686 627.542C197.53 626.252 191.525 617.699 184.224 612.038C180.562 609.196 176.429 607.018 172.673 604.299C161.52 596.221 156.158 577.106 142.44 575.814C141.504 575.725 140.57 575.639 139.634 575.55C144.055 573.787 146.15 568.644 146.484 563.905C146.815 559.169 145.874 554.389 146.431 549.672C156.293 554.646 164.786 562.286 170.765 571.56C171.977 565.323 171.437 558.756 169.222 552.799C175.877 553.579 182.446 555.102 188.765 557.331C190.375 557.898 192.511 558.369 193.51 556.985C194.064 556.219 193.99 555.182 193.891 554.242C193.169 547.301 192.446 540.357 191.722 533.415C191.566 531.924 191.426 530.338 192.086 528.991C192.746 527.643 194.53 526.728 195.804 527.523C191.263 514.536 180.396 504.967 170.306 495.59C168.046 493.488 165.686 491.158 165.12 488.129C164.647 485.607 165.514 483.047 166.366 480.625C168.214 475.377 170.093 470.067 173.17 465.426C176.246 460.786 180.694 456.808 186.101 455.446C179.568 453.861 174.71 448.432 170.978 442.853C167.246 437.271 164.09 431.138 159.014 426.738C155.062 423.313 150.19 421.158 145.402 419.042C134.962 414.423 124.044 410.028 116.614 401.376C114.84 399.313 113.035 397.192 112.066 394.653C111.096 392.112 111.113 389.023 112.805 386.895C114.12 385.242 116.194 384.418 118.169 383.667C122.306 382.091 126.442 380.513 130.579 378.937C127.541 375.32 123.25 373.002 119.75 369.829C116.249 366.656 113.426 361.891 114.778 357.368C120.485 361.787 127.666 364.276 134.89 364.338C131.076 356.962 129.331 348.533 129.91 340.254C129.974 339.334 130.066 338.407 130.142 337.48C134.652 338.837 139.726 339.096 144.475 339.212C140.095 332.976 140.006 324.601 143.774 317.976C142.925 318.437 142.075 318.898 141.223 319.36C141.54 306.127 131.522 294.949 120.938 286.97C110.354 278.993 98.2344 272.327 90.8616 261.326C96.9 259.167 103.478 258.528 109.822 259.487C108.427 257.683 108.173 255.072 109.198 253.033C114.089 254.145 116.988 260.498 122.002 260.313C124.418 260.224 126.449 258.564 128.28 256.989C132.406 253.436 136.531 249.886 140.657 246.334C134.911 247.169 129.038 245.152 124.198 241.95C119.357 238.748 115.387 234.425 111.487 230.13C107.969 226.253 104.462 222.365 100.958 218.473C97.7568 214.919 94.452 211.184 93.1848 206.574C92.7648 205.047 92.6904 203.159 93.9096 202.145C95.8128 200.56 98.5512 202.541 100.224 204.367C101.897 206.192 104.782 208.052 106.55 206.32C107.772 205.124 107.443 202.911 108.679 201.73C110.16 200.312 112.57 201.345 114.372 202.325C116.174 203.305 118.836 203.98 119.933 202.248C109.956 198.302 101.117 191.541 94.7088 182.954C93.2592 181.013 91.9008 178.906 91.4568 176.526C90.876 173.413 91.8 169.784 89.784 167.339C88.92 166.291 87.6552 165.674 86.448 165.052C80.1696 161.809 75.4608 158.387 71.1648 152.785C66.9576 147.297 63.8208 140.415 65.0088 133.608C69.0864 137.677 73.3512 141.866 78.7776 143.821C84.2016 145.777 91.1424 144.813 94.404 140.067C87.012 137.423 79.896 133.635 74.3928 128.045C68.8896 122.456 65.1168 114.914 65.1168 107.079C68.1384 110.737 71.8632 113.816 76.0272 116.103L82.4928 103.529C76.212 100.346 71.9088 94.1253 69.5736 87.4936C67.2384 80.8619 66.6432 73.7665 66.096 66.7601C64.9752 52.3965 63.9816 38.0233 62.988 23.6502C62.4696 16.1393 61.9488 8.62847 61.4304 1.11762C58.7016 14.004 57.4632 27.205 57.744 40.3724C57.8664 46.0506 58.2672 51.7336 57.9384 57.4046C57.4752 65.3309 55.5888 73.0964 53.7096 80.8114C52.7208 84.8707 51.7224 88.9612 49.9512 92.7442C47.8464 97.243 44.7048 101.192 41.196 104.713C37.5696 108.354 32.7768 111.792 27.7224 110.838C29.5104 116.987 37.4856 120.422 43.1976 117.503C48.1416 114.979 50.3568 109.296 53.1864 104.528C50.6712 124.274 40.272 142.909 24.7752 155.442C32.94 153.11 41.1912 150.77 49.356 148.438C43.4544 163.911 25.764 173.925 9.42482 171.04C13.872 177.446 22.6824 178.697 30.4608 179.384C21.3648 181.625 12.2664 183.864 3.17043 186.105C1.56482 186.501 -0.0959778 186.922 -1.37998 187.959C-4.12078 190.172 -4.11118 194.697 -1.92718 197.461C0.254425 200.226 4.00322 201.377 7.52882 201.266C11.0544 201.156 14.4408 199.959 17.7624 198.775C17.64 203.346 14.7912 207.499 11.1696 210.305C7.54803 213.108 3.19923 214.782 -1.08237 216.415C9.47762 217.273 20.2656 215.113 29.676 210.259C30.4176 211.935 29.0592 213.761 27.708 215C19.2624 222.763 7.06802 226.265 -4.21918 224.171C-4.37758 227.846 -1.12558 230.973 2.43362 231.934C5.99282 232.895 9.76802 232.203 13.38 231.456C19.3824 230.214 25.7448 228.619 29.8968 224.116C33.156 220.58 35.7384 215.005 40.5456 215.277C43.6032 215.447 45.9984 218.325 46.4856 221.341C46.9728 224.358 45.9432 227.421 44.5848 230.161C43.404 232.544 41.9232 234.838 39.8496 236.51C37.7208 238.225 35.0952 239.183 32.5248 240.115C25.3512 242.711 18.1752 245.306 11.0016 247.902C7.81922 249.053 4.52163 250.275 2.15042 252.684C1.19043 253.659 0.444023 254.757 -0.131977 255.939C-17.7 250.532 -32.7336 237.386 -40.368 220.695C-46.8888 206.437 -48.0456 190.407 -49.1064 174.77C-49.2648 172.45 -49.1424 169.601 -47.0808 168.518C-45.4272 167.651 -43.4256 168.444 -41.7384 169.239C-36.24 171.823 -30.744 174.408 -25.2456 176.99C-30.612 170.579 -35.9784 164.171 -41.3472 157.76C-44.2464 154.296 -47.1816 150.78 -49.0608 146.675C-49.9728 144.684 -50.652 142.532 -52.0608 140.853C-53.1864 139.512 -54.6912 138.578 -56.1216 137.557V736.823C-55.4136 736.765 -54.708 736.705 -54.0024 736.636C-48.0504 736.038 -41.9784 734.858 -36.9432 731.633C-31.7256 728.291 -27.528 722.757 -21.3984 721.837C-16.8264 721.153 -12.36 723.259 -8.14558 725.154C4.92482 731.03 18.6936 735.36 32.7792 738.029C34.368 738.329 36.024 738.634 37.3296 739.59C39.5904 741.243 40.764 744.747 43.5648 744.874C45.8808 744.98 47.5032 742.583 49.7016 741.853C52.7664 740.832 56.304 744.168 55.4544 747.279C58.6896 747.041 61.308 744.709 63.9288 742.806C66.552 740.904 69.9888 739.292 72.936 740.645C73.8 741.041 74.5992 741.685 75.5496 741.711C77.0112 741.749 78.036 740.371 79.1616 739.441C83.9424 735.488 91.404 739.427 97.2816 737.428C101.326 736.054 103.85 732.166 107.004 729.291C110.158 726.416 116.75 723.795 119.707 726.872C121.968 724.631 123.557 721.777 125.887 719.608C128.218 717.439 131.782 716.044 134.592 717.543C136.99 718.821 137.974 721.667 139.57 723.86C142.466 727.845 147.943 729.754 152.698 728.438C153.54 726.077 152.897 723.094 154.656 721.307C158.748 717.151 166.596 726.447 170.935 722.546C172.536 720.596 170.945 717.768 169.627 715.619C168.31 713.467 167.69 709.948 170.042 709.033C171.002 708.658 172.087 708.951 173.04 709.343C180.391 712.357 185.933 721.136 193.774 719.841C192.343 713.988 190.91 708.137 189.48 702.283C199.522 708.447 214.234 705.122 220.632 695.243C211.183 693.514 201.367 691.631 193.656 685.916V685.904H193.658ZM7.68243 290.479C7.33443 292.379 5.13602 293.227 3.26882 293.733C-3.24958 295.504 -9.04078 298.487 -15.7944 298.638C-27.612 298.9 -38.8296 289.278 -40.3464 277.583C-40.4496 276.783 -40.4952 275.906 -40.0416 275.238C-39.5904 274.576 -38.7672 274.294 -37.9944 274.076C-33.444 272.786 -28.6776 272.258 -23.9544 272.517C-29.1864 267.855 -35.952 264.934 -42.9384 264.317C-42.8928 260.553 -42.8472 256.792 -42.8016 253.028C-32.964 257.38 -23.088 261.752 -13.9512 267.43C-10.6608 269.474 -7.43278 271.705 -3.78958 273.029C-2.99517 273.317 -2.17438 273.555 -1.33918 273.735C-0.835178 277.957 0.180019 282.24 3.36962 284.911C5.27282 286.506 8.13123 288.038 7.68722 290.479H7.68243ZM115.699 324.495C117.893 326.844 119.254 329.861 121.409 332.246C122.143 333.06 122.947 333.774 123.802 334.405C123.662 334.612 123.528 334.823 123.403 335.039C122.462 336.68 121.956 338.568 120.797 340.062C119.638 341.556 117.437 342.545 115.838 341.532C114.595 340.744 114.24 339.13 113.918 337.696C112.67 332.111 110.333 326.772 107.074 322.062C109.908 320.544 113.506 322.146 115.699 324.495Z" fill="#012D62"/>
<path d="M65.4744 179.071C65.892 181.175 66.336 183.341 67.5216 185.133C68.7072 186.925 70.8312 188.272 72.948 187.898C75.588 187.429 77.5392 184.506 80.2104 184.758C81.48 184.878 82.5552 185.717 83.5176 186.553C87.6024 190.1 91.1496 194.215 95.0016 198.012C96.0864 199.081 97.2216 200.145 98.6088 200.777C99.996 201.409 101.695 201.548 103.008 200.772C105.226 199.465 105.382 196.158 104.155 193.9C102.926 191.642 100.747 190.095 98.8632 188.342C95.9304 185.613 93.612 182.234 92.1216 178.52C84.444 177.058 77.2248 173.277 71.6544 167.805C71.6208 169.624 71.1648 171.432 70.3344 173.051C68.0832 170.669 65.5704 168.533 62.856 166.691C63.288 170.765 64.6656 175.004 65.4744 179.071Z" fill="#71B6ED"/>
<path d="M59.0735 182.125C59.3327 183.045 59.4575 184.049 59.1119 184.943C58.7591 185.855 57.9719 186.523 57.1967 187.124C52.5647 190.719 47.2775 193.472 41.6711 195.206C41.2895 190.405 46.3007 186.578 46.4111 181.762C46.4255 181.136 46.3103 180.429 45.7991 180.067C45.0455 179.531 44.0159 180.074 43.2791 180.631C36.8975 185.478 31.6199 192.453 23.8295 194.361C15.9719 196.282 7.66073 192.264 2.07593 186.422C10.8623 183.828 19.6487 181.236 28.4351 178.642C30.6095 178.001 32.7983 177.353 34.8095 176.312C38.3111 174.499 47.2607 163.505 50.7095 166.054C52.8407 167.629 53.3255 171.641 54.4871 173.875C55.9511 176.685 58.1423 179.043 59.0711 182.128L59.0735 182.125Z" fill="#3A85CA"/>
<path d="M96.8735 214.258C100.03 218.92 103.836 223.102 107.628 227.265C108.946 228.711 110.263 230.159 111.581 231.605C115.891 236.337 120.473 241.251 126.54 243.314C123.146 245.822 118.411 246.021 114.454 244.554C110.496 243.086 107.237 240.153 104.599 236.865C103.291 235.232 102.094 233.483 100.5 232.126C97.2239 229.335 92.5463 228.434 89.6303 225.271C87.9095 223.405 86.9999 220.947 85.5551 218.86C84.3839 217.167 82.8719 215.735 81.6551 214.076C79.1783 210.698 78.9167 203.572 84.5975 203.545C90.5135 203.519 94.0487 210.091 96.8711 214.258H96.8735Z" fill="#3D8DCA"/>
<path d="M77.2079 222.761C74.8631 221.204 72.3455 219.802 69.5783 219.268C68.3351 219.028 66.9095 219.019 65.9639 219.859C65.3015 220.445 65.0087 221.332 64.7471 222.177C63.6503 225.722 62.6303 229.292 61.6847 232.88C61.4375 233.819 61.1951 234.804 61.4231 235.748C61.7519 237.112 62.9687 238.056 64.1279 238.854C67.0559 240.864 70.1303 242.661 73.3199 244.224C75.1799 245.137 77.0975 245.975 79.1279 246.389C80.7863 246.725 82.4879 246.77 84.1799 246.816C88.3391 246.927 92.4983 247.011 96.6551 247.155C97.7639 243.019 92.2727 237.175 89.8535 234.218C86.2391 229.801 81.9671 225.917 77.2079 222.761Z" fill="#6DAEE6"/>
<path d="M-40.1162 277.836C-34.3082 278.307 -29.297 281.909 -24.6218 285.378L-27.6986 285.58C-28.5242 287.122 -26.1218 288.311 -24.377 288.44C-14.441 289.178 -4.48818 289.915 5.47422 289.713C9.65022 289.627 14.2078 289.221 17.2366 286.348C18.3982 285.246 19.3126 283.795 20.7814 283.149C21.9526 282.632 23.2894 282.719 24.5686 282.731C38.5702 282.856 50.7406 273.022 59.3758 262.024C61.819 258.911 64.5382 255.39 68.4694 254.897C74.5294 254.138 78.655 260.763 84.1078 263.508C86.6998 264.812 89.6494 265.23 92.3158 266.374C94.219 267.188 95.9422 268.358 97.6534 269.52C104.03 273.849 110.407 278.179 116.784 282.508C123.593 287.129 130.524 291.868 135.525 298.394C136.08 299.117 136.629 299.924 136.634 300.834C136.649 303.424 132.914 303.894 130.382 303.32C109.099 298.502 91.6294 283.778 75.5158 269.09C76.051 272.194 78.2782 274.696 80.4118 277.017C85.5118 282.56 90.6094 288.106 95.7094 293.65C96.0526 294.022 96.4102 294.407 96.8734 294.606C99.3574 295.673 100.488 291.306 102.837 289.973C105.341 288.553 108.494 291.498 108.41 294.368C108.326 297.239 106.286 299.631 104.357 301.764C101.894 304.483 98.6998 307.459 95.1046 306.705C90.7942 305.799 89.0374 300.104 84.8518 298.735C82.1638 302.914 78.7174 306.609 74.731 309.585C73.1638 306.15 72.3526 302.374 72.3742 298.603C72.3838 296.967 72.3574 294.971 70.927 294.179C69.3094 293.28 67.303 294.856 66.7294 296.612C66.1558 298.367 66.391 300.303 65.875 302.078C65.359 303.854 63.5038 305.542 61.8046 304.807C60.5638 304.271 60.1006 302.763 59.1238 301.831C57.5278 300.308 54.8398 300.64 52.987 301.841C51.1342 303.042 49.8382 304.903 48.3118 306.496C43.8742 311.127 37.4614 313.447 31.0894 314.242C24.7174 315.037 18.2638 314.456 11.851 314.119C-3.03138 313.341 -18.2138 313.848 -32.5034 309.633C-40.0898 307.394 -47.5634 303.616 -52.2218 297.236C-58.6442 288.445 -50.657 276.978 -40.121 277.833H-40.1162V277.836Z" fill="#1D73B8"/>
<path d="M-21.0241 289.9C-13.3201 287.155 -4.4641 286.626 2.8511 290.285C4.1759 290.947 5.4767 291.779 6.27829 293.023C6.96949 294.096 7.2263 295.381 7.6703 296.578C8.8007 299.626 11.2439 302.162 14.2511 303.411C20.0063 300.385 26.2271 297.303 32.6903 298.036C39.1559 298.768 45.3575 305.136 43.3535 311.313C41.0087 318.541 30.7775 319.245 25.5839 324.8C23.5223 327.005 22.0415 330.147 19.1183 330.913C17.3351 327.675 16.4015 323.979 16.4303 320.285C14.5655 319.533 12.6671 321.113 11.0999 322.372C4.57669 327.613 -4.5625 328.754 -12.7585 327.032C-20.9545 325.31 -28.3777 321.034 -35.3041 316.334C-40.1545 313.043 -47.7985 307.141 -42.1873 301.458C-37.3369 296.544 -27.4345 292.184 -21.0241 289.9Z" fill="#2E85C9"/>
<path d="M7.78563 321.378C0.583225 322.057 -6.69838 322.735 -13.8624 321.726C-21.0264 320.717 -27.864 318.536 -32.6712 313.141C-27.5472 314.203 -22.3512 314.919 -17.1312 315.279C-19.1928 313.778 -20.7672 311.621 -21.5688 309.205C-14.9472 310.389 -8.32318 311.573 -1.70158 312.757C0.259224 313.108 2.36402 313.444 4.18082 312.627C5.99762 311.811 7.19043 309.339 5.97842 307.761C5.32082 306.906 4.20242 306.572 3.16082 306.289C-3.71758 304.418 -10.596 302.549 -17.472 300.678C-19.1544 300.219 -20.8872 299.739 -22.2624 298.665C-24.6096 296.827 -25.4688 293.623 -27.636 291.577C-32.172 287.294 -39.7824 289.893 -45.6072 287.65C-45.1512 284.376 -44.6976 281.104 -44.2416 277.831C-46.9104 275.407 -50.4312 282.531 -53.6688 280.941C-54.5112 280.528 -54.9672 279.622 -55.4472 278.818C-55.656 278.469 -55.8816 278.131 -56.1216 277.804V308.299C-55.5168 308.595 -54.9096 308.883 -54.3 309.166C-47.172 312.476 -39.6888 315.2 -33.2496 319.706C-29.3064 322.466 -25.7112 325.912 -21.1608 327.486C-19.6368 328.012 -17.9592 328.358 -16.8144 329.489C-15.9936 330.298 -15.5352 331.437 -14.6376 332.158C-12.9768 333.493 -10.5456 332.941 -8.50318 332.318C-5.94958 331.543 -3.39838 330.767 -0.84478 329.991C1.30802 329.338 3.51842 328.653 5.28242 327.258C7.04642 325.862 8.28962 323.573 7.79042 321.382L7.78563 321.378Z" fill="#68AAE6"/>
<path d="M144.662 496.368C119.462 478.178 91.7472 463.459 62.5512 452.761C60.804 452.122 58.9896 451.456 57.6888 450.128C56.1744 448.586 55.584 446.388 55.0512 444.294C53.6712 438.873 52.2888 433.454 50.9088 428.033C50.3136 425.693 49.6824 423.282 48.2064 421.372C40.7184 411.685 20.2368 417.349 14.352 426.493C7.73757 436.776 7.57677 450.844 1.25758 461.581C-5.39043 472.872 -19.0584 479.619 -32.088 478.043C-40.2552 477.054 -48.1488 473.124 -56.124 471.827V482.453C-53.4888 482.842 -50.9016 483.551 -48.6696 484.968C-45.7944 486.794 -43.6104 490.01 -43.824 493.401C-43.884 494.35 -44.124 495.316 -43.896 496.24C-43.056 499.644 -38.0568 498.767 -34.6392 499.572C-28.8432 500.939 -27.1032 508.142 -26.1072 514C-25.1112 519.859 -22.152 527.031 -16.1952 526.973C-13.848 526.952 -11.616 525.691 -9.27362 525.837C-5.44802 526.075 -2.88002 529.817 0.585575 531.453C6.89277 534.431 14.6064 529.382 17.1552 522.902C17.556 521.881 17.892 520.793 18.6264 519.979C19.4976 519.013 20.8224 518.566 22.1208 518.451C31.2864 517.637 37.6392 530.787 46.6848 529.104C45.1848 525.64 43.0272 522.462 40.3632 519.787C44.6904 519.068 49.1592 518.297 52.8144 515.879C56.4696 513.46 59.0952 508.918 57.8952 504.71C61.1016 504.037 62.472 509.598 65.7384 509.879C67.4568 510.028 68.9568 508.505 69.3936 506.84C69.8304 505.176 69.4704 503.417 69.108 501.736C68.1264 497.16 67.1424 492.587 66.1608 488.011C65.9184 486.88 65.688 485.638 66.2376 484.62C67.104 483.013 69.5352 482.898 71.0544 483.916C72.5736 484.932 73.3944 486.683 74.148 488.345C75.9432 492.32 77.7384 496.296 79.536 500.271C82.4472 506.713 85.6368 513.494 91.5312 517.414C96.1416 520.478 103.939 520.373 105.696 515.132C106.987 511.277 104.364 506.259 107.201 503.343C109.178 501.309 112.728 501.861 114.977 503.59C117.228 505.32 118.618 507.902 120.36 510.143C125.249 516.429 133.358 520.075 141.314 519.566C146.844 519.213 152.921 516.09 153.83 510.638C154.812 504.751 149.515 499.865 144.67 496.368H144.662Z" fill="#114684"/>
<path d="M87.4175 351.628C90.2399 356.112 90.5615 362.638 86.6855 366.253C81.9263 370.692 73.7087 368.749 68.4983 372.652C65.0255 375.253 63.7367 379.853 63.3263 384.167C61.3511 404.922 74.4071 424.19 76.4975 444.933C70.4063 446.137 64.2575 447.044 58.0799 447.647C56.9183 447.76 55.6751 447.849 54.6479 447.297C53.6975 446.785 53.0999 445.819 52.5047 444.919C47.3351 437.081 39.1919 431.134 35.8319 422.372C34.0415 417.705 33.7727 412.596 33.9335 407.6C34.4495 391.543 39.1487 375.952 43.8095 360.575C45.6191 354.604 47.5343 348.438 51.6215 343.716C62.1983 331.497 80.0759 339.961 87.4199 351.63H87.4175V351.628Z" fill="#104B83"/>
<path d="M148.577 473.202C167.23 481.078 183.262 495.005 193.646 512.356C190.632 509.212 187.039 506.623 183.098 504.761C183.242 514.864 184.042 524.957 185.491 534.956C182.364 530.597 178.56 526.72 174.259 523.506C173.71 523.095 173.081 522.675 172.399 522.757C171.238 522.894 170.76 524.294 170.563 525.447C168.718 536.251 169.034 547.417 171.49 558.099C169.02 551.383 166.55 544.669 164.083 537.954C158.734 523.403 152.798 508.04 140.417 498.677C138.317 497.09 135.982 495.675 133.378 495.281C130.774 494.887 127.85 495.711 126.334 497.863C125.846 498.555 125.506 499.367 124.86 499.914C123.206 501.312 120.648 500.227 119.004 498.819C113.148 493.801 110.65 485.262 103.877 481.566C100.891 479.937 97.4063 479.467 94.2983 478.081C90.9287 476.577 88.1375 474.057 85.0607 472.025C81.9839 469.993 78.2999 468.396 74.6783 469.105C71.0567 469.813 67.9343 473.668 69.1775 477.137C66.0767 476.039 61.2743 474.809 58.1735 473.709C57.2327 476.973 57.1007 480.468 57.7967 483.792C50.6807 484.837 45.3863 477.543 38.8055 474.648C37.9703 474.281 37.0223 473.981 36.1583 474.276C35.4527 474.516 34.9319 475.112 34.4735 475.7C32.3111 478.467 30.6647 481.633 29.6471 484.991C21.7415 483.903 13.7879 483.173 5.81752 482.803C4.15191 481.061 4.35831 478.215 5.34232 476.02C6.32632 473.822 7.93912 471.951 8.91352 469.748C11.0063 465.012 9.86391 459.545 8.68551 454.501C15.4151 457.028 23.2175 455.217 29.1767 451.203C35.1359 447.189 39.5015 441.23 43.1471 435.045C44.2967 433.092 45.4391 431.048 47.2439 429.674C50.3999 427.273 54.9743 427.508 58.5455 429.237C62.1167 430.967 64.9031 433.94 67.5647 436.878C68.7527 438.189 69.9863 439.549 71.6135 440.243C73.2431 440.937 75.3887 440.767 76.4687 439.366C77.5175 438.007 77.2703 435.977 78.2903 434.598C79.7111 432.674 82.8623 433.078 84.6935 434.622C86.5223 436.164 87.5063 438.456 88.8815 440.414C91.7519 444.502 96.5567 447.177 101.551 447.466C96.9911 450.855 95.9567 458.421 100.054 462.355C104.15 466.29 112.452 464.178 113.477 458.599C123.926 470.889 136.332 481.352 148.673 491.752C150.922 493.648 153.319 495.615 156.218 496.129C159.118 496.643 162.61 495.079 163.106 492.182C163.495 489.917 162.017 487.792 160.555 486.017C156.773 481.424 153.154 477.026 148.584 473.21L148.577 473.202Z" fill="#639AD8"/>
<path d="M35.0734 400.752C31.5166 399.645 27.9598 398.54 24.403 397.433C23.0302 397.005 21.6262 396.573 20.1886 396.599C17.7214 396.642 15.499 398.002 13.387 399.275C-1.93936 408.51 -18.7058 415.358 -36.1226 419.497C-23.921 421.832 -11.405 421.805 1.01984 421.772C7.20944 421.755 13.399 421.738 19.5886 421.721C23.6206 421.711 29.9878 421.721 32.8774 418.294C35.9998 414.59 34.7782 405.51 35.0758 400.752H35.0734Z" fill="#2A76B9"/>
<path d="M42.0958 420.282C40.1782 421.151 38.047 421.425 36.0622 422.121C29.3542 424.473 25.3102 431.119 21.8062 437.29C20.8318 439.005 19.3702 440.974 17.4166 440.688C14.0782 440.198 14.6782 434.364 11.6158 432.949C10.2694 432.327 8.69978 432.817 7.28618 433.264C0.146179 435.517 -7.39462 436.502 -14.8754 436.158C-15.3002 431.655 -10.6658 428.371 -6.38182 426.887C-2.09782 425.402 2.84378 424.382 5.39258 420.639C6.08378 419.626 6.55178 418.461 7.36298 417.541C9.32138 415.322 12.6478 415.115 15.607 414.932C26.0326 414.291 35.071 411.173 45.0046 408.466C54.7942 405.8 46.7878 418.153 42.0982 420.279L42.0958 420.282Z" fill="#3B8AC9"/>
<path d="M48.5711 330.418C50.5271 328.261 52.3919 325.809 55.1111 324.752C60.3959 322.696 65.9519 326.741 70.0607 330.639C77.3975 337.6 85.8983 345.584 95.9519 344.378C97.2695 352.242 100.92 359.7 106.329 365.57C99.2687 366.433 91.3103 365.669 86.3975 360.538C81.5951 355.523 80.3759 347.037 74.0471 344.167C73.2911 343.823 72.3623 343.595 71.6663 344.047C70.8287 344.587 70.7855 345.781 70.9103 346.766C71.8367 353.979 76.8023 359.931 81.5615 365.436C74.3471 359.928 67.6055 353.806 61.4327 347.155C58.8383 350.306 61.1591 355.031 63.8279 358.117C66.4967 361.206 69.7535 364.797 68.7839 368.76C65.6855 365.501 62.2631 362.546 58.5839 359.957C58.0607 359.59 57.4583 359.21 56.8271 359.318C56.2151 359.424 55.7783 359.955 55.4015 360.447C51.3863 365.705 47.3687 370.965 43.3535 376.223C46.1519 369.906 41.0687 362.655 35.0039 359.325C29.2991 356.196 10.4519 352.175 24.2663 346.196C33.1847 342.339 41.9591 337.701 48.5663 330.416H48.5711V330.418Z" fill="#6AA9E5"/>
<path d="M156.47 579.706C162.696 584.087 168.941 588.48 174.588 593.582C181.8 600.098 187.99 607.739 192.862 616.141C190.862 614.894 188.657 613.595 186.317 613.88C183.977 614.166 181.915 616.945 183.23 618.896C183.744 619.655 184.61 620.085 185.302 620.687C187.006 622.167 187.536 624.833 186.526 626.848C185.515 628.864 183.06 630.043 180.852 629.57C178.838 629.14 177.298 627.579 175.817 626.152C162.125 612.977 141.475 605.846 123.475 611.976L123.994 599.817C124.044 598.626 124.063 597.326 123.341 596.375C122.712 595.549 121.666 595.179 120.679 594.85C114.73 592.873 108.78 590.894 102.83 588.917C103.056 587.937 103.284 586.96 103.51 585.98C111.545 581.632 122.76 592.763 129.804 586.95C132.384 584.822 133.07 581.183 133.229 577.844C133.507 571.938 132.574 566.135 130.819 560.507C133.74 559.83 136.934 565.758 139.519 567.778C144.936 572.012 150.845 575.745 156.47 579.701V579.706Z" fill="#2E67AE"/>
<path d="M119.057 588.964C112.788 585.863 106.519 582.762 100.25 579.663C93.276 576.214 85.644 572.03 83.2848 564.63C78.3576 570.226 69.252 571.578 62.904 567.654C58.092 564.68 54.3888 558.997 48.7296 558.925C43.9584 558.865 40.3056 562.893 36.9672 566.296C33.6288 569.698 28.8264 572.991 24.4344 571.134C22.9128 570.493 21.5568 569.253 19.9056 569.26C18.2304 569.268 16.8792 570.545 15.6072 571.631C7.51202 578.525 -4.85038 579.918 -14.2824 575.003C-22.1016 588.385 -34.9728 598.744 -49.7328 603.541C-46.8792 609.188 -47.568 616.067 -50.6472 621.553C-47.1264 618.793 -43.176 616.581 -38.9712 615.051C-36.9792 614.326 -34.2192 614.02 -33.2256 615.892C-32.3376 617.563 -33.6816 619.509 -34.9416 620.921C-42.0024 628.824 -49.0608 636.726 -56.1216 644.628V645.01C-42.8352 641.379 -37.2672 623.635 -23.988 619.655C-24.6624 624.104 -25.3368 628.552 -26.0088 633.001C-16.1016 622.807 -5.76718 613.028 4.95602 603.695C7.49522 601.485 10.1304 599.256 13.2912 598.096C16.452 596.936 20.2968 597.039 22.8696 599.21C22.0944 602.707 19.4952 605.477 16.968 608.02C9.41522 615.62 1.13042 623.693 -0.851978 634.146C2.30882 618.49 28.92 603.125 41.832 597.937C40.7448 600.502 38.0496 607.331 42.1416 608.664C45.6096 609.793 53.7528 600.932 56.0472 598.883C57.804 597.315 59.8128 595.703 62.1696 595.691C67.1232 595.665 69.096 601.992 69.6024 606.908C76.0896 602.988 84.1776 601.802 91.5192 603.692C92.6568 600.716 93.792 597.74 94.9296 594.764C102.245 605.342 108.24 616.828 112.733 628.874C108.487 615.57 110.904 600.322 119.054 588.973V588.964H119.057Z" fill="#628ECE"/>
<path d="M163.55 647.615C166.171 653.036 167.194 659.063 168.838 664.854C169.778 668.173 171.125 671.685 174.053 673.518C176.983 675.35 181.819 674.255 182.434 670.859C182.762 669.033 182.7 666.134 184.538 666.41C183.883 672.576 186.149 678.989 190.534 683.382C198.211 691.069 210.228 691.633 220.637 694.78C216.926 698.997 211.123 700.931 205.5 701.061C199.877 701.19 194.35 699.711 188.974 698.061C181.334 695.714 173.186 692.5 169.2 685.585C168.451 684.286 167.815 682.82 166.55 682.013C165.218 681.163 163.522 681.252 161.938 681.233C154.214 681.146 146.594 677.651 141.497 671.863C141.446 675.636 140.837 680.267 137.311 681.639C136.174 682.081 134.914 682.073 133.697 681.977C128.424 681.555 123.202 679.556 117.979 680.382C114.343 680.956 111.062 682.856 107.527 683.882C103.992 684.905 99.6791 684.828 97.2167 682.1C95.1479 679.806 95.0567 676.191 96.4031 673.414C97.7519 670.638 100.294 668.606 103.013 667.138C105.514 665.791 108.718 664.011 108.295 661.208C107.726 657.442 101.592 657.631 99.6695 654.341C98.2919 651.982 99.8711 648.792 102.259 647.461C104.647 646.131 107.53 646.15 110.266 646.203C113.002 646.256 115.884 646.268 118.267 644.927C119.39 644.296 120.348 643.388 121.498 642.802C125.141 640.947 129.61 642.797 132.823 645.319C136.037 647.843 138.809 651.103 142.615 652.599C143.738 653.041 145.015 653.31 146.138 652.871C148.416 651.98 148.735 648.838 148.056 646.491C143.174 629.646 159.072 638.346 163.55 647.61V647.615Z" fill="#0E3970"/>
<path d="M39.6984 677.669C37.3848 677.842 34.98 678.031 32.8152 677.2C30.6504 676.369 28.8144 674.179 29.2128 671.899C29.6568 669.358 32.388 668.039 34.5288 666.588C36.6672 665.138 38.5368 662.085 36.8016 660.171C36.0672 659.359 34.9176 659.092 33.8448 658.866C29.76 658.009 25.6776 657.151 21.5928 656.294C26.64 651.809 31.6872 647.325 36.7344 642.838C37.7496 641.937 38.8488 640.842 38.7816 639.487C38.7096 638.051 37.3488 637.045 36.0528 636.411C26.4888 631.744 14.988 636.033 5.96878 641.676C-3.05043 647.318 -11.6856 654.514 -22.2144 656.085C-26.064 656.659 -30.0168 656.443 -33.8256 657.247C-37.6344 658.052 -41.496 660.192 -42.8616 663.829C-44.0616 667.021 -43.1112 670.701 -44.2392 673.919C-45.1056 676.391 -47.0904 678.291 -49.0944 679.984C-51.3312 681.872 -53.6808 683.625 -56.124 685.242V695.702C-48.6192 690.93 -40.9008 686.493 -32.9952 682.417C-30.276 681.014 -26.9328 679.665 -24.3072 681.235C-33.3768 690.252 -42.4464 699.267 -51.5184 708.284C-52.9008 709.658 -51.8904 710.383 -52.9368 712.023C-47.9088 708.935 -42.8808 705.846 -37.8528 702.757C-31.3944 698.789 -24.852 694.754 -19.6608 689.236C-16.2792 685.643 -12.4512 681.029 -7.58403 681.872C-8.61123 688.559 -12.516 694.754 -18.1104 698.575C-19.836 699.752 -22.0008 701.46 -21.2568 703.408C-7.65363 697.893 5.05678 690.197 16.2384 680.705C18.8808 678.461 22.1904 675.949 25.4664 677.09C29.4936 678.492 29.7576 684.505 27.1944 687.906C24.6312 691.307 20.4576 693 16.9128 695.366C13.368 697.732 10.0968 701.681 11.052 705.829C18.3048 705.399 23.9568 699.401 27.7464 693.216C29.6592 690.096 31.38 686.736 34.2144 684.413C39.2424 680.296 46.428 680.436 52.9056 681.031C60.2304 681.704 67.8096 682.794 73.9512 686.834C64.8504 678.509 52.0152 676.749 39.7032 677.666H39.6984V677.669Z" fill="#648FCE"/>
<path d="M-4.93771 221.374C7.10789 224.959 21.2055 219.871 28.1871 209.422C23.0511 211.666 17.8767 213.919 12.4119 215.162C6.94709 216.406 1.11029 216.588 -4.17451 214.718C5.26229 213.977 13.7991 206.606 15.9111 197.381C12.7575 198.826 9.54389 200.287 6.10469 200.743C2.66549 201.199 -1.09531 200.51 -3.61051 198.12C-6.12571 195.73 -6.90331 191.419 -4.73371 188.714C-3.29611 186.922 -0.970512 186.146 1.22309 185.46C8.93669 183.043 16.6527 180.626 24.3663 178.21C18.0015 177.79 10.7127 174.95 5.81429 169.759C22.6839 171.898 40.4031 162.247 47.3247 147.288C38.8047 149.539 30.2847 151.79 21.7647 154.039C38.1447 141.756 48.5727 122.215 50.8767 101.87C49.7319 105.809 47.5911 109.454 44.7087 112.375C41.8311 115.289 37.9743 117.54 33.8823 117.398C29.7903 117.257 25.6863 114.098 25.4967 110.009C30.7071 110.642 35.5239 107.131 38.9871 103.188C44.3007 97.1376 47.8647 89.6952 50.1159 81.9648C52.3671 74.2344 54.5583 65.4168 55.6143 56.6976C53.1927 37.704 54.4431 18.2496 59.0823 0.60004C59.6151 26.1528 61.0983 51.7248 64.8159 77.0112C65.6391 82.6224 66.6135 88.332 69.2943 93.3288C71.9751 98.3256 76.6887 102.564 82.3191 103.226C79.2015 107.282 76.0839 111.338 72.9663 115.397C68.9631 112.428 65.3319 108.955 62.6439 105.437C63.6111 113.674 67.2543 121.574 72.8943 127.656C78.5319 133.738 86.1351 137.969 94.2759 139.555C88.8687 142.409 82.4223 143.234 76.4703 141.835C70.5183 140.436 65.1159 136.819 62.3247 132.372C61.2663 138.389 63.3399 144.658 66.8967 149.626C70.4511 154.596 75.3759 158.419 80.4975 161.755C82.4895 163.054 84.5895 164.354 85.8687 166.358C87.5535 168.998 87.5031 172.342 88.2327 175.385C89.7039 181.517 94.3479 186.372 99.2631 190.322C105.189 195.089 111.784 199.02 118.794 201.967C115.326 204.54 110.099 198.85 106.432 201.13C104.79 202.152 104.14 204.511 102.292 205.082C98.5359 206.242 96.1647 198.898 92.3967 200.014C90.9663 200.436 90.1623 202.061 90.2127 203.551C90.2631 205.042 90.9759 206.424 91.7175 207.718C97.5687 217.937 106.108 226.31 114.674 234.391C120.479 239.868 127.288 245.64 135.011 245.388L138.534 244.98C133.353 249.007 128.173 253.037 122.992 257.064C121.907 257.909 120.765 258.778 119.414 259.034C117.489 259.399 115.574 258.444 113.918 257.398C111.282 255.734 108.846 253.757 106.674 251.522C105.558 253.486 105.832 256.147 107.327 257.842C100.878 257.842 94.4295 258.497 87.5607 260.081C93.6399 266.832 101.301 271.927 108.822 277.025C116.344 282.122 123.914 287.393 129.705 294.394C135.498 301.394 139.389 310.447 138.316 319.471C138.988 317.933 140.293 316.682 141.861 316.075C137.236 322.205 137.351 331.464 142.127 337.476C136.758 338.23 131.2 337.584 126.146 335.626C126.81 345.096 128.668 354.482 131.658 363.492C124.674 361.404 118.05 358.114 112.168 353.808C110.248 359.364 112.463 366.074 117.314 369.396C121.211 372.065 126.952 373.241 128.234 377.789C123.299 378.814 118.17 379.925 114.21 383.04C110.25 386.155 107.874 391.91 109.631 396.204C122.505 413.016 148.614 414.626 162.004 431.03C165.426 435.223 167.805 440.165 170.97 444.557C174.136 448.949 178.425 452.95 184.014 453.866C173.81 460.169 165.851 470.03 161.769 481.073C173.399 488.93 183.594 498.907 191.699 510.367C188.848 509.102 185.997 507.838 183.146 506.573C188.63 512.712 192.698 520.111 194.939 528.031C194.435 526.399 191.831 526.486 190.785 527.834C189.738 529.183 189.808 531.06 189.926 532.762C190.442 540.242 190.958 547.723 191.474 555.204C185.262 553.855 179.051 552.509 172.842 551.16C173.63 557.33 173.949 564.722 169.026 568.526C166.161 570.742 162.314 571.018 158.769 571.762C155.224 572.506 151.36 574.238 150.309 577.704C160.221 578.105 168.69 584.983 175.072 592.577C181.454 600.17 186.65 608.878 194.248 615.254C190.732 614.21 187.218 613.166 183.702 612.122C189.203 621.036 199.715 626.609 210.179 626.158C209.718 630.833 209.238 635.597 207.376 639.912C205.514 644.227 202.014 648.098 197.445 649.193C193.127 650.227 188.517 648.626 184.962 645.967C181.408 643.308 178.715 639.684 176.078 636.113C176.469 641.131 176.86 646.152 177.251 651.17C171.28 644.599 163.473 639.715 154.953 637.222C156.642 644.165 162.393 649.961 169.324 651.701C173.164 652.666 177.693 652.69 180.254 655.711C182.44 658.291 182.27 662.028 182.598 665.393C183.378 673.344 187.78 680.866 194.325 685.445C200.872 690.022 209.447 691.572 217.182 689.578" stroke="black" stroke-width="1.2" stroke-linecap="round" stroke-linejoin="round"/>
<path d="M0.588078 225.105C12.7441 227.234 25.8337 223.022 34.4665 214.202C36.8833 211.732 40.1329 208.653 43.2265 210.194C45.4273 211.288 45.9889 214.178 45.8353 216.63C45.4969 222.076 42.8761 227.344 38.7385 230.898C32.5537 236.21 23.9545 237.338 16.0825 239.459C8.21048 241.581 -0.244722 245.884 -2.33032 253.766" stroke="black" stroke-width="1.2" stroke-linecap="round" stroke-linejoin="round"/>
</svg>
