<svg width="187" height="48" viewBox="0 0 187 48" fill="none" xmlns="http://www.w3.org/2000/svg">
<mask id="mask0_2226_12126" style="mask-type:luminance" maskUnits="userSpaceOnUse" x="0" y="0" width="187" height="48">
<path d="M186.114 0H0V47.8837H186.114V0Z" fill="white"/>
</mask>
<g mask="url(#mask0_2226_12126)">
<path d="M117.916 24.0924C117.916 29.5438 117.916 34.9977 117.916 40.449C117.916 40.7539 117.921 41.0614 117.877 41.3615C117.778 42.0547 117.441 42.3524 116.743 42.3572C115.248 42.367 113.753 42.362 112.256 42.362C108.268 42.362 104.28 42.3694 100.292 42.3596C95.2164 42.3449 90.6253 38.631 89.5737 33.6288C88.774 29.8196 89.6293 26.3837 92.2314 23.4848C93.5544 22.0109 95.3084 21.1715 97.2105 20.6762C99.3763 20.11 101.591 20.1808 103.798 20.1881C105.034 20.193 106.269 20.1881 107.505 20.1881C108.821 20.1881 109.857 19.683 110.514 18.4946C111.178 17.2916 111.083 16.0984 110.408 14.9515C109.976 14.2194 109.288 13.8022 108.46 13.668C107.948 13.585 107.425 13.5533 106.907 13.5508C103.2 13.5411 99.4952 13.5484 95.7881 13.546C94.3951 13.546 93.9711 13.114 93.9687 11.7036C93.9663 10.2639 93.9615 8.8242 93.9711 7.3845C93.9806 6.23516 94.3587 5.86914 95.5022 5.86914C102.417 5.86914 109.329 5.86914 116.244 5.86914C117.635 5.86914 117.918 6.14487 117.918 7.53823C117.921 13.0555 117.918 18.5727 117.918 24.0924H117.916ZM104.019 34.6878C105.254 34.6878 106.487 34.6902 107.723 34.6878C109.62 34.6804 110.95 33.3455 110.97 31.4349C110.991 29.4339 109.688 28.0602 107.733 28.0503C105.286 28.0381 102.836 28.0381 100.389 28.0503C98.5404 28.0578 97.3461 29.0899 97.1642 30.9372C96.9656 32.977 98.068 34.6926 100.377 34.6902C101.591 34.6902 102.802 34.6902 104.016 34.6902L104.019 34.6878Z" fill="#4141FC"/>
<path d="M186.114 24.1656C186.114 29.6829 186.114 35.2026 186.114 40.7198C186.114 42.1473 185.9 42.3646 184.515 42.3646C179.226 42.3646 173.937 42.3255 168.65 42.3766C163.734 42.4232 158.721 38.78 157.75 33.2236C157.125 29.6536 157.909 26.3569 160.376 23.6093C162.077 21.7157 164.291 20.7787 166.765 20.4224C169.762 19.9905 172.781 20.2516 175.788 20.1954C178.324 20.1491 179.884 17.7992 178.903 15.4371C178.499 14.4635 177.74 13.8876 176.723 13.6631C176.255 13.5581 175.778 13.546 175.3 13.546C171.572 13.5484 167.846 13.5484 164.117 13.546C162.615 13.546 162.249 13.1702 162.246 11.6426C162.246 10.2029 162.242 8.7632 162.246 7.3235C162.251 6.201 162.581 5.86914 163.671 5.86914C170.673 5.86914 177.673 5.86914 184.674 5.86914C185.842 5.86914 186.114 6.14487 186.114 7.3479C186.114 12.953 186.114 18.5581 186.114 24.1632V24.1656ZM172.306 28.0455C171.158 28.0455 170.007 28.1089 168.865 28.0285C166.879 27.887 165.236 29.3852 165.401 31.6227C165.529 33.3774 166.736 34.6705 168.475 34.6804C171.007 34.695 173.542 34.695 176.073 34.6804C177.958 34.6705 179.153 33.3798 179.155 31.391C179.155 29.3413 178 28.0748 176.073 28.0455C174.818 28.0285 173.563 28.0431 172.306 28.0431V28.0455Z" fill="#4141FC"/>
<path d="M124.279 24.0953C124.279 18.644 124.279 13.1926 124.279 7.74126C124.279 7.43624 124.279 7.12877 124.325 6.82865C124.422 6.2064 124.775 5.86964 125.432 5.87209C130.394 5.87941 135.366 5.70128 140.318 5.92822C146.385 6.2064 151.31 10.096 152.703 16.2843C153.035 17.7582 153.186 19.2418 153.183 20.7523C153.171 27.3605 153.178 33.966 153.176 40.574C153.176 40.857 153.193 41.1472 153.14 41.4207C153.028 41.9966 152.694 42.36 152.071 42.36C150.186 42.3627 148.301 42.3627 146.416 42.36C145.856 42.36 145.52 42.0501 145.42 41.5159C145.357 41.1768 145.35 40.8227 145.35 40.4763C145.345 33.783 145.353 27.087 145.345 20.3936C145.34 17.1701 143.497 14.5494 140.533 13.8051C137.975 13.1633 134.997 13.7075 133.282 16.0745C132.504 17.1482 132.126 18.3585 132.124 19.6811C132.119 26.6379 132.121 33.5925 132.119 40.5495C132.119 40.8107 132.131 41.0741 132.1 41.3329C132.02 41.9844 131.625 42.3552 130.975 42.36C129.112 42.3699 127.249 42.3627 125.384 42.3651C124.792 42.3651 124.446 42.0552 124.344 41.4915C124.286 41.1741 124.281 40.8424 124.281 40.5154C124.279 35.0421 124.279 29.5687 124.279 24.0953Z" fill="#4141FC"/>
<path d="M71.2598 42.3623C68.27 42.3623 65.2778 42.3623 62.2881 42.3623C61.2147 42.3623 60.9603 42.1742 60.764 41.0933C60.357 38.8433 59.9887 36.5888 59.5963 34.3364C59.0244 31.0543 58.4429 27.7748 57.8761 24.4927C57.4012 21.7475 56.9431 18.9999 56.4709 16.2522C55.9814 13.4436 55.4848 10.6349 54.9977 7.8263C54.9469 7.52615 54.9153 7.21868 54.9153 6.91611C54.9201 6.29142 55.2423 5.89611 55.853 5.88879C57.825 5.86195 59.7973 5.87172 61.7696 5.8839C62.426 5.88879 62.6441 6.39634 62.7605 6.92098C62.9615 7.83362 63.1264 8.75599 63.2886 9.67839C63.7007 12.0161 64.1027 14.3538 64.5097 16.6915C65.1614 20.4225 65.8083 24.1535 66.4674 27.8846C66.6636 28.9998 66.872 30.1125 67.1023 31.2202C67.5213 33.2407 69.1713 34.6171 71.2088 34.6732C73.1616 34.7269 74.9571 33.4141 75.4657 31.4815C75.9552 29.6268 76.1756 27.7186 76.5173 25.8324C77.1158 22.5113 77.6972 19.1878 78.2787 15.8642C78.7416 13.2045 79.1923 10.5447 79.6477 7.88485C79.6671 7.77749 79.6743 7.66767 79.6937 7.56031C79.9553 6.03277 80.1491 5.86682 81.6684 5.86682C83.2503 5.86682 84.8326 5.86195 86.4145 5.86927C87.4007 5.87414 87.8053 6.27434 87.6575 7.23576C87.2893 9.62226 86.8724 12.0039 86.4656 14.3855C85.9033 17.6675 85.334 20.9496 84.7648 24.2316C84.2849 26.9988 83.7954 29.7659 83.3157 32.5331C82.8385 35.2784 82.366 38.0235 81.8912 40.7688C81.8646 40.9202 81.8404 41.0689 81.8088 41.2178C81.6173 42.1061 81.3267 42.3548 80.4302 42.3548C77.375 42.3599 74.3198 42.3548 71.2622 42.3548L71.2598 42.3623Z" fill="#4141FC"/>
<path d="M45.1954 23.7033C42.8751 21.6057 39.6657 19.9827 39.0967 17.941C38.7245 16.6056 43.3996 15.2219 40.1961 13.2168C39.1834 12.5819 38.4969 11.7792 38.3732 11.0227C38.034 8.95971 40.8826 8.98479 41.743 7.49306C42.5106 6.16152 41.3205 3.2919 39.926 2.64735C37.6096 1.57631 35.4648 2.94453 33.999 2.48911C32.5814 2.04911 32.5157 1.81947 31.0305 1.78859C28.4228 1.73263 26.0254 4.81064 23.682 3.66436C22.0522 2.86348 21.6838 0.391418 19.5525 0.269842C18.6634 0.219667 17.8128 0.621066 17.2072 1.27141C15.994 2.57402 15.832 4.38224 15.8146 6.09009C15.7992 7.54131 15.8609 9.03305 15.3768 10.4032C14.8097 12.003 13.5097 13.404 13.5425 15.1023C13.5676 16.4898 14.5069 17.7075 15.6063 18.5527C15.7741 18.682 15.9477 18.8036 16.1232 18.9232C15.3363 19.2745 14.8251 20.193 14.3777 20.9901C12.3891 24.5235 9.13532 27.3276 5.34533 28.7711C4.1572 29.2225 2.90545 29.5526 1.84078 30.2472C0.776103 30.9402 -0.0956934 32.1133 0.0084593 33.3812C0.0894671 34.3615 0.71824 35.1952 1.10785 36.0965C1.91021 37.9589 2.02787 40.5736 4.05885 41.0984C5.00971 41.3437 6.00882 40.9787 6.66844 40.2514C8.0938 38.6785 8.0398 36.6312 8.39855 34.7147C8.67243 33.25 9.31471 31.6965 10.659 31.0519C11.2415 30.7721 11.9012 30.6949 12.4933 30.4403C14.829 29.4366 15.3748 26.1677 17.5756 24.8921C18.7309 24.2224 20.2488 24.2861 22.0734 24.9789C20.2449 24.0468 19.2015 22.5513 17.1724 22.5513C15.8127 22.5513 15.0431 24.0661 14.3989 25.6003C13.3979 27.9818 11.6061 29.4869 9.86438 29.7609C9.1797 29.8689 9.0408 29.2166 9.58473 29.0972C11.4884 28.6745 12.8983 27.0978 13.6486 24.6605C14.3912 22.2483 15.6912 21.0788 16.6343 20.7604C18.0153 20.2953 19.5757 20.8839 20.6481 21.872C20.6538 21.8778 20.6596 21.8835 20.6673 21.8893C20.8834 22.09 21.2035 21.8063 21.0222 21.5709C20.1717 20.4709 19.3712 20.1873 18.862 18.985C18.3104 17.6785 19.024 16.7271 19.6991 15.4805C19.9961 14.9305 20.4128 14.4442 20.6211 13.8537C20.9412 12.9486 20.949 11.9663 20.8024 11.0169C20.65 10.0327 19.784 9.69496 19.784 10.4013C19.784 11.1616 19.8033 12.0918 19.3519 12.9023C18.7482 13.9868 18.0828 13.267 18.2718 12.6553C18.6113 11.5495 19.0356 10.3742 18.1966 9.65445C16.8369 8.48885 16.9121 8.00831 16.7886 6.99326C16.6575 5.90678 16.6845 4.20084 17.2361 2.85385C17.8822 1.27719 19.5101 0.817902 20.6346 1.73649C21.9924 2.84419 22.6964 4.11207 22.7485 4.65818C23.0108 7.41008 19.6451 7.52588 20.9258 8.80725C21.6607 9.5425 24.9646 7.84043 27.065 8.5062C27.5223 8.65094 27.9984 8.89796 28.1181 9.15848C28.7315 10.4978 26.0273 9.63322 28.0912 11.8293C29.2156 13.0277 26.6696 12.5395 24.5287 13.5584C22.5209 14.5156 21.678 15.2643 21.3154 17.1015C20.8583 19.4154 23.1998 19.0371 23.7649 18.9599C26.6542 18.5662 23.5219 21.816 23.113 22.5107C22.7215 23.1746 22.8661 24.2861 23.626 24.3961C24.3918 24.5042 24.8065 23.9523 25.468 24.3479C25.792 24.5428 25.8981 24.7821 25.8731 25.0446C25.8287 25.5135 26.2222 25.9072 26.6909 25.8802H26.7063C26.9012 25.8686 27.0825 25.7856 27.2194 25.6447C27.5877 25.2646 28.2377 24.4347 27.8828 23.5644C27.5685 22.7944 25.2327 21.8546 25.6127 20.4922C25.846 19.6508 27.2888 19.1664 29.4759 19.3324C30.8877 19.4404 32.0565 19.2262 32.994 18.105C33.8464 17.0822 34.0721 15.3396 36.0665 15.3396C38.9191 15.3396 38.8266 17.9564 38.6357 17.8869C36.9479 17.2656 36.0375 18.2073 36.0125 18.1841C34.9113 17.1922 33.781 17.8194 32.9342 19.0352C31.5591 21.0074 29.8309 20.0097 29.1345 21.3065C28.5406 22.4123 29.5222 23.6184 28.8857 24.701C28.7488 24.9326 28.2957 25.2896 28.4403 25.4845C28.6525 25.7721 30.0952 24.5852 31.6322 25.2124C33.3394 25.9091 33.5784 24.4579 33.484 23.0819C33.4298 22.2965 34.4598 22.0592 35.216 22.2213C36.4291 22.4818 37.3666 23.7091 37.6346 25.3746C37.762 26.1658 37.6519 27.0342 38.0725 27.7155C38.3655 28.1919 38.8922 28.5202 39.0831 29.0469C39.2934 29.6279 39.035 30.2608 38.8882 30.8609C38.1456 33.9023 40.8826 37.2236 44.0112 37.2004C47.1395 37.1773 50.347 33.0763 50.9971 30.0139C52.6556 22.1807 46.964 25.3032 45.1895 23.7014L45.1954 23.7033ZM38.0396 7.7034C33.914 8.45217 31.1714 12.223 30.67 16.2235C30.4615 17.8773 28.9631 17.4026 29.121 15.7159C29.3621 13.1531 32.5928 9.6853 34.5369 8.36725C37.1699 6.5822 36.5951 5.86046 35.3433 5.928C33.748 6.01292 32.3479 7.39657 31.3565 7.00483C30.3132 6.59377 31.2235 5.36835 30.3536 4.76241C29.1385 3.91521 26.8549 5.17732 27.3465 4.12173C27.7826 3.18962 30.7702 3.38453 31.6072 4.10241C32.3652 4.75275 32.8589 5.68872 34.2997 5.15609C35.5882 4.67941 37.3568 2.61647 39.0214 3.06033C41.1275 3.6219 41.6714 7.04343 38.0396 7.7034ZM47.0682 27.6285C46.2695 28.1709 44.821 27.5396 44.0941 26.8123C42.983 25.7007 42.7304 26.0075 42.8501 26.9068C43.1625 29.2246 40.7728 28.8596 41.1836 32.0091C41.2163 32.2525 40.869 32.3373 40.7919 32.1038C40.2442 30.4268 40.8653 30.0735 40.8653 28.7325C40.8653 25.8512 42.9445 28.4409 41.0254 25.0909C40.2248 23.6937 41.7353 23.0897 42.2598 23.9388C42.987 25.114 46.8616 28.0395 46.8443 25.0986C46.8443 24.8786 47.153 24.8246 47.2243 25.033C47.5638 26.021 48.0054 26.9898 47.0661 27.6266L47.0682 27.6285Z" fill="#4141FC"/>
<path d="M33.1384 27.0639C32.0196 26.1279 30.9202 26.1511 30.0406 26.4328C28.866 26.8091 28.3396 27.7779 28.2375 27.9554C27.4428 29.3198 27.3404 30.9641 27.2574 32.5405C27.0511 36.4619 27.3712 44.0267 26.6385 43.9456C25.9402 43.8685 26.2237 39.8276 26.0289 36.6279C25.512 28.1927 24.7945 28.4417 23.7607 27.6388C22.6439 26.7705 20.7017 26.4405 19.5676 26.8495C19.5637 26.8495 19.5599 26.8535 19.556 26.8535C18.8347 27.0522 19.0603 27.4518 19.747 27.5289C20.7673 27.6409 21.4809 28.2855 21.5831 28.9048C21.7355 29.8311 21.1414 30.6901 19.2899 30.4429C17.7796 30.2402 16.3369 30.5201 16.3369 32.0274C16.4295 34.4995 18.0381 36.4388 17.9648 39.1636C17.9378 40.1229 17.7758 41.1763 18.3197 41.9677C18.8308 42.7107 19.7933 42.9635 20.5339 43.4748C21.4539 44.1116 22.0133 45.1345 22.6825 46.0357C23.3518 46.9349 24.2776 47.7899 25.3982 47.7994C26.756 47.8111 27.7783 46.6164 29.0051 46.0376C29.1843 45.9527 29.3523 45.8833 29.5201 45.8216C29.9731 45.6556 30.2704 45.2175 30.2818 44.7349C30.2837 44.6442 30.2837 44.5535 30.2818 44.4726C30.2393 43.5115 29.9635 42.5793 29.7187 41.6512C29.2441 39.8449 28.8913 37.9325 29.1787 36.1089C29.1978 35.9852 29.3773 35.9988 29.3773 36.1222C29.3869 38.0445 29.8825 39.9665 30.8122 41.6493C31.038 42.0585 31.3735 42.504 31.8422 42.4963C32.1065 42.4926 32.3495 42.3343 32.5192 42.1316C33.0708 41.4756 32.8587 40.5975 32.5 39.8199C32.2105 39.1945 31.7497 38.3339 31.4719 37.2145C31.4429 37.0988 31.6069 37.0389 31.6609 37.1451C32.4226 38.6428 33.4449 39.5573 34.0062 39.789C34.363 39.9356 34.7642 39.7329 34.8567 39.3586C35.3853 37.2339 35.8463 35.0706 35.6764 32.8938C35.4837 30.4334 35.0304 28.6481 33.1384 27.0639Z" fill="#4141FC"/>
</g>
</svg>
