<svg width="205" height="57" viewBox="0 0 205 57" fill="none" xmlns="http://www.w3.org/2000/svg">
<g clip-path="url(#clip0_3083_6892)">
<path d="M37.3837 50.7366C38.2066 49.8667 39.9643 48.4865 41.3859 47.5948C41.5628 47.4846 41.7939 47.5393 41.9034 47.7181C42.0125 47.8972 41.9583 48.1317 41.7817 48.2426C40.4054 49.1059 38.7122 50.4324 37.9261 51.2632C35.8002 53.5122 35.6594 54.3402 35.6976 54.5917C35.7054 54.6437 35.7242 54.6852 35.776 54.724C35.8005 54.7382 35.8292 54.759 35.8507 54.7677C36.6341 55.092 37.5538 54.9011 38.5826 54.1999C41.3879 52.2886 43.9068 47.382 43.9068 45.8757C43.9068 45.5944 43.7974 45.4268 43.5407 45.3142C42.2467 44.7481 38.5854 46.0711 37.2634 47.3308C37.1117 47.4745 36.8744 47.4669 36.7319 47.3141C36.5897 47.1607 36.5969 46.9196 36.7483 46.7758C37.0793 46.4605 37.5623 46.1321 38.1245 45.8238L37.0909 42.4824C35.763 45.229 33.5933 47.4499 30.8492 48.8942C32.0986 50.5956 33.8942 52.9014 35.0158 54.0606C35.2439 53.2638 36.0146 52.1847 37.3837 50.7366Z" fill="#97F0E5"/>
<path d="M26.6453 8.5549C26.4355 8.57232 26.2547 8.42252 26.2343 8.21341C25.9075 4.86142 24.454 2.53914 21.9145 1.31062C20.2271 0.512846 18.2764 0.58435 16.5654 1.50975C14.5189 2.61619 13.0653 4.79074 12.6767 7.32671C12.467 8.69624 12.2847 10.2715 12.0737 12.0956C11.7656 14.7587 11.3842 18.0523 10.7344 22.3518C12.5726 22.1897 15.7593 22.3713 18.0195 23.9545C18.1901 24.0741 18.233 24.3112 18.1149 24.4843C17.9968 24.6573 17.7624 24.7004 17.5921 24.581C15.3197 22.9894 11.9858 22.9361 10.374 23.1564C9.61585 23.2599 5.67015 23.9637 2.44045 27.6705C0.830844 29.5117 0.335752 31.844 1.1156 33.9091C1.58986 35.1644 2.48865 36.0454 3.4053 36.1521C4.16681 36.2435 4.89262 35.8053 5.50301 34.8914C5.57524 34.7829 5.7237 34.7033 5.85199 34.7047C6.13773 34.7137 6.24399 34.9395 6.47686 35.4342C6.74276 36 7.23803 37.0524 7.80437 37.2444C7.956 37.2956 8.10412 37.2787 8.27113 37.1903C8.56072 37.0344 8.65563 36.4313 8.7654 35.7329C8.94724 34.5755 9.19644 32.9904 10.5989 31.8317C11.1532 31.3905 11.8637 31.2753 12.8072 31.1603C13.0113 31.1325 13.2004 31.2836 13.2252 31.4926C13.2499 31.7016 13.1029 31.8913 12.8969 31.9163C12.0757 32.0164 11.464 32.1117 11.0686 32.4265C9.89358 33.3972 9.67956 34.7587 9.50758 35.8527C9.36627 36.7521 9.24403 37.5291 8.6213 37.8645C8.57272 37.8901 8.52414 37.9119 8.47557 37.932C8.22494 39.7214 8.08932 41.3624 7.98058 42.6907C7.84296 44.3716 7.78023 45.0662 7.60957 45.3686C6.32325 47.5882 6.57582 49.0048 8.47935 50.2613C9.68076 51.0737 11.7096 52.7515 13.1907 53.9768C13.5045 54.2363 13.7937 54.4757 14.045 54.6815C14.6157 55.1498 15.3224 55.3587 16.3367 55.3587H21.5297C21.5382 55.3494 21.6706 55.2236 21.7472 54.873C21.938 54.0007 21.6383 52.5 20.225 50.9043C19.5285 50.1227 18.5823 49.4728 17.9563 49.0432C17.7547 48.905 17.59 48.791 17.4795 48.7055C17.4789 48.7048 17.4783 48.7044 17.4777 48.7041C17.4776 48.7041 17.4778 48.7041 17.4777 48.7041C17.4767 48.7034 17.4751 48.702 17.4742 48.7013C17.4731 48.7006 17.4726 48.6992 17.4715 48.6982C17.4479 48.6795 17.4315 48.6545 17.4132 48.631C17.402 48.6164 17.3865 48.6047 17.3776 48.5891C17.3769 48.5877 17.3762 48.5866 17.3755 48.5856C17.3643 48.5652 17.3611 48.5416 17.3537 48.5194C17.3461 48.4962 17.3344 48.4747 17.3312 48.4508C17.3311 48.4498 17.3308 48.4488 17.3306 48.4474C17.3289 48.4339 17.3334 48.4197 17.3331 48.4058C17.333 48.3965 17.3343 48.3878 17.3348 48.3784C17.3361 48.3542 17.3333 48.3296 17.3394 48.3053C17.3399 48.3033 17.3409 48.3012 17.3415 48.2988C17.3419 48.2974 17.3415 48.2963 17.3418 48.2949L18.2301 45.1445C18.2872 44.9421 18.4944 44.8244 18.6947 44.8829C18.8942 44.9408 19.0098 45.1514 18.9528 45.3534L18.1387 48.2406C19.7755 49.3429 23.4779 50.3975 27.1801 49.4839C32.2638 48.2115 36.061 44.5358 37.3363 39.6514C38.117 36.6624 37.8487 33.6021 36.6484 30.8582C36.6395 30.8428 36.6286 30.8296 36.6221 30.8127C36.6184 30.8035 36.6201 30.7939 36.617 30.7846C35.8848 29.1372 34.8157 27.6057 33.4328 26.2751C32.2712 25.1313 31.2299 24.378 31.2195 24.3705C31.0504 24.2487 31.0107 24.011 31.1308 23.8395C31.2506 23.6676 31.4854 23.6277 31.6546 23.7494C31.6986 23.7812 32.7509 24.5418 33.9536 25.7257C35.325 27.0454 36.3971 28.5563 37.1625 30.1787C38.6375 29.5486 39.9169 28.7336 41.0586 27.6894C43.1051 25.8553 43.9982 23.4705 43.4507 21.3074C43.1098 19.9609 42.234 18.941 41.2199 18.7092C40.3536 18.5108 39.4567 18.9116 38.6951 19.8375C38.5888 19.9596 38.447 20.0125 38.3007 19.9863C38.0144 19.9349 37.9114 19.6727 37.6864 19.0979C37.4345 18.455 37.0128 17.3788 36.4554 17.1473C36.3007 17.0831 36.1442 17.0914 35.9615 17.1725C35.7423 17.2592 35.7286 17.6454 35.7232 18.2689C35.7123 19.5325 35.6956 21.4422 33.1676 22.6392C32.6065 22.9432 32.2321 23.0906 31.3003 23.0906C31.0928 23.0906 30.9246 22.92 30.9246 22.7097C30.9246 22.5376 31.0395 22.3977 31.1943 22.3506C31.0117 20.8752 30.5146 17.7933 30.5146 17.7933C30.5146 17.7933 31.2321 16.6162 31.1979 15.5429C31.1296 13.0847 30.3096 9.9687 27.4741 8.51457C27.3235 8.40014 27.1517 8.17243 26.9654 8.0005C26.9704 8.04692 26.9777 8.09154 26.9823 8.13827C27.0026 8.34773 26.8518 8.53428 26.6453 8.5549Z" fill="#97F0E5"/>
<path d="M43.8393 44.6141C42.7188 44.1232 40.5404 44.6675 38.8059 45.4781L37.5493 41.4169C37.7464 40.9076 37.9223 40.3869 38.0631 39.8489C38.8581 36.8037 38.6191 33.6917 37.4685 30.8772C39.0162 30.2142 40.3604 29.3566 41.5594 28.2601C43.8189 26.2352 44.7979 23.5662 44.1789 21.1206C43.7619 19.475 42.6915 18.2673 41.3848 17.9687C40.358 17.7332 39.3278 18.0954 38.4497 18.9836C38.4275 18.9283 38.4057 18.872 38.3849 18.8193C38.0696 18.0149 37.5933 16.7994 36.7404 16.4451C36.3944 16.301 36.0303 16.3121 35.6737 16.4714C34.9847 16.743 34.9783 17.5165 34.9714 18.2646C34.9612 19.4645 34.9483 20.9578 32.8316 21.9606C32.3561 22.2178 32.1116 22.3314 31.3002 22.3314C31.2626 22.3314 31.2284 22.3426 31.1942 22.353C31.0394 22.4002 30.9246 22.54 30.9246 22.7122C30.9246 22.9225 31.0927 23.0931 31.3002 23.0931C32.2321 23.0931 32.6064 22.9457 33.1676 22.6417C35.6955 21.4447 35.7122 19.535 35.7231 18.2714C35.7286 17.6479 35.7422 17.2618 35.9614 17.175C36.1441 17.0939 36.3006 17.0856 36.4554 17.1498C37.0128 17.3813 37.4345 18.4575 37.6864 19.1004C37.9114 19.6751 38.0143 19.9374 38.3007 19.9888C38.4469 20.015 38.5888 19.9621 38.6951 19.84C39.4563 18.9141 40.3536 18.5133 41.2198 18.7117C42.234 18.9435 43.1098 19.9634 43.4507 21.3099C43.9982 23.473 43.105 25.8578 41.0586 27.6919C39.9169 28.7361 38.6375 29.5511 37.1624 30.1812C36.3971 28.5588 35.325 27.0479 33.9536 25.7282C32.7508 24.5443 31.6986 23.7837 31.6545 23.7519C31.4854 23.6302 31.2505 23.6701 31.1307 23.842C31.0106 24.0134 31.0503 24.2511 31.2195 24.373C31.2298 24.3805 32.2711 25.1338 33.4328 26.2776C34.8157 27.6081 35.8847 29.1397 36.617 30.7871C36.6197 30.7964 36.6183 30.8059 36.6221 30.8152C36.6286 30.8321 36.6395 30.8453 36.6483 30.8607C37.8487 33.6045 38.1169 36.6648 37.3363 39.6542C36.0606 44.5382 32.2637 48.2139 27.18 49.4864C23.4778 50.4003 19.7754 49.3454 18.1387 48.243L18.9527 45.3558C19.0098 45.1539 18.8941 44.9432 18.6946 44.8854C18.4943 44.8268 18.2871 44.945 18.2301 45.1469L17.3418 48.2974C17.3414 48.2988 17.3418 48.2998 17.3415 48.3012C17.3409 48.3036 17.3399 48.3057 17.3393 48.3078C17.3333 48.332 17.3361 48.3566 17.3348 48.3812C17.3343 48.3903 17.3329 48.3993 17.3331 48.4083C17.3333 48.4221 17.3288 48.4363 17.3305 48.4498C17.3307 48.4512 17.331 48.4523 17.3312 48.4533C17.3344 48.4772 17.346 48.4987 17.3536 48.5219C17.3611 48.5441 17.3642 48.5676 17.3755 48.5881C17.3761 48.5891 17.3769 48.5901 17.3775 48.5915C17.3864 48.6071 17.4019 48.6189 17.4132 48.6334C17.4315 48.657 17.4478 48.6819 17.4714 48.7007C17.4725 48.7017 17.473 48.7031 17.4741 48.7038C17.4751 48.7045 17.4764 48.7055 17.4774 48.7062C17.4773 48.7062 17.4775 48.7065 17.4774 48.7062C17.478 48.7069 17.4788 48.7076 17.4794 48.7079C17.5899 48.7935 17.7546 48.9075 17.9562 49.0457C18.5823 49.4753 19.5285 50.1252 20.2249 50.9067C21.6382 52.5024 21.9379 54.0035 21.7471 54.8759C21.6705 55.2261 21.5381 55.3519 21.5296 55.3612H16.3366C15.3224 55.3612 14.6156 55.1523 14.0449 54.6839C13.7937 54.4781 13.5044 54.2388 13.1906 53.9793C11.7095 52.7539 9.68069 51.0762 8.47928 50.2638C6.57575 49.0072 6.32318 47.5907 7.60951 45.3711C7.78016 45.0686 7.84289 44.374 7.98051 42.6931C8.08926 41.3649 8.2249 39.7238 8.4755 37.9345C8.52408 37.9144 8.57265 37.8929 8.62123 37.8669C9.24396 37.5316 9.36624 36.7549 9.50751 35.8552C9.67949 34.7612 9.89351 33.3997 11.0686 32.429C11.4639 32.1142 12.0756 32.0189 12.8969 31.9188C13.1029 31.8938 13.2498 31.7041 13.2251 31.4951C13.2003 31.2862 13.0113 31.135 12.8071 31.1627C11.8636 31.2777 11.1531 31.393 10.5988 31.8342C9.1964 32.9929 8.94717 34.578 8.76533 35.7353C8.65556 36.4337 8.56066 37.0372 8.27106 37.1928C8.10408 37.2811 7.95593 37.2981 7.8043 37.2468C7.23796 37.0549 6.74269 36.0024 6.47679 35.4367C6.24392 34.9423 6.13766 34.7161 5.85192 34.7071C5.72364 34.7057 5.57517 34.7854 5.50294 34.8938C4.89255 35.8077 4.16674 36.246 3.40524 36.1545C2.48859 36.0478 1.5898 35.1672 1.11553 33.9116C0.335688 31.8464 0.830779 29.5142 2.44038 27.673C5.67008 23.9662 9.61578 23.2624 10.3739 23.1589C11.9857 22.9387 15.3197 22.9919 17.592 24.5835C17.7623 24.7029 17.9967 24.6598 18.1148 24.4868C18.2329 24.3137 18.1901 24.0766 18.0194 23.957C15.7592 22.3738 12.5725 22.1922 10.7343 22.3543C11.3841 18.0548 11.7655 14.7612 12.0736 12.0981C12.2847 10.274 12.467 8.6987 12.6767 7.32921C13.0652 4.79324 14.5188 2.61868 16.5653 1.51223C18.2763 0.586838 20.2271 0.515334 21.9144 1.3131C24.454 2.54163 25.9074 4.86391 26.2342 8.21591C26.2546 8.42502 26.4354 8.57482 26.6453 8.55739C26.8518 8.53678 27.0026 8.35029 26.9822 8.14084C26.9777 8.0941 26.9704 8.04945 26.9654 8.00306C26.5871 4.49097 24.9562 1.94046 22.2352 0.624357C20.3283 -0.277552 18.133 -0.198773 16.2115 0.840082C13.9576 2.0588 12.3585 4.44091 11.934 7.21222C11.7221 8.59591 11.5391 10.1778 11.3271 12.0093C11.0147 14.7109 10.6265 18.0621 9.95883 22.4542C8.6857 22.6828 4.96162 23.6285 1.87742 27.1684C0.078819 29.2258 -0.46833 31.8485 0.413617 34.1838C0.995639 35.7249 2.10896 36.7701 3.31919 36.9115C4.21583 37.0161 5.07391 36.6156 5.79506 35.7579C5.79604 35.7599 5.79724 35.7624 5.79823 35.7648C6.13436 36.4791 6.69684 37.6747 7.56597 37.9691C7.61281 37.9851 7.65992 37.9948 7.70694 38.0048C7.4682 39.7561 7.33191 41.4037 7.23148 42.6301C7.14424 43.695 7.05397 44.7963 6.95906 44.9893C6.02707 46.5978 5.12812 48.9605 8.06556 50.8998C9.2336 51.6893 11.2461 53.354 12.7154 54.5693C13.03 54.8298 13.3201 55.0695 13.5719 55.276C14.2761 55.8538 15.1545 56.1227 16.3366 56.1227H21.5295C21.8635 56.1227 22.1616 55.8809 22.3472 55.4589C22.7072 54.6413 22.7833 52.6556 20.7835 50.3971C20.6912 50.2936 20.5952 50.1927 20.497 50.0944C21.6219 50.4062 22.8984 50.5963 24.2271 50.5963C25.2569 50.5963 26.3168 50.4831 27.3591 50.226C28.3429 49.9797 29.2799 49.6464 30.1643 49.2366C31.1423 50.5735 34.2048 54.6808 35.4313 55.4021C35.4385 55.4062 35.4436 55.4121 35.4511 55.4159C35.4572 55.4194 35.464 55.4208 35.4705 55.4239C35.5033 55.4416 35.536 55.4589 35.5656 55.4714C35.9086 55.6131 36.2652 55.6837 36.6344 55.6837C37.3762 55.6837 38.1684 55.399 39.0023 54.8308C41.8635 52.8807 44.6582 47.7483 44.6582 45.8744C44.6582 45.2931 44.3674 44.8455 43.8393 44.6141ZM38.5826 54.1986C37.5538 54.8998 36.634 55.0906 35.8506 54.7664C35.8292 54.7574 35.8005 54.7369 35.776 54.7227C35.7242 54.6839 35.7054 54.6424 35.6976 54.5904C35.6594 54.3389 35.8002 53.5106 37.926 51.2618C38.7122 50.4311 40.4054 49.1046 41.7816 48.2413C41.9579 48.1304 42.0124 47.8959 41.9033 47.7168C41.7939 47.538 41.5628 47.4833 41.3858 47.5935C39.9643 48.4852 38.2063 49.8654 37.3837 50.7353C36.0143 52.1834 35.2438 53.2625 35.0158 54.0593C33.8941 52.9001 32.0985 50.5943 30.8491 48.8929C33.5932 47.4486 35.763 45.2276 37.0908 42.4811L38.1244 45.8225C37.5623 46.1308 37.0792 46.4592 36.7482 46.7745C36.5969 46.9183 36.5897 47.1594 36.7319 47.3128C36.8744 47.4656 37.1116 47.4732 37.2633 47.3295C38.5853 46.0698 42.2466 44.7468 43.5407 45.3129C43.7974 45.4255 43.9068 45.5931 43.9068 45.8744C43.9068 47.3807 41.3879 52.2873 38.5826 54.1986Z" fill="black"/>
<path d="M23.5177 8.28173C23.708 7.98996 24.0948 7.61169 24.8297 7.58412C25.7955 7.54455 27.0103 7.88655 27.0628 7.90142C27.5581 8.03549 28.033 8.27893 28.4797 8.60059C28.4807 8.60038 28.4822 8.60063 28.4832 8.60042C28.7803 8.5364 29.2689 8.28073 29.192 7.73641C29.1139 7.18346 28.9916 6.54914 28.9123 6.12715C28.8537 5.81595 28.7244 5.11982 28.0822 5.17937C27.4401 5.23896 25.3194 5.44658 25.0089 5.4999C24.4323 5.59891 24.186 5.94891 24.186 5.94891C24.186 5.94891 23.8983 5.567 23.0185 5.63528L20.063 5.86473C19.8309 5.88274 19.6047 5.93568 19.3886 6.02329C18.2064 6.50227 14.1773 8.12494 13.882 8.27279C13.4743 8.47698 12.3879 10.6325 13.4719 10.6325C14.0193 10.6325 14.2238 9.23114 14.5428 9.07687C14.7278 8.98745 15.2184 8.79813 15.4223 8.71751C15.5034 8.68547 15.5944 8.72243 15.632 8.8019L16.2499 10.1074C16.3546 10.3286 16.605 10.4366 16.8348 10.3597L19.028 9.7141C19.443 9.32062 19.9213 8.99899 20.4733 8.78586C22.0513 8.17652 23.0363 8.19918 23.5177 8.28173Z" fill="black"/>
<path d="M23.7503 8.03076L23.4905 6.69197C23.4905 6.69197 23.4699 6.32201 23.0804 6.35568L20.0537 6.61731C20.0537 6.61731 19.6778 6.60789 19.7621 7.05364L20.0156 8.39563C20.0156 8.39563 20.0321 8.72731 20.5565 8.67648L23.813 8.36074L23.7503 8.03076Z" fill="black"/>
<path d="M28.446 7.59142L28.2009 6.25027C28.1564 6.00683 27.9335 5.83992 27.6908 5.86839L25.0689 6.17599C25.0689 6.17599 24.6404 6.20343 24.7127 6.57976L24.963 7.88212C25.0074 8.1037 25.3439 8.23503 25.5455 8.23503C25.5455 8.23503 27.8613 8.00999 28.1576 7.98002C28.5147 7.94392 28.446 7.59142 28.446 7.59142Z" fill="black"/>
<path fill-rule="evenodd" clip-rule="evenodd" d="M22.5135 6.28943C22.6719 6.39291 22.7177 6.60725 22.6159 6.7682L21.0819 9.19324C20.98 9.35416 20.7691 9.40076 20.6107 9.29731C20.4524 9.19383 20.4065 8.97949 20.5083 8.81854L22.0424 6.3935C22.1442 6.23258 22.3551 6.18598 22.5135 6.28943Z" fill="white"/>
<path fill-rule="evenodd" clip-rule="evenodd" d="M27.2861 5.94372C27.4445 6.0472 27.4903 6.26154 27.3885 6.4225L25.8545 8.84754C25.7527 9.00846 25.5417 9.05505 25.3834 8.95161C25.225 8.84813 25.1792 8.63379 25.2809 8.47284L26.815 6.04779C26.9168 5.88687 27.1278 5.84028 27.2861 5.94372Z" fill="white"/>
<path d="M34.8226 12.1459C33.2832 11.1057 31.2851 10.5837 30.3249 10.3328C30.2254 10.3069 30.145 10.2856 30.0742 10.2663C29.6144 9.59371 29.0725 9.02483 28.4795 8.59778C28.0328 8.27612 27.5579 8.03268 27.0627 7.89861C27.0102 7.88375 25.7954 7.54175 24.8295 7.58131C24.0946 7.60885 23.7078 7.98716 23.5175 8.27892C23.0361 8.19637 22.0512 8.17378 20.4732 8.78313C19.9211 8.99625 19.4429 9.31788 19.0278 9.71136C17.9593 10.7243 17.3227 12.2294 17.0239 13.7033C16.0321 14.3765 15.0111 15.302 14.429 16.4818C14.3362 16.6698 14.4114 16.8987 14.5971 16.9927C14.651 17.0201 14.7083 17.0329 14.7647 17.0329C14.9027 17.0329 15.0353 16.9559 15.1012 16.8223C15.4991 16.016 16.1565 15.3224 16.8643 14.7583C16.8602 14.8002 16.8542 14.843 16.8506 14.8846C16.7327 16.1305 16.8643 17.0969 17.1246 17.8528C16.7093 18.4465 16.3379 19.1065 16.0858 19.8115C16.0151 20.0092 16.116 20.2276 16.3112 20.2992C16.3534 20.3148 16.3966 20.3221 16.4391 20.3221C16.5927 20.3221 16.737 20.2259 16.7924 20.0709C16.9661 19.5851 17.2118 19.1146 17.4935 18.669C17.9904 19.5152 18.6609 19.9724 19.1705 20.2122C19.3074 20.2767 19.4511 20.3307 19.5971 20.3804C21.5775 25.7603 22.0798 31.8188 22.4532 38.0811C22.5174 38.8384 23.078 39.4253 23.7576 39.4461C23.7688 39.4464 23.7802 39.4468 23.7915 39.4468C24.3468 39.4468 25.0399 39.0255 25.2156 37.8244C26.132 31.1913 26.105 24.9881 25.8665 21.4939C25.8988 21.4831 25.9319 21.4754 25.9641 21.4637C26.0951 21.4163 26.2204 21.3603 26.3421 21.2994C27.8798 25.9144 28.2037 29.1479 28.6057 33.203C28.7255 34.4101 28.849 35.6582 29.0134 37.0512C29.0982 37.8452 29.648 38.421 30.321 38.421H30.3226C30.9044 38.4199 31.5741 37.9595 31.7082 36.6697C32.6575 27.664 31.3374 19.8663 30.9678 17.9446C31.5739 17.2646 31.6417 16.4296 31.6417 15.5176C31.6537 14.9545 31.6026 14.3913 31.5062 13.8382C32.2011 14.2745 33.1921 14.9765 34.0249 15.9343C34.0989 16.0198 34.2028 16.0635 34.3068 16.0635C34.3951 16.0635 34.4841 16.0322 34.5553 15.9683C34.7108 15.8293 34.7258 15.5886 34.5887 15.4309C33.3755 14.0355 31.873 13.1588 31.2674 12.8107C31.1023 12.2491 30.89 11.7072 30.6319 11.2022C31.64 11.4776 33.1939 11.9608 34.4057 12.7796C34.4698 12.8228 34.542 12.8436 34.6136 12.8436C34.7353 12.8436 34.8543 12.7841 34.9266 12.6741C35.0418 12.4989 34.9951 12.2626 34.8226 12.1459ZM25.8051 20.7056C25.7505 20.0843 25.6895 19.585 25.6283 19.2237C25.899 19.0348 26.1616 18.835 26.4027 18.6124C26.545 18.7158 26.7058 18.7928 26.8459 18.848C27.0016 18.9093 27.1868 18.9617 27.3892 19.0026C27.0751 19.8373 26.5432 20.4081 25.8051 20.7056ZM30.8904 15.5094C30.8904 16.3897 30.8391 17.0361 30.2994 17.5471C30.1828 17.6526 30.0617 17.7434 29.9388 17.8225C29.8206 17.8965 29.689 17.9677 29.5398 18.0361C29.428 18.0874 29.3164 18.126 29.2051 18.1622C29.1324 18.1849 29.0612 18.2049 28.9914 18.2218C28.9556 18.2306 28.92 18.2388 28.8845 18.2463C28.7812 18.2679 28.682 18.2843 28.5901 18.2956C28.5477 18.3005 28.5055 18.3053 28.4638 18.3085C28.4047 18.3137 28.3485 18.3176 28.2974 18.3196C27.6972 18.3361 27.1899 18.1908 26.9325 18.0523C27.398 17.4647 28.2817 16.0368 27.7681 14.1282C27.7135 13.9253 27.5072 13.8048 27.3067 13.8611C27.1065 13.9164 26.9884 14.1257 27.0431 14.3287C27.5891 16.3579 26.2129 17.7395 26.154 17.7974C26.153 17.7983 26.1527 17.7997 26.1517 17.8007C26.15 17.8025 26.1477 17.8035 26.146 17.8053C25.8119 18.1518 25.4294 18.4598 25.017 18.7267L25.0162 18.7272C24.4279 19.0958 23.8149 19.3753 23.2036 19.571C23.1056 19.6014 23.0075 19.6311 22.9091 19.6572C22.8666 19.6688 22.8244 19.6781 22.782 19.6889C21.9499 19.893 21.1161 19.9368 20.3763 19.7979C20.29 19.7811 20.204 19.7635 20.12 19.7415C19.8984 19.685 19.6849 19.6145 19.4869 19.5214C18.8023 19.1991 18.2978 18.676 17.9758 17.9744C18.8787 16.7828 19.9548 15.8617 20.448 15.5089C20.6176 15.3877 20.658 15.15 20.5382 14.9782C20.4188 14.8064 20.1837 14.7652 20.0146 14.8868C19.9959 14.9 18.8095 15.7614 17.6923 17.1115C17.5558 16.4869 17.5222 15.7668 17.5991 14.9544C17.6217 14.6951 17.6556 14.4293 17.7008 14.1613C18.5586 13.6113 19.3735 13.258 19.786 13.1409C19.9858 13.0843 20.1025 12.874 20.0465 12.6715C19.9906 12.4689 19.7841 12.3511 19.5832 12.4076C19.3079 12.4858 18.676 12.7328 17.9312 13.1446C18.3805 11.5573 19.2681 10.0634 20.7407 9.49481C21.7786 9.09415 22.514 9.00082 22.9742 9.00082C23.3749 9.00082 23.5669 9.07167 23.5679 9.07198C23.5808 9.07756 23.5946 9.08248 23.6078 9.08653C23.613 9.08806 24.1226 9.24627 24.4981 9.56818C24.5977 9.65354 24.7096 9.76277 24.8275 9.87755C25.345 10.381 25.8791 10.9012 26.3994 10.6628C26.8532 10.4539 26.7998 9.91018 26.7571 9.47319C26.7347 9.24648 26.7072 8.96452 26.7602 8.83907C26.826 8.68339 26.9 8.65533 26.9346 8.65141C27.9254 8.93275 28.8332 9.71621 29.5298 10.772C29.5359 10.7843 29.5438 10.7946 29.5511 10.8061C30.0009 11.4961 30.3608 12.2988 30.5935 13.1567C30.5959 13.167 30.5992 13.1765 30.6025 13.1867C30.8025 13.9351 30.907 14.7227 30.8904 15.5094Z" fill="black"/>
<path d="M28.1644 19.0844C27.8538 20.0636 27.3208 20.6198 26.9988 20.8825C28.6148 25.6727 28.9417 28.9709 29.3534 33.1259C29.4729 34.3293 29.5963 35.5737 29.7601 36.9639C29.8085 37.4167 30.0851 37.6582 30.321 37.6582H30.3216C30.6423 37.6578 30.8932 37.2376 30.9609 36.588C31.843 28.2208 30.743 20.9111 30.3049 18.4902C29.4839 19.0069 28.6375 19.0837 28.1644 19.0844Z" fill="white"/>
<path d="M24.9353 19.6562C23.4565 20.4628 21.8617 20.797 20.4765 20.5979C22.3495 25.9518 22.8371 31.8997 23.2026 38.0281C23.2378 38.4425 23.5267 38.6794 23.7805 38.6874H23.7945C24.1251 38.6874 24.3838 38.3181 24.4716 37.7181C25.591 29.6134 25.2946 22.1917 24.9353 19.6562Z" fill="white"/>
<path d="M63.7488 42.6103H57.6125V34.2959H55.5671V25.9814H53.5217V19.7456H51.4763V13.5098L55.5671 13.5098V19.7456H57.6125V25.9814H59.6579V36.3745H61.7033V30.1386H63.7488V19.7456H65.7942V13.5098H71.9304V19.7456H73.9758V30.1386H76.0212V36.3745H78.1092V25.9814H80.112V19.7456H82.1574V13.5098H85.7369V19.7456H84.2029V25.9814H82.1574V34.2959H80.112V42.6103H73.9758V38.4531H71.9304V30.1386H69.885V19.7456H67.8396V30.1386H65.7942V38.4531H63.7488V42.6103Z" fill="black"/>
<path d="M89.3162 42.6103H85.2254V36.3745H87.2708V30.1386H89.3162V23.9028H91.3616V17.667H93.407V13.5098H99.5433V17.667H101.589V23.9028H103.634V30.1386H105.68V36.3745H107.725V42.6103H103.634V36.3745H89.3162V42.6103ZM91.3616 32.2172H101.589V30.1386H99.5433V23.9028H97.5047V19.8219H95.4136L95.4525 23.9028H93.407V30.1386H91.3616V32.2172Z" fill="black"/>
<path d="M130.224 42.6103H110.793V13.5098H114.884V38.4531H130.224V42.6103Z" fill="black"/>
<path d="M137.383 42.6103H133.292V13.5098H151.701V15.5884H153.747V17.667H155.792V27.0207H153.747V29.0993H151.701V31.1779H153.747V33.2566H155.792V42.6103H151.701V35.3352H149.656V33.2566H147.61V31.1779H137.383V42.6103ZM137.383 27.0207H149.656V24.9421H151.701V19.7456H149.656V17.667H137.383V27.0207Z" fill="black"/>
<path d="M175.223 42.6103H162.951V40.5317H160.906V38.4531H158.86V13.5098H162.951V36.3745H164.996V38.4531H173.178V36.3745H175.223V13.5098H179.314V38.4531H177.269V40.5317H175.223V42.6103Z" fill="black"/>
<path d="M200.791 42.6103H186.473V40.5317H184.428V38.4531H182.382V34.2959H186.473V36.3745H188.519V38.4531H198.746V36.3745H200.791V32.2172H198.746V30.1386H188.519V28.06H184.428V25.9814H182.382V17.667H184.428V15.5884H186.473V13.5098H200.791V15.5884H202.836V17.667H204.882V21.8242H200.791V19.7456H198.746V17.667H188.519V19.7456H186.473V23.9028H188.519V25.9814H198.746V28.06H202.836V30.1386H204.882V38.4531H202.836V40.5317H200.791V42.6103Z" fill="black"/>
</g>
<defs>
<clipPath id="clip0_3083_6892">
<rect width="204.882" height="56.1224" fill="white"/>
</clipPath>
</defs>
</svg>
