<svg width="69" height="24" viewBox="0 0 69 24" fill="none" xmlns="http://www.w3.org/2000/svg">
<mask id="mask0_3597_498" style="mask-type:luminance" maskUnits="userSpaceOnUse" x="0" y="0" width="69" height="24">
<path d="M68.5854 0H0V23.6598H68.5854V0Z" fill="white"/>
</mask>
<g mask="url(#mask0_3597_498)">
<path d="M10.5016 14.0611C10.8757 14.0611 11.198 14.1678 11.4698 14.3802C11.741 14.5931 11.8769 14.8676 11.8769 15.2032C11.8769 15.3704 11.834 15.5833 11.7493 15.8413C11.6656 16.0999 11.5589 16.332 11.4302 16.5389C10.9664 17.3266 10.3794 17.9076 9.66977 18.2817C8.95956 18.6558 8.08156 18.8428 7.03577 18.8428C5.83539 18.8428 4.7896 18.5523 3.89785 17.9714C3.00719 17.3905 2.32668 16.5647 1.85578 15.4936C1.38487 14.4214 1.14941 13.1759 1.14941 11.7572C1.14941 10.3488 1.38157 9.12921 1.84697 8.09772C2.31183 7.06514 2.98574 6.2746 3.86924 5.72558C4.75384 5.1771 5.81559 4.90259 7.05557 4.90259C7.95888 4.90259 8.77857 5.04782 9.51354 5.33829C10.2496 5.62875 10.8278 6.02925 11.2475 6.53976C11.6667 7.04918 11.8769 7.61966 11.8769 8.25176C11.8769 8.81949 11.7052 9.2849 11.362 9.64688C11.0198 10.0078 10.5786 10.1882 10.0373 10.1882C9.48273 10.1882 9.03713 10.0364 8.70155 9.7327C8.36542 9.42903 8.19764 9.02579 8.19764 8.52242C8.19764 8.25121 8.2488 7.9932 8.35167 7.74784C8.06836 7.5674 7.65521 7.47718 7.11279 7.47718C6.11926 7.47718 5.40299 7.81606 4.96289 8.49381C4.52389 9.17157 4.30494 10.2399 4.30494 11.6978C4.30494 13.2205 4.54369 14.3637 5.0223 15.1261C5.50036 15.8875 6.24249 16.2682 7.24922 16.2682C7.72563 16.2682 8.12557 16.162 8.44849 15.9491C8.77087 15.7351 9.04923 15.4023 9.28248 14.9501C9.44972 14.6024 9.62026 14.3681 9.7952 14.2459C9.96959 14.1227 10.205 14.0611 10.5016 14.0611Z" fill="white"/>
<path d="M19.9497 18.8428C18.6717 18.8428 17.5742 18.5721 16.6577 18.0308C15.7407 17.4884 15.0404 16.7072 14.5562 15.6873C14.0721 14.6679 13.8301 13.4549 13.8301 12.0476C13.8301 10.5881 14.0842 9.3201 14.5937 8.24296C15.1042 7.16471 15.8402 6.33897 16.803 5.76519C17.7651 5.1903 18.8978 4.90259 20.2005 4.90259C21.4664 4.90259 22.5573 5.17435 23.4727 5.71678C24.3892 6.2581 25.0901 7.03873 25.5742 8.05811C26.0583 9.07805 26.3003 10.2911 26.3003 11.6978C26.3003 13.1561 26.0418 14.4214 25.5258 15.4936C25.0092 16.5647 24.2737 17.3905 23.3187 17.9714C22.3636 18.5523 21.2403 18.8428 19.9497 18.8428ZM19.9695 16.2682C22.0732 16.2682 23.125 14.7515 23.125 11.7176C23.125 10.2713 22.8791 9.20348 22.3878 8.51362C21.8977 7.82266 21.1561 7.47718 20.1631 7.47718C18.0462 7.47718 16.9878 8.98783 16.9878 12.008C16.9878 13.4664 17.2326 14.5408 17.7228 15.2318C18.2124 15.9227 18.9617 16.2682 19.9695 16.2682Z" fill="white"/>
<path d="M40.2604 5.09644C40.53 5.09644 40.749 5.1641 40.9162 5.29888C41.0845 5.43421 41.1692 5.65041 41.1692 5.94803V6.79963C41.1692 7.09615 41.0845 7.31565 40.9162 7.45758C40.749 7.60006 40.53 7.67103 40.2604 7.67103H39.97V17.6811C39.97 17.9661 39.8759 18.1982 39.6883 18.3787C39.5002 18.5591 39.2713 18.6494 39.0018 18.6494H37.5494C37.4069 18.6494 37.2744 18.6174 37.1511 18.5525C37.029 18.4882 36.9294 18.3979 36.8519 18.2819L32.0107 10.4393V16.0748H32.321C32.5922 16.0748 32.8117 16.1463 32.979 16.2882C33.1462 16.429 33.2298 16.6485 33.2298 16.9462V17.7978C33.2298 18.0943 33.1462 18.3105 32.979 18.4469C32.8117 18.5822 32.5922 18.6494 32.321 18.6494H29.1259C28.8426 18.6494 28.6165 18.5822 28.4481 18.4469C28.2809 18.3105 28.1973 18.0943 28.1973 17.7978V16.9462C28.1973 16.6485 28.2809 16.429 28.4481 16.2882C28.6165 16.1463 28.8426 16.0748 29.1259 16.0748H29.4163V7.67103H29.1259C28.8426 7.67103 28.6165 7.60006 28.4481 7.45758C28.2809 7.31565 28.1973 7.09615 28.1973 6.79963V5.94803C28.1973 5.65041 28.2809 5.43421 28.4481 5.29888C28.6165 5.1641 28.8426 5.09644 29.1259 5.09644H31.8171C32.1147 5.09644 32.3474 5.21911 32.5147 5.46392L37.3558 13.2867V7.67103H37.0653C36.7935 7.67103 36.5707 7.60006 36.3964 7.45758C36.2214 7.31565 36.1345 7.09615 36.1345 6.79963V5.94803C36.1345 5.65041 36.2214 5.43421 36.3964 5.29888C36.5707 5.1641 36.7935 5.09644 37.0653 5.09644H40.2604Z" fill="white"/>
<path d="M48.4119 10.4589C49.5853 10.833 50.4853 11.2015 51.1119 11.5635C51.7379 11.9244 52.1835 12.3535 52.4476 12.8508C52.7128 13.347 52.8459 13.9819 52.8459 14.7565C52.8459 15.531 52.6324 16.2286 52.2056 16.8491C51.7798 17.4686 51.1895 17.9554 50.4341 18.3103C49.6783 18.6651 48.8366 18.8428 47.908 18.8428C46.9265 18.8428 46.0606 18.7108 45.3114 18.4467C44.5632 18.1815 43.979 17.8102 43.5598 17.3332C43.1417 16.8552 42.9326 16.3067 42.9326 15.6873C42.9326 15.1195 43.1032 14.6552 43.4453 14.2943C43.787 13.9324 44.2287 13.7508 44.77 13.7508C45.3257 13.7508 45.768 13.9027 46.0969 14.2063C46.427 14.5089 46.5921 14.9055 46.5921 15.3968C46.5921 15.5904 46.5596 15.7967 46.4952 16.0151C46.8693 16.184 47.2819 16.2682 47.7341 16.2682C49.0764 16.2682 49.7476 15.8231 49.7476 14.9325C49.7476 14.686 49.6953 14.4891 49.5913 14.3406C49.4885 14.1926 49.3014 14.0539 49.0302 13.9247C48.7585 13.7959 48.3393 13.6474 47.7715 13.4802C46.6361 13.1182 45.7322 12.7402 45.0605 12.3469C44.3899 11.9541 43.8964 11.4964 43.5796 10.9738C43.2638 10.4501 43.1065 9.81357 43.1065 9.06375C43.1065 8.25121 43.3221 7.52889 43.7534 6.89625C44.1858 6.26415 44.7926 5.77399 45.5732 5.42631C46.355 5.07753 47.2555 4.90259 48.2754 4.90259C49.1144 4.90259 49.8664 5.04122 50.531 5.31848C51.1955 5.59575 51.7176 5.97643 52.0977 6.46055C52.479 6.94466 52.6699 7.49038 52.6699 8.09772C52.6699 8.67866 52.5015 9.14681 52.1659 9.50165C51.8315 9.85538 51.387 10.032 50.8324 10.032C50.2895 10.032 49.8499 9.88398 49.5143 9.58747C49.1782 9.2915 49.0104 8.89156 49.0104 8.38819C49.0104 8.14173 49.0489 7.92168 49.127 7.72804C48.9081 7.5608 48.5274 7.47718 47.985 7.47718C47.4172 7.47718 46.9782 7.59381 46.6691 7.82706C46.3594 8.05921 46.2048 8.38104 46.2048 8.79308C46.2048 9.06485 46.2653 9.28765 46.3874 9.46204C46.5106 9.63698 46.723 9.79816 47.0256 9.94615C47.3292 10.0947 47.7913 10.2652 48.4119 10.4589Z" fill="white"/>
<path d="M61.0151 18.8428C59.7372 18.8428 58.6397 18.5721 57.7232 18.0308C56.8061 17.4884 56.1058 16.7072 55.6217 15.6873C55.1376 14.6679 54.8955 13.4549 54.8955 12.0476C54.8955 10.5881 55.1497 9.3201 55.6591 8.24296C56.1696 7.16471 56.9057 6.33897 57.8684 5.76519C58.8306 5.1903 59.9633 4.90259 61.266 4.90259C62.5318 4.90259 63.6227 5.17435 64.5381 5.71678C65.4546 6.2581 66.1555 7.03873 66.6396 8.05811C67.1237 9.07805 67.3658 10.2911 67.3658 11.6978C67.3658 13.1561 67.1072 14.4214 66.5912 15.4936C66.0746 16.5647 65.3391 17.3905 64.3841 17.9714C63.4291 18.5523 62.3057 18.8428 61.0151 18.8428ZM61.0349 16.2682C63.1386 16.2682 64.1904 14.7515 64.1904 11.7176C64.1904 10.2713 63.9445 9.20348 63.4533 8.51362C62.9631 7.82266 62.2215 7.47718 61.2286 7.47718C59.1117 7.47718 58.0532 8.98783 58.0532 12.008C58.0532 13.4664 58.298 14.5408 58.7882 15.2318C59.2778 15.9227 60.0271 16.2682 61.0349 16.2682Z" fill="white"/>
</g>
</svg>
