<svg width="262" height="189" viewBox="0 0 262 189" fill="none" xmlns="http://www.w3.org/2000/svg">
<path d="M102.537 9.21733H100.944C100.898 8.95597 100.814 8.72443 100.692 8.52273C100.57 8.31818 100.418 8.14489 100.236 8.00284C100.055 7.8608 99.8472 7.75426 99.6142 7.68324C99.3841 7.60938 99.1355 7.57244 98.8685 7.57244C98.394 7.57244 97.9736 7.69176 97.6071 7.9304C97.2406 8.16619 96.9537 8.51278 96.7463 8.97017C96.5389 9.42472 96.4352 9.98011 96.4352 10.6364C96.4352 11.304 96.5389 11.8665 96.7463 12.3239C96.9565 12.7784 97.2435 13.1222 97.6071 13.3551C97.9736 13.5852 98.3926 13.7003 98.8642 13.7003C99.1256 13.7003 99.3699 13.6662 99.5972 13.598C99.8273 13.527 100.033 13.4233 100.215 13.2869C100.4 13.1506 100.555 12.983 100.68 12.7841C100.807 12.5852 100.895 12.358 100.944 12.1023L102.537 12.1108C102.478 12.5256 102.349 12.9148 102.15 13.2784C101.954 13.642 101.697 13.9631 101.378 14.2415C101.06 14.517 100.688 14.733 100.262 14.8892C99.8358 15.0426 99.3628 15.1193 98.8429 15.1193C98.0758 15.1193 97.3912 14.9418 96.7889 14.5866C96.1866 14.2315 95.7122 13.7188 95.3656 13.0483C95.019 12.3778 94.8457 11.5739 94.8457 10.6364C94.8457 9.69602 95.0205 8.89205 95.3699 8.22443C95.7193 7.55398 96.1952 7.04119 96.7974 6.68608C97.3997 6.33097 98.0815 6.15341 98.8429 6.15341C99.3287 6.15341 99.7804 6.22159 100.198 6.35795C100.616 6.49432 100.988 6.6946 101.314 6.95881C101.641 7.22017 101.91 7.54119 102.12 7.92188C102.333 8.29972 102.472 8.73153 102.537 9.21733ZM103.917 15V8.45455H105.413V9.54545H105.481C105.6 9.16761 105.805 8.87642 106.095 8.67188C106.387 8.46449 106.721 8.3608 107.096 8.3608C107.181 8.3608 107.276 8.36506 107.382 8.37358C107.49 8.37926 107.579 8.3892 107.65 8.40341V9.82244C107.585 9.79972 107.481 9.77983 107.339 9.76278C107.2 9.7429 107.065 9.73295 106.934 9.73295C106.653 9.73295 106.4 9.79403 106.176 9.91619C105.954 10.0355 105.779 10.2017 105.651 10.4148C105.524 10.6278 105.46 10.8736 105.46 11.152V15H103.917ZM111.303 15.1278C110.647 15.1278 110.08 14.9915 109.603 14.7188C109.128 14.4432 108.763 14.054 108.508 13.5511C108.252 13.0455 108.124 12.4503 108.124 11.7656C108.124 11.0923 108.252 10.5014 108.508 9.9929C108.766 9.48153 109.127 9.08381 109.59 8.79972C110.053 8.51278 110.597 8.36932 111.222 8.36932C111.626 8.36932 112.006 8.43466 112.364 8.56534C112.725 8.69318 113.043 8.89205 113.319 9.16193C113.597 9.43182 113.816 9.77557 113.975 10.1932C114.134 10.608 114.214 11.1023 114.214 11.6761V12.1491H108.849V11.1094H112.735C112.732 10.8139 112.668 10.5511 112.543 10.321C112.418 10.0881 112.243 9.90483 112.019 9.77131C111.797 9.63778 111.539 9.57102 111.243 9.57102C110.928 9.57102 110.651 9.64773 110.412 9.80114C110.174 9.9517 109.988 10.1506 109.854 10.3977C109.724 10.642 109.657 10.9105 109.654 11.2031V12.1108C109.654 12.4915 109.724 12.8182 109.863 13.0909C110.002 13.3608 110.197 13.5682 110.447 13.7131C110.697 13.8551 110.989 13.9261 111.324 13.9261C111.549 13.9261 111.752 13.8949 111.934 13.8324C112.116 13.767 112.273 13.6719 112.407 13.5469C112.54 13.4219 112.641 13.267 112.709 13.0824L114.15 13.2443C114.059 13.625 113.886 13.9574 113.63 14.2415C113.377 14.5227 113.053 14.7415 112.658 14.8977C112.263 15.0511 111.812 15.1278 111.303 15.1278ZM117.402 15.1321C116.987 15.1321 116.614 15.0582 116.281 14.9105C115.952 14.7599 115.691 14.5384 115.497 14.2457C115.307 13.9531 115.212 13.5923 115.212 13.1634C115.212 12.794 115.28 12.4886 115.416 12.2472C115.553 12.0057 115.739 11.8125 115.975 11.6676C116.21 11.5227 116.476 11.4134 116.772 11.3395C117.07 11.2628 117.378 11.2074 117.696 11.1733C118.08 11.1335 118.391 11.098 118.629 11.0668C118.868 11.0327 119.041 10.9815 119.149 10.9134C119.26 10.8423 119.316 10.733 119.316 10.5852V10.5597C119.316 10.2386 119.22 9.99006 119.03 9.81392C118.84 9.63778 118.566 9.54972 118.208 9.54972C117.83 9.54972 117.53 9.6321 117.308 9.79688C117.09 9.96165 116.942 10.1562 116.865 10.3807L115.425 10.1761C115.539 9.77841 115.726 9.44602 115.987 9.17898C116.249 8.90909 116.568 8.70739 116.946 8.57386C117.324 8.4375 117.742 8.36932 118.199 8.36932C118.514 8.36932 118.828 8.40625 119.141 8.48011C119.453 8.55398 119.739 8.67614 119.997 8.84659C120.256 9.0142 120.463 9.2429 120.62 9.53267C120.779 9.82244 120.858 10.1847 120.858 10.6193V15H119.375V14.1009H119.324C119.23 14.2827 119.098 14.4531 118.928 14.6122C118.76 14.7685 118.549 14.8949 118.293 14.9915C118.04 15.0852 117.743 15.1321 117.402 15.1321ZM117.803 13.9986C118.112 13.9986 118.381 13.9375 118.608 13.8153C118.835 13.6903 119.01 13.5256 119.132 13.321C119.257 13.1165 119.32 12.8935 119.32 12.652V11.8807C119.272 11.9205 119.189 11.9574 119.073 11.9915C118.959 12.0256 118.831 12.0554 118.689 12.081C118.547 12.1065 118.406 12.1293 118.267 12.1491C118.128 12.169 118.007 12.1861 117.905 12.2003C117.675 12.2315 117.469 12.2827 117.287 12.3537C117.105 12.4247 116.962 12.5241 116.857 12.652C116.752 12.777 116.699 12.9389 116.699 13.1378C116.699 13.4219 116.803 13.6364 117.01 13.7812C117.218 13.9261 117.482 13.9986 117.803 13.9986ZM125.678 8.45455V9.64773H121.915V8.45455H125.678ZM122.844 6.88636H124.387V13.0312C124.387 13.2386 124.418 13.3977 124.48 13.5085C124.546 13.6165 124.631 13.6903 124.736 13.7301C124.841 13.7699 124.958 13.7898 125.085 13.7898C125.182 13.7898 125.27 13.7827 125.35 13.7685C125.432 13.7543 125.495 13.7415 125.537 13.7301L125.797 14.9361C125.715 14.9645 125.597 14.9957 125.443 15.0298C125.293 15.0639 125.108 15.0838 124.889 15.0895C124.503 15.1009 124.155 15.0426 123.845 14.9148C123.536 14.7841 123.29 14.5824 123.108 14.3097C122.929 14.0369 122.841 13.696 122.844 13.2869V6.88636ZM126.968 15V8.45455H128.511V15H126.968ZM127.743 7.52557C127.499 7.52557 127.289 7.4446 127.113 7.28267C126.937 7.1179 126.849 6.92045 126.849 6.69034C126.849 6.45739 126.937 6.25994 127.113 6.09801C127.289 5.93324 127.499 5.85085 127.743 5.85085C127.991 5.85085 128.201 5.93324 128.374 6.09801C128.55 6.25994 128.638 6.45739 128.638 6.69034C128.638 6.92045 128.55 7.1179 128.374 7.28267C128.201 7.4446 127.991 7.52557 127.743 7.52557ZM135.943 8.45455L133.612 15H131.908L129.577 8.45455H131.222L132.726 13.3168H132.794L134.303 8.45455H135.943ZM139.686 15.1278C139.03 15.1278 138.463 14.9915 137.986 14.7188C137.511 14.4432 137.146 14.054 136.89 13.5511C136.635 13.0455 136.507 12.4503 136.507 11.7656C136.507 11.0923 136.635 10.5014 136.89 9.9929C137.149 9.48153 137.51 9.08381 137.973 8.79972C138.436 8.51278 138.98 8.36932 139.605 8.36932C140.008 8.36932 140.389 8.43466 140.747 8.56534C141.108 8.69318 141.426 8.89205 141.702 9.16193C141.98 9.43182 142.199 9.77557 142.358 10.1932C142.517 10.608 142.596 11.1023 142.596 11.6761V12.1491H137.231V11.1094H141.118C141.115 10.8139 141.051 10.5511 140.926 10.321C140.801 10.0881 140.626 9.90483 140.402 9.77131C140.18 9.63778 139.922 9.57102 139.626 9.57102C139.311 9.57102 139.034 9.64773 138.795 9.80114C138.557 9.9517 138.371 10.1506 138.237 10.3977C138.106 10.642 138.04 10.9105 138.037 11.2031V12.1108C138.037 12.4915 138.106 12.8182 138.246 13.0909C138.385 13.3608 138.579 13.5682 138.829 13.7131C139.079 13.8551 139.372 13.9261 139.707 13.9261C139.932 13.9261 140.135 13.8949 140.317 13.8324C140.498 13.767 140.656 13.6719 140.79 13.5469C140.923 13.4219 141.024 13.267 141.092 13.0824L142.533 13.2443C142.442 13.625 142.268 13.9574 142.013 14.2415C141.76 14.5227 141.436 14.7415 141.041 14.8977C140.646 15.0511 140.194 15.1278 139.686 15.1278ZM146.946 15V6.27273H150.219C150.889 6.27273 151.452 6.39773 151.906 6.64773C152.364 6.89773 152.709 7.24148 152.942 7.67898C153.178 8.11364 153.296 8.60795 153.296 9.16193C153.296 9.72159 153.178 10.2187 152.942 10.6534C152.706 11.0881 152.358 11.4304 151.898 11.6804C151.438 11.9276 150.871 12.0511 150.198 12.0511H148.029V10.7514H149.985C150.377 10.7514 150.698 10.6832 150.948 10.5469C151.198 10.4105 151.382 10.223 151.502 9.98438C151.624 9.74574 151.685 9.47159 151.685 9.16193C151.685 8.85227 151.624 8.57955 151.502 8.34375C151.382 8.10795 151.196 7.92472 150.943 7.79403C150.693 7.66051 150.371 7.59375 149.976 7.59375H148.527V15H146.946ZM154.601 15V8.45455H156.096V9.54545H156.165C156.284 9.16761 156.488 8.87642 156.778 8.67188C157.071 8.46449 157.405 8.3608 157.78 8.3608C157.865 8.3608 157.96 8.36506 158.065 8.37358C158.173 8.37926 158.263 8.3892 158.334 8.40341V9.82244C158.268 9.79972 158.165 9.77983 158.023 9.76278C157.883 9.7429 157.748 9.73295 157.618 9.73295C157.336 9.73295 157.084 9.79403 156.859 9.91619C156.638 10.0355 156.463 10.2017 156.335 10.4148C156.207 10.6278 156.143 10.8736 156.143 11.152V15H154.601ZM161.944 15.1278C161.305 15.1278 160.751 14.9872 160.282 14.706C159.813 14.4247 159.45 14.0312 159.191 13.5256C158.936 13.0199 158.808 12.429 158.808 11.7528C158.808 11.0767 158.936 10.4844 159.191 9.97585C159.45 9.46733 159.813 9.07244 160.282 8.79119C160.751 8.50994 161.305 8.36932 161.944 8.36932C162.583 8.36932 163.137 8.50994 163.606 8.79119C164.075 9.07244 164.437 9.46733 164.693 9.97585C164.951 10.4844 165.08 11.0767 165.08 11.7528C165.08 12.429 164.951 13.0199 164.693 13.5256C164.437 14.0312 164.075 14.4247 163.606 14.706C163.137 14.9872 162.583 15.1278 161.944 15.1278ZM161.953 13.892C162.299 13.892 162.589 13.7969 162.822 13.6065C163.055 13.4134 163.228 13.1548 163.342 12.831C163.458 12.5071 163.517 12.1463 163.517 11.7486C163.517 11.348 163.458 10.9858 163.342 10.6619C163.228 10.3352 163.055 10.0753 162.822 9.8821C162.589 9.68892 162.299 9.59233 161.953 9.59233C161.598 9.59233 161.302 9.68892 161.066 9.8821C160.833 10.0753 160.659 10.3352 160.542 10.6619C160.428 10.9858 160.372 11.348 160.372 11.7486C160.372 12.1463 160.428 12.5071 160.542 12.831C160.659 13.1548 160.833 13.4134 161.066 13.6065C161.302 13.7969 161.598 13.892 161.953 13.892ZM169.705 8.45455V9.64773H165.836V8.45455H169.705ZM166.803 15V7.83665C166.803 7.39631 166.894 7.02983 167.076 6.73722C167.261 6.4446 167.508 6.22585 167.817 6.08097C168.127 5.93608 168.471 5.86364 168.849 5.86364C169.116 5.86364 169.353 5.88494 169.56 5.92756C169.768 5.97017 169.921 6.00852 170.02 6.04261L169.714 7.2358C169.648 7.21591 169.566 7.19602 169.466 7.17614C169.367 7.15341 169.256 7.14205 169.134 7.14205C168.847 7.14205 168.644 7.21165 168.525 7.35085C168.408 7.48722 168.35 7.68324 168.35 7.93892V15H166.803ZM170.913 15V8.45455H172.456V15H170.913ZM171.689 7.52557C171.444 7.52557 171.234 7.4446 171.058 7.28267C170.882 7.1179 170.794 6.92045 170.794 6.69034C170.794 6.45739 170.882 6.25994 171.058 6.09801C171.234 5.93324 171.444 5.85085 171.689 5.85085C171.936 5.85085 172.146 5.93324 172.319 6.09801C172.496 6.25994 172.584 6.45739 172.584 6.69034C172.584 6.92045 172.496 7.1179 172.319 7.28267C172.146 7.4446 171.936 7.52557 171.689 7.52557ZM175.585 6.27273V15H174.042V6.27273H175.585ZM180.069 15.1278C179.412 15.1278 178.846 14.9915 178.368 14.7188C177.894 14.4432 177.529 14.054 177.273 13.5511C177.018 13.0455 176.89 12.4503 176.89 11.7656C176.89 11.0923 177.018 10.5014 177.273 9.9929C177.532 9.48153 177.893 9.08381 178.356 8.79972C178.819 8.51278 179.363 8.36932 179.988 8.36932C180.391 8.36932 180.772 8.43466 181.13 8.56534C181.491 8.69318 181.809 8.89205 182.084 9.16193C182.363 9.43182 182.582 9.77557 182.741 10.1932C182.9 10.608 182.979 11.1023 182.979 11.6761V12.1491H177.614V11.1094H181.501C181.498 10.8139 181.434 10.5511 181.309 10.321C181.184 10.0881 181.009 9.90483 180.785 9.77131C180.563 9.63778 180.305 9.57102 180.009 9.57102C179.694 9.57102 179.417 9.64773 179.178 9.80114C178.939 9.9517 178.753 10.1506 178.62 10.3977C178.489 10.642 178.422 10.9105 178.42 11.2031V12.1108C178.42 12.4915 178.489 12.8182 178.628 13.0909C178.768 13.3608 178.962 13.5682 179.212 13.7131C179.462 13.8551 179.755 13.9261 180.09 13.9261C180.314 13.9261 180.518 13.8949 180.699 13.8324C180.881 13.767 181.039 13.6719 181.172 13.5469C181.306 13.4219 181.407 13.267 181.475 13.0824L182.915 13.2443C182.824 13.625 182.651 13.9574 182.395 14.2415C182.143 14.5227 181.819 14.7415 181.424 14.8977C181.029 15.0511 180.577 15.1278 180.069 15.1278Z" fill="black"/>
<path d="M214.956 72.4517C214.916 72.0795 214.749 71.7897 214.453 71.5823C214.161 71.375 213.78 71.2713 213.311 71.2713C212.982 71.2713 212.699 71.321 212.463 71.4204C212.228 71.5198 212.047 71.6548 211.922 71.8252C211.797 71.9957 211.733 72.1903 211.73 72.409C211.73 72.5909 211.772 72.7485 211.854 72.8821C211.939 73.0156 212.054 73.1292 212.199 73.223C212.344 73.3139 212.505 73.3906 212.681 73.4531C212.857 73.5156 213.034 73.5681 213.213 73.6108L214.032 73.8153C214.361 73.892 214.678 73.9957 214.982 74.1264C215.289 74.2571 215.563 74.4218 215.804 74.6207C216.049 74.8196 216.242 75.0596 216.384 75.3409C216.526 75.6221 216.597 75.9517 216.597 76.3295C216.597 76.8409 216.466 77.2911 216.205 77.6804C215.943 78.0667 215.566 78.3693 215.071 78.588C214.58 78.8039 213.985 78.9119 213.286 78.9119C212.607 78.9119 212.017 78.8068 211.517 78.5965C211.02 78.3863 210.631 78.0795 210.35 77.6761C210.071 77.2727 209.921 76.7812 209.898 76.2017H211.453C211.476 76.5056 211.57 76.7585 211.735 76.9602C211.899 77.1619 212.114 77.3125 212.378 77.4119C212.645 77.5113 212.943 77.561 213.273 77.561C213.617 77.561 213.918 77.5099 214.176 77.4076C214.438 77.3025 214.642 77.1576 214.79 76.973C214.938 76.7855 215.013 76.5667 215.016 76.3167C215.013 76.0894 214.946 75.9019 214.816 75.7542C214.685 75.6036 214.502 75.4786 214.266 75.3792C214.033 75.2769 213.76 75.186 213.448 75.1065L212.455 74.8508C211.736 74.6661 211.168 74.3863 210.75 74.0113C210.335 73.6335 210.128 73.1321 210.128 72.5071C210.128 71.9929 210.267 71.5426 210.546 71.1562C210.827 70.7698 211.209 70.4701 211.692 70.2571C212.175 70.0411 212.722 69.9332 213.333 69.9332C213.952 69.9332 214.495 70.0411 214.96 70.2571C215.429 70.4701 215.797 70.767 216.064 71.1477C216.331 71.5255 216.469 71.9602 216.478 72.4517H214.956ZM220.793 78.9076C220.154 78.9076 219.6 78.767 219.131 78.4858C218.663 78.2045 218.299 77.811 218.04 77.3054C217.785 76.7997 217.657 76.2088 217.657 75.5326C217.657 74.8565 217.785 74.2642 218.04 73.7556C218.299 73.2471 218.663 72.8522 219.131 72.571C219.6 72.2897 220.154 72.1491 220.793 72.1491C221.432 72.1491 221.986 72.2897 222.455 72.571C222.924 72.8522 223.286 73.2471 223.542 73.7556C223.8 74.2642 223.93 74.8565 223.93 75.5326C223.93 76.2088 223.8 76.7997 223.542 77.3054C223.286 77.811 222.924 78.2045 222.455 78.4858C221.986 78.767 221.432 78.9076 220.793 78.9076ZM220.802 77.6718C221.148 77.6718 221.438 77.5767 221.671 77.3863C221.904 77.1931 222.077 76.9346 222.191 76.6108C222.307 76.2869 222.366 75.9261 222.366 75.5284C222.366 75.1278 222.307 74.7656 222.191 74.4417C222.077 74.115 221.904 73.8551 221.671 73.6619C221.438 73.4687 221.148 73.3721 220.802 73.3721C220.447 73.3721 220.151 73.4687 219.915 73.6619C219.682 73.8551 219.508 74.115 219.391 74.4417C219.278 74.7656 219.221 75.1278 219.221 75.5284C219.221 75.9261 219.278 76.2869 219.391 76.6108C219.508 76.9346 219.682 77.1931 219.915 77.3863C220.151 77.5767 220.447 77.6718 220.802 77.6718ZM228.094 78.9076C227.441 78.9076 226.88 78.7642 226.411 78.4772C225.945 78.1903 225.585 77.794 225.333 77.2883C225.083 76.7798 224.958 76.1946 224.958 75.5326C224.958 74.8679 225.085 74.2812 225.341 73.7727C225.597 73.2613 225.958 72.8636 226.424 72.5795C226.892 72.2926 227.446 72.1491 228.085 72.1491C228.617 72.1491 229.087 72.2471 229.496 72.4431C229.908 72.6363 230.236 72.9105 230.48 73.2656C230.725 73.6179 230.864 74.0298 230.898 74.5014H229.424C229.364 74.186 229.222 73.9233 228.997 73.713C228.776 73.5 228.479 73.3934 228.107 73.3934C227.791 73.3934 227.514 73.4786 227.276 73.6491C227.037 73.8167 226.851 74.0582 226.718 74.3735C226.587 74.6889 226.522 75.0667 226.522 75.5071C226.522 75.9531 226.587 76.3366 226.718 76.6576C226.848 76.9758 227.032 77.2215 227.267 77.3948C227.506 77.5653 227.786 77.6505 228.107 77.6505C228.334 77.6505 228.537 77.6079 228.716 77.5227C228.898 77.4346 229.05 77.3082 229.172 77.1434C229.294 76.9786 229.378 76.7784 229.424 76.5426H230.898C230.861 77.0056 230.725 77.4161 230.489 77.7741C230.253 78.1292 229.932 78.4076 229.526 78.6093C229.12 78.8082 228.642 78.9076 228.094 78.9076ZM232.165 78.7798V72.2343H233.707V78.7798H232.165ZM232.94 71.3054C232.696 71.3054 232.486 71.2244 232.31 71.0625C232.133 70.8977 232.045 70.7002 232.045 70.4701C232.045 70.2372 232.133 70.0397 232.31 69.8778C232.486 69.713 232.696 69.6306 232.94 69.6306C233.187 69.6306 233.398 69.713 233.571 69.8778C233.747 70.0397 233.835 70.2372 233.835 70.4701C233.835 70.7002 233.747 70.8977 233.571 71.0625C233.398 71.2244 233.187 71.3054 232.94 71.3054ZM237.177 78.9119C236.762 78.9119 236.389 78.838 236.056 78.6903C235.727 78.5397 235.465 78.3181 235.272 78.0255C235.082 77.7329 234.987 77.3721 234.987 76.9431C234.987 76.5738 235.055 76.2684 235.191 76.0269C235.328 75.7855 235.514 75.5923 235.75 75.4474C235.985 75.3025 236.251 75.1931 236.546 75.1193C236.845 75.0426 237.153 74.9872 237.471 74.9531C237.855 74.9133 238.166 74.8778 238.404 74.8465C238.643 74.8125 238.816 74.7613 238.924 74.6931C239.035 74.6221 239.09 74.5127 239.09 74.365V74.3394C239.09 74.0184 238.995 73.7698 238.805 73.5937C238.615 73.4176 238.34 73.3295 237.983 73.3295C237.605 73.3295 237.305 73.4119 237.083 73.5767C236.865 73.7414 236.717 73.936 236.64 74.1605L235.2 73.9559C235.313 73.5582 235.501 73.2258 235.762 72.9588C236.024 72.6889 236.343 72.4872 236.721 72.3536C237.099 72.2173 237.517 72.1491 237.974 72.1491C238.289 72.1491 238.603 72.186 238.916 72.2599C239.228 72.3338 239.514 72.4559 239.772 72.6264C240.031 72.794 240.238 73.0227 240.394 73.3125C240.554 73.6022 240.633 73.9644 240.633 74.3991V78.7798H239.15V77.8806H239.099C239.005 78.0625 238.873 78.2329 238.703 78.392C238.535 78.5483 238.323 78.6747 238.068 78.7713C237.815 78.865 237.518 78.9119 237.177 78.9119ZM237.578 77.7784C237.887 77.7784 238.156 77.7173 238.383 77.5951C238.61 77.4701 238.785 77.3054 238.907 77.1008C239.032 76.8963 239.095 76.6733 239.095 76.4318V75.6605C239.046 75.7002 238.964 75.7372 238.848 75.7713C238.734 75.8054 238.606 75.8352 238.464 75.8608C238.322 75.8863 238.181 75.909 238.042 75.9289C237.903 75.9488 237.782 75.9659 237.68 75.9801C237.45 76.0113 237.244 76.0625 237.062 76.1335C236.88 76.2045 236.737 76.3039 236.632 76.4318C236.527 76.5568 236.474 76.7187 236.474 76.9176C236.474 77.2017 236.578 77.4161 236.785 77.561C236.992 77.7059 237.257 77.7784 237.578 77.7784ZM243.727 70.0525V78.7798H242.184V70.0525H243.727ZM250.486 73.9644L249.08 74.1179C249.04 73.9758 248.971 73.8423 248.871 73.7173C248.775 73.5923 248.644 73.4914 248.479 73.4147C248.315 73.338 248.113 73.2997 247.874 73.2997C247.553 73.2997 247.283 73.3693 247.065 73.5085C246.849 73.6477 246.742 73.8281 246.745 74.0497C246.742 74.24 246.812 74.3948 246.954 74.5142C247.099 74.6335 247.337 74.7315 247.67 74.8082L248.786 75.0468C249.405 75.1804 249.866 75.392 250.167 75.6818C250.471 75.9715 250.624 76.3508 250.627 76.8196C250.624 77.2315 250.503 77.5951 250.265 77.9105C250.029 78.223 249.701 78.4673 249.28 78.6434C248.86 78.8196 248.377 78.9076 247.832 78.9076C247.03 78.9076 246.386 78.74 245.897 78.4048C245.408 78.0667 245.117 77.5965 245.023 76.9943L246.528 76.8494C246.596 77.1448 246.741 77.3679 246.962 77.5184C247.184 77.669 247.472 77.7443 247.827 77.7443C248.194 77.7443 248.488 77.669 248.709 77.5184C248.934 77.3679 249.046 77.1818 249.046 76.9602C249.046 76.7727 248.974 76.6179 248.829 76.4957C248.687 76.3735 248.465 76.2798 248.164 76.2144L247.047 75.9801C246.42 75.8494 245.955 75.6292 245.654 75.3196C245.353 75.0071 245.204 74.6122 245.207 74.1349C245.204 73.7315 245.313 73.3821 245.535 73.0866C245.759 72.7883 246.07 72.5582 246.468 72.3963C246.869 72.2315 247.33 72.1491 247.853 72.1491C248.62 72.1491 249.224 72.3125 249.664 72.6392C250.107 72.9659 250.381 73.4076 250.486 73.9644Z" fill="black"/>
<path d="M181.715 182.538H178.757V173.811H181.774C182.641 173.811 183.385 173.986 184.007 174.335C184.632 174.682 185.112 175.18 185.448 175.831C185.783 176.481 185.95 177.26 185.95 178.166C185.95 179.075 185.781 179.856 185.443 180.51C185.108 181.163 184.624 181.665 183.99 182.014C183.36 182.363 182.601 182.538 181.715 182.538ZM180.338 181.17H181.638C182.246 181.17 182.753 181.059 183.159 180.838C183.566 180.613 183.871 180.28 184.075 179.836C184.28 179.39 184.382 178.834 184.382 178.166C184.382 177.498 184.28 176.944 184.075 176.504C183.871 176.061 183.568 175.73 183.168 175.511C182.77 175.29 182.276 175.179 181.685 175.179H180.338V181.17ZM190.282 182.666C189.626 182.666 189.059 182.53 188.582 182.257C188.107 181.981 187.742 181.592 187.487 181.089C187.231 180.584 187.103 179.988 187.103 179.304C187.103 178.63 187.231 178.04 187.487 177.531C187.745 177.02 188.106 176.622 188.569 176.338C189.032 176.051 189.576 175.907 190.201 175.907C190.605 175.907 190.985 175.973 191.343 176.103C191.704 176.231 192.022 176.43 192.298 176.7C192.576 176.97 192.795 177.314 192.954 177.731C193.113 178.146 193.193 178.64 193.193 179.214V179.687H187.828V178.647H191.714C191.711 178.352 191.647 178.089 191.522 177.859C191.397 177.626 191.222 177.443 190.998 177.309C190.776 177.176 190.518 177.109 190.222 177.109C189.907 177.109 189.63 177.186 189.392 177.339C189.153 177.49 188.967 177.689 188.833 177.936C188.703 178.18 188.636 178.449 188.633 178.741V179.649C188.633 180.03 188.703 180.356 188.842 180.629C188.981 180.899 189.176 181.106 189.426 181.251C189.676 181.393 189.968 181.464 190.303 181.464C190.528 181.464 190.731 181.433 190.913 181.37C191.095 181.305 191.252 181.21 191.386 181.085C191.519 180.96 191.62 180.805 191.688 180.62L193.129 180.782C193.038 181.163 192.865 181.495 192.609 181.78C192.356 182.061 192.032 182.28 191.637 182.436C191.242 182.589 190.791 182.666 190.282 182.666ZM194.498 182.538V175.993H195.972V177.105H196.049C196.185 176.73 196.411 176.437 196.726 176.227C197.042 176.014 197.418 175.907 197.856 175.907C198.299 175.907 198.672 176.015 198.976 176.231C199.283 176.444 199.499 176.736 199.624 177.105H199.692C199.837 176.741 200.081 176.451 200.425 176.236C200.772 176.017 201.182 175.907 201.657 175.907C202.259 175.907 202.751 176.098 203.131 176.478C203.512 176.859 203.702 177.415 203.702 178.145V182.538H202.155V178.383C202.155 177.977 202.047 177.68 201.831 177.493C201.616 177.302 201.351 177.207 201.039 177.207C200.667 177.207 200.376 177.324 200.165 177.557C199.958 177.787 199.854 178.086 199.854 178.456V182.538H198.341V178.319C198.341 177.981 198.239 177.711 198.035 177.51C197.833 177.308 197.569 177.207 197.242 177.207C197.02 177.207 196.819 177.264 196.637 177.378C196.455 177.488 196.31 177.646 196.202 177.851C196.094 178.052 196.04 178.288 196.04 178.558V182.538H194.498ZM208.122 182.666C207.483 182.666 206.929 182.525 206.46 182.244C205.992 181.963 205.628 181.569 205.369 181.064C205.114 180.558 204.986 179.967 204.986 179.291C204.986 178.615 205.114 178.022 205.369 177.514C205.628 177.005 205.992 176.611 206.46 176.329C206.929 176.048 207.483 175.907 208.122 175.907C208.762 175.907 209.316 176.048 209.784 176.329C210.253 176.611 210.615 177.005 210.871 177.514C211.129 178.022 211.259 178.615 211.259 179.291C211.259 179.967 211.129 180.558 210.871 181.064C210.615 181.569 210.253 181.963 209.784 182.244C209.316 182.525 208.762 182.666 208.122 182.666ZM208.131 181.43C208.477 181.43 208.767 181.335 209 181.145C209.233 180.951 209.406 180.693 209.52 180.369C209.637 180.045 209.695 179.684 209.695 179.287C209.695 178.886 209.637 178.524 209.52 178.2C209.406 177.873 209.233 177.613 209 177.42C208.767 177.227 208.477 177.13 208.131 177.13C207.776 177.13 207.48 177.227 207.244 177.42C207.012 177.613 206.837 177.873 206.72 178.2C206.607 178.524 206.55 178.886 206.55 179.287C206.55 179.684 206.607 180.045 206.72 180.369C206.837 180.693 207.012 180.951 207.244 181.145C207.48 181.335 207.776 181.43 208.131 181.43ZM215.415 185.129C214.861 185.129 214.385 185.054 213.987 184.903C213.589 184.755 213.27 184.557 213.028 184.307C212.787 184.057 212.619 183.78 212.525 183.476L213.915 183.139C213.977 183.267 214.068 183.393 214.187 183.518C214.307 183.646 214.467 183.751 214.669 183.834C214.873 183.919 215.131 183.961 215.44 183.961C215.878 183.961 216.24 183.855 216.527 183.642C216.814 183.432 216.957 183.085 216.957 182.602V181.362H216.881C216.801 181.521 216.684 181.684 216.531 181.852C216.381 182.02 216.18 182.16 215.93 182.274C215.683 182.388 215.372 182.444 214.997 182.444C214.494 182.444 214.038 182.326 213.629 182.091C213.223 181.852 212.899 181.497 212.657 181.025C212.419 180.551 212.3 179.957 212.3 179.244C212.3 178.525 212.419 177.919 212.657 177.424C212.899 176.927 213.224 176.551 213.633 176.295C214.042 176.037 214.498 175.907 215.001 175.907C215.385 175.907 215.7 175.973 215.947 176.103C216.197 176.231 216.396 176.386 216.544 176.568C216.692 176.747 216.804 176.916 216.881 177.075H216.966V175.993H218.487V182.645C218.487 183.204 218.354 183.667 218.086 184.034C217.819 184.4 217.454 184.674 216.991 184.856C216.528 185.038 216.003 185.129 215.415 185.129ZM215.427 181.234C215.754 181.234 216.032 181.155 216.263 180.995C216.493 180.836 216.667 180.608 216.787 180.309C216.906 180.011 216.966 179.653 216.966 179.236C216.966 178.824 216.906 178.463 216.787 178.153C216.67 177.843 216.497 177.603 216.267 177.433C216.04 177.26 215.76 177.173 215.427 177.173C215.084 177.173 214.797 177.263 214.567 177.441C214.336 177.62 214.163 177.866 214.047 178.179C213.93 178.488 213.872 178.841 213.872 179.236C213.872 179.636 213.93 179.987 214.047 180.288C214.166 180.586 214.341 180.819 214.571 180.987C214.804 181.152 215.089 181.234 215.427 181.234ZM220.068 182.538V175.993H221.564V177.084H221.632C221.751 176.706 221.956 176.415 222.246 176.21C222.538 176.003 222.872 175.899 223.247 175.899C223.332 175.899 223.427 175.903 223.532 175.912C223.64 175.917 223.73 175.927 223.801 175.941V177.361C223.736 177.338 223.632 177.318 223.49 177.301C223.351 177.281 223.216 177.271 223.085 177.271C222.804 177.271 222.551 177.332 222.327 177.454C222.105 177.574 221.93 177.74 221.802 177.953C221.675 178.166 221.611 178.412 221.611 178.69V182.538H220.068ZM226.592 182.67C226.177 182.67 225.804 182.596 225.471 182.449C225.142 182.298 224.881 182.076 224.687 181.784C224.497 181.491 224.402 181.13 224.402 180.701C224.402 180.332 224.47 180.027 224.606 179.785C224.743 179.544 224.929 179.351 225.165 179.206C225.4 179.061 225.666 178.951 225.961 178.878C226.26 178.801 226.568 178.745 226.886 178.711C227.27 178.672 227.581 178.636 227.819 178.605C228.058 178.571 228.231 178.52 228.339 178.451C228.45 178.38 228.506 178.271 228.506 178.123V178.098C228.506 177.777 228.41 177.528 228.22 177.352C228.03 177.176 227.756 177.088 227.398 177.088C227.02 177.088 226.72 177.17 226.498 177.335C226.28 177.5 226.132 177.694 226.055 177.919L224.615 177.714C224.729 177.316 224.916 176.984 225.177 176.717C225.439 176.447 225.758 176.245 226.136 176.112C226.514 175.976 226.932 175.907 227.389 175.907C227.704 175.907 228.018 175.944 228.331 176.018C228.643 176.092 228.929 176.214 229.187 176.385C229.446 176.552 229.653 176.781 229.809 177.071C229.969 177.361 230.048 177.723 230.048 178.157V182.538H228.565V181.639H228.514C228.42 181.821 228.288 181.991 228.118 182.15C227.95 182.307 227.738 182.433 227.483 182.53C227.23 182.623 226.933 182.67 226.592 182.67ZM226.993 181.537C227.302 181.537 227.571 181.476 227.798 181.353C228.025 181.228 228.2 181.064 228.322 180.859C228.447 180.655 228.51 180.432 228.51 180.19V179.419C228.461 179.459 228.379 179.495 228.263 179.53C228.149 179.564 228.021 179.593 227.879 179.619C227.737 179.645 227.596 179.667 227.457 179.687C227.318 179.707 227.197 179.724 227.095 179.738C226.865 179.77 226.659 179.821 226.477 179.892C226.295 179.963 226.152 180.062 226.047 180.19C225.942 180.315 225.889 180.477 225.889 180.676C225.889 180.96 225.993 181.174 226.2 181.319C226.407 181.464 226.672 181.537 226.993 181.537ZM231.599 184.993V175.993H233.116V177.075H233.206C233.285 176.916 233.398 176.747 233.542 176.568C233.687 176.386 233.883 176.231 234.131 176.103C234.378 175.973 234.693 175.907 235.077 175.907C235.582 175.907 236.038 176.037 236.444 176.295C236.854 176.551 237.177 176.93 237.416 177.433C237.657 177.933 237.778 178.547 237.778 179.274C237.778 179.993 237.66 180.603 237.425 181.106C237.189 181.609 236.868 181.993 236.461 182.257C236.055 182.521 235.595 182.653 235.081 182.653C234.706 182.653 234.395 182.591 234.148 182.466C233.9 182.341 233.702 182.19 233.551 182.014C233.403 181.835 233.288 181.666 233.206 181.507H233.142V184.993H231.599ZM233.112 179.265C233.112 179.689 233.172 180.059 233.291 180.378C233.413 180.696 233.588 180.944 233.815 181.123C234.045 181.299 234.324 181.388 234.65 181.388C234.991 181.388 235.277 181.297 235.507 181.115C235.737 180.93 235.91 180.679 236.027 180.361C236.146 180.04 236.206 179.674 236.206 179.265C236.206 178.859 236.148 178.498 236.031 178.183C235.915 177.868 235.741 177.62 235.511 177.441C235.281 177.263 234.994 177.173 234.65 177.173C234.321 177.173 234.041 177.26 233.811 177.433C233.581 177.606 233.406 177.849 233.287 178.162C233.17 178.474 233.112 178.842 233.112 179.265ZM240.642 178.703V182.538H239.099V173.811H240.608V177.105H240.684C240.838 176.736 241.075 176.444 241.396 176.231C241.72 176.015 242.132 175.907 242.632 175.907C243.086 175.907 243.483 176.003 243.821 176.193C244.159 176.383 244.42 176.662 244.605 177.028C244.792 177.395 244.886 177.842 244.886 178.37V182.538H243.344V178.609C243.344 178.169 243.23 177.826 243.003 177.582C242.778 177.335 242.463 177.211 242.057 177.211C241.784 177.211 241.54 177.271 241.324 177.39C241.111 177.507 240.943 177.676 240.821 177.897C240.702 178.119 240.642 178.388 240.642 178.703ZM246.459 182.538V175.993H248.001V182.538H246.459ZM247.234 175.064C246.99 175.064 246.78 174.983 246.604 174.821C246.427 174.656 246.339 174.459 246.339 174.228C246.339 173.995 246.427 173.798 246.604 173.636C246.78 173.471 246.99 173.389 247.234 173.389C247.481 173.389 247.692 173.471 247.865 173.636C248.041 173.798 248.129 173.995 248.129 174.228C248.129 174.459 248.041 174.656 247.865 174.821C247.692 174.983 247.481 175.064 247.234 175.064ZM252.443 182.666C251.789 182.666 251.228 182.522 250.759 182.236C250.294 181.949 249.934 181.552 249.681 181.047C249.431 180.538 249.306 179.953 249.306 179.291C249.306 178.626 249.434 178.04 249.69 177.531C249.945 177.02 250.306 176.622 250.772 176.338C251.241 176.051 251.795 175.907 252.434 175.907C252.965 175.907 253.436 176.005 253.845 176.201C254.257 176.395 254.585 176.669 254.829 177.024C255.073 177.376 255.213 177.788 255.247 178.26H253.772C253.713 177.944 253.57 177.682 253.346 177.471C253.124 177.258 252.828 177.152 252.455 177.152C252.14 177.152 251.863 177.237 251.624 177.407C251.386 177.575 251.2 177.816 251.066 178.132C250.936 178.447 250.87 178.825 250.87 179.265C250.87 179.711 250.936 180.095 251.066 180.416C251.197 180.734 251.38 180.98 251.616 181.153C251.855 181.324 252.134 181.409 252.455 181.409C252.683 181.409 252.886 181.366 253.065 181.281C253.247 181.193 253.399 181.066 253.521 180.902C253.643 180.737 253.727 180.537 253.772 180.301H255.247C255.21 180.764 255.073 181.174 254.838 181.532C254.602 181.888 254.281 182.166 253.874 182.368C253.468 182.566 252.991 182.666 252.443 182.666Z" fill="black"/>
<path d="M37.7773 178.416C37.7773 179.356 37.6011 180.162 37.2488 180.832C36.8994 181.5 36.4221 182.011 35.817 182.366C35.2148 182.722 34.5315 182.899 33.7673 182.899C33.0031 182.899 32.3184 182.722 31.7133 182.366C31.1111 182.008 30.6338 181.496 30.2815 180.828C29.9321 180.158 29.7574 179.354 29.7574 178.416C29.7574 177.476 29.9321 176.672 30.2815 176.004C30.6338 175.334 31.1111 174.821 31.7133 174.466C32.3184 174.111 33.0031 173.933 33.7673 173.933C34.5315 173.933 35.2148 174.111 35.817 174.466C36.4221 174.821 36.8994 175.334 37.2488 176.004C37.6011 176.672 37.7773 177.476 37.7773 178.416ZM36.1878 178.416C36.1878 177.754 36.0841 177.196 35.8767 176.741C35.6721 176.284 35.3881 175.939 35.0244 175.706C34.6608 175.47 34.2417 175.352 33.7673 175.352C33.2929 175.352 32.8738 175.47 32.5102 175.706C32.1466 175.939 31.8611 176.284 31.6537 176.741C31.4491 177.196 31.3469 177.754 31.3469 178.416C31.3469 179.078 31.4491 179.638 31.6537 180.095C31.8611 180.55 32.1466 180.895 32.5102 181.131C32.8738 181.364 33.2929 181.48 33.7673 181.48C34.2417 181.48 34.6608 181.364 35.0244 181.131C35.3881 180.895 35.6721 180.55 35.8767 180.095C36.0841 179.638 36.1878 179.078 36.1878 178.416ZM40.7464 178.945V182.78H39.2037V176.234H40.6782V177.347H40.7549C40.9055 176.98 41.1455 176.689 41.4751 176.473C41.8074 176.257 42.218 176.149 42.7066 176.149C43.1583 176.149 43.5518 176.246 43.887 176.439C44.2251 176.632 44.4864 176.912 44.6711 177.278C44.8586 177.645 44.9509 178.089 44.9481 178.612V182.78H43.4055V178.851C43.4055 178.413 43.2918 178.071 43.0645 177.824C42.8401 177.577 42.529 177.453 42.1313 177.453C41.8614 177.453 41.6214 177.513 41.4111 177.632C41.2037 177.749 41.0404 177.918 40.9211 178.139C40.8046 178.361 40.7464 178.629 40.7464 178.945ZM49.3714 182.908C48.718 182.908 48.1569 182.764 47.6881 182.477C47.2222 182.19 46.8628 181.794 46.61 181.288C46.36 180.78 46.235 180.195 46.235 179.533C46.235 178.868 46.3628 178.281 46.6185 177.773C46.8742 177.261 47.235 176.864 47.7009 176.58C48.1697 176.293 48.7236 176.149 49.3628 176.149C49.8941 176.149 50.3643 176.247 50.7733 176.443C51.1853 176.636 51.5134 176.91 51.7577 177.266C52.002 177.618 52.1412 178.03 52.1753 178.501H50.7009C50.6412 178.186 50.4992 177.923 50.2748 177.713C50.0532 177.5 49.7563 177.393 49.3841 177.393C49.0688 177.393 48.7918 177.479 48.5532 177.649C48.3145 177.817 48.1285 178.058 47.9949 178.374C47.8643 178.689 47.7989 179.067 47.7989 179.507C47.7989 179.953 47.8643 180.337 47.9949 180.658C48.1256 180.976 48.3089 181.222 48.5447 181.395C48.7833 181.565 49.0631 181.651 49.3841 181.651C49.6114 181.651 49.8145 181.608 49.9935 181.523C50.1753 181.435 50.3273 181.308 50.4495 181.143C50.5716 180.979 50.6555 180.778 50.7009 180.543H52.1753C52.1384 181.006 52.002 181.416 51.7662 181.774C51.5305 182.129 51.2094 182.408 50.8032 182.609C50.3969 182.808 49.9197 182.908 49.3714 182.908ZM54.9846 178.945V182.78H53.442V174.053H54.9506V177.347H55.0273C55.1807 176.977 55.4179 176.686 55.7389 176.473C56.0628 176.257 56.4747 176.149 56.9747 176.149C57.4292 176.149 57.8256 176.244 58.1636 176.435C58.5017 176.625 58.7631 176.903 58.9477 177.27C59.1352 177.636 59.229 178.084 59.229 178.612V182.78H57.6863V178.851C57.6863 178.41 57.5727 178.068 57.3454 177.824C57.121 177.577 56.8057 177.453 56.3994 177.453C56.1267 177.453 55.8824 177.513 55.6665 177.632C55.4534 177.749 55.2858 177.918 55.1636 178.139C55.0443 178.361 54.9846 178.629 54.9846 178.945ZM62.6849 182.912C62.2702 182.912 61.8966 182.838 61.5642 182.69C61.2346 182.54 60.9733 182.318 60.7801 182.026C60.5898 181.733 60.4946 181.372 60.4946 180.943C60.4946 180.574 60.5628 180.268 60.6991 180.027C60.8355 179.785 61.0216 179.592 61.2574 179.447C61.4932 179.303 61.7588 179.193 62.0542 179.119C62.3525 179.043 62.6608 178.987 62.979 178.953C63.3625 178.913 63.6736 178.878 63.9122 178.847C64.1508 178.812 64.3241 178.761 64.4321 178.693C64.5429 178.622 64.5983 178.513 64.5983 178.365V178.339C64.5983 178.018 64.5031 177.77 64.3128 177.594C64.1224 177.418 63.8483 177.33 63.4903 177.33C63.1125 177.33 62.8128 177.412 62.5912 177.577C62.3724 177.741 62.2247 177.936 62.148 178.16L60.7077 177.956C60.8213 177.558 61.0088 177.226 61.2702 176.959C61.5315 176.689 61.8511 176.487 62.229 176.354C62.6068 176.217 63.0244 176.149 63.4818 176.149C63.7971 176.149 64.1111 176.186 64.4236 176.26C64.7361 176.334 65.0216 176.456 65.2801 176.626C65.5386 176.794 65.746 177.023 65.9023 177.312C66.0613 177.602 66.1409 177.964 66.1409 178.399V182.78H64.6579V181.881H64.6068C64.5131 182.062 64.3809 182.233 64.2105 182.392C64.0429 182.548 63.8312 182.675 63.5756 182.771C63.3227 182.865 63.0258 182.912 62.6849 182.912ZM63.0855 181.778C63.3952 181.778 63.6636 181.717 63.8909 181.595C64.1182 181.47 64.2929 181.305 64.415 181.101C64.54 180.896 64.6025 180.673 64.6025 180.432V179.66C64.5542 179.7 64.4719 179.737 64.3554 179.771C64.2417 179.805 64.1139 179.835 63.9719 179.861C63.8298 179.886 63.6892 179.909 63.55 179.929C63.4108 179.949 63.29 179.966 63.1878 179.98C62.9577 180.011 62.7517 180.062 62.5699 180.133C62.3881 180.205 62.2446 180.304 62.1395 180.432C62.0344 180.557 61.9818 180.719 61.9818 180.918C61.9818 181.202 62.0855 181.416 62.2929 181.561C62.5003 181.706 62.7645 181.778 63.0855 181.778ZM67.692 182.78V176.234H69.2346V182.78H67.692ZM68.4676 175.305C68.2233 175.305 68.0131 175.224 67.8369 175.062C67.6608 174.898 67.5727 174.7 67.5727 174.47C67.5727 174.237 67.6608 174.04 67.8369 173.878C68.0131 173.713 68.2233 173.631 68.4676 173.631C68.7148 173.631 68.925 173.713 69.0983 173.878C69.2744 174.04 69.3625 174.237 69.3625 174.47C69.3625 174.7 69.2744 174.898 69.0983 175.062C68.925 175.224 68.7148 175.305 68.4676 175.305ZM72.3635 178.945V182.78H70.8209V176.234H72.2954V177.347H72.3721C72.5226 176.98 72.7627 176.689 73.0922 176.473C73.4246 176.257 73.8351 176.149 74.3238 176.149C74.7755 176.149 75.1689 176.246 75.5042 176.439C75.8422 176.632 76.1036 176.912 76.2883 177.278C76.4758 177.645 76.5681 178.089 76.5653 178.612V182.78H75.0226V178.851C75.0226 178.413 74.909 178.071 74.6817 177.824C74.4573 177.577 74.1462 177.453 73.7485 177.453C73.4786 177.453 73.2385 177.513 73.0283 177.632C72.8209 177.749 72.6576 177.918 72.5383 178.139C72.4218 178.361 72.3635 178.629 72.3635 178.945Z" fill="black"/>
<path d="M11.5777 72.2498C11.5067 72.0197 11.4087 71.8138 11.2837 71.6319C11.1615 71.4473 11.0138 71.2896 10.8405 71.1589C10.6701 71.0283 10.474 70.9302 10.2525 70.8649C10.0309 70.7967 9.78939 70.7626 9.52803 70.7626C9.05928 70.7626 8.64166 70.8805 8.27519 71.1163C7.90871 71.3521 7.62036 71.6987 7.41013 72.1561C7.20274 72.6106 7.09905 73.1646 7.09905 73.818C7.09905 74.4771 7.20274 75.0354 7.41013 75.4927C7.61751 75.9501 7.90587 76.2981 8.27519 76.5368C8.6445 76.7726 9.07348 76.8905 9.56212 76.8905C10.0053 76.8905 10.3888 76.8052 10.7127 76.6348C11.0394 76.4643 11.2908 76.2229 11.4669 75.9104C11.6431 75.595 11.7312 75.2257 11.7312 74.8024L12.0891 74.8578H9.71979V73.622H13.261V74.6703C13.261 75.4175 13.1019 76.0638 12.7837 76.6092C12.4655 77.1547 12.028 77.5751 11.4712 77.8706C10.9144 78.1632 10.2752 78.3095 9.55359 78.3095C8.74962 78.3095 8.04365 78.1291 7.4357 77.7683C6.83058 77.4047 6.35757 76.889 6.01666 76.2214C5.67859 75.551 5.50956 74.7555 5.50956 73.8351C5.50956 73.1305 5.60899 72.5013 5.80786 71.9473C6.00956 71.3933 6.29081 70.9231 6.65161 70.5368C7.0124 70.1476 7.4357 69.8521 7.92149 69.6504C8.40729 69.4459 8.9357 69.3436 9.50672 69.3436C9.98967 69.3436 10.44 69.4146 10.8576 69.5567C11.2752 69.6959 11.6459 69.8947 11.9698 70.1533C12.2965 70.4118 12.565 70.7186 12.7752 71.0737C12.9854 71.4288 13.1232 71.8209 13.1885 72.2498H11.5777ZM16.6051 78.3223C16.1903 78.3223 15.8167 78.2484 15.4843 78.1007C15.1548 77.9501 14.8934 77.7285 14.7003 77.4359C14.5099 77.1433 14.4147 76.7825 14.4147 76.3535C14.4147 75.9842 14.4829 75.6788 14.6193 75.4373C14.7557 75.1959 14.9417 75.0027 15.1775 74.8578C15.4133 74.7129 15.6789 74.6035 15.9744 74.5297C16.2727 74.453 16.5809 74.3976 16.8991 74.3635C17.2826 74.3237 17.5937 74.2882 17.8324 74.2569C18.071 74.2229 18.2443 74.1717 18.3522 74.1035C18.463 74.0325 18.5184 73.9231 18.5184 73.7754V73.7498C18.5184 73.4288 18.4233 73.1802 18.2329 73.0041C18.0426 72.828 17.7684 72.7399 17.4105 72.7399C17.0326 72.7399 16.7329 72.8223 16.5113 72.9871C16.2926 73.1518 16.1449 73.3464 16.0682 73.5709L14.6278 73.3663C14.7414 72.9686 14.9289 72.6362 15.1903 72.3692C15.4517 72.0993 15.7713 71.8976 16.1491 71.764C16.527 71.6277 16.9446 71.5595 17.402 71.5595C17.7173 71.5595 18.0312 71.5964 18.3437 71.6703C18.6562 71.7442 18.9417 71.8663 19.2003 72.0368C19.4588 72.2044 19.6662 72.4331 19.8224 72.7229C19.9815 73.0126 20.0611 73.3748 20.0611 73.8095V78.1902H18.5781V77.291H18.527C18.4332 77.4729 18.3011 77.6433 18.1307 77.8024C17.963 77.9587 17.7514 78.0851 17.4957 78.1817C17.2429 78.2754 16.946 78.3223 16.6051 78.3223ZM17.0057 77.1888C17.3153 77.1888 17.5838 77.1277 17.8111 77.0055C18.0383 76.8805 18.213 76.7158 18.3352 76.5112C18.4602 76.3067 18.5227 76.0837 18.5227 75.8422V75.0709C18.4744 75.1106 18.392 75.1476 18.2755 75.1817C18.1619 75.2158 18.0341 75.2456 17.892 75.2712C17.75 75.2967 17.6093 75.3194 17.4701 75.3393C17.3309 75.3592 17.2102 75.3763 17.1079 75.3905C16.8778 75.4217 16.6718 75.4729 16.49 75.5439C16.3082 75.6149 16.1647 75.7143 16.0596 75.8422C15.9545 75.9672 15.902 76.1291 15.902 76.328C15.902 76.6121 16.0057 76.8265 16.213 76.9714C16.4204 77.1163 16.6846 77.1888 17.0057 77.1888ZM21.6122 78.1902V71.6447H23.0866V72.7569H23.1633C23.2997 72.3819 23.5255 72.0893 23.8409 71.8791C24.1562 71.666 24.5326 71.5595 24.9701 71.5595C25.4133 71.5595 25.7869 71.6675 26.0909 71.8834C26.3977 72.0964 26.6136 72.3876 26.7386 72.7569H26.8068C26.9517 72.3933 27.196 72.1035 27.5397 71.8876C27.8863 71.6689 28.2968 71.5595 28.7713 71.5595C29.3736 71.5595 29.865 71.7498 30.2457 72.1305C30.6264 72.5112 30.8167 73.0666 30.8167 73.7967V78.1902H29.2699V74.0354C29.2699 73.6291 29.1619 73.3322 28.946 73.1447C28.7301 72.9544 28.4659 72.8592 28.1534 72.8592C27.7812 72.8592 27.49 72.9757 27.2798 73.2087C27.0724 73.4388 26.9687 73.7385 26.9687 74.1078V78.1902H25.4559V73.9714C25.4559 73.6334 25.3537 73.3635 25.1491 73.1618C24.9474 72.9601 24.6832 72.8592 24.3565 72.8592C24.1349 72.8592 23.9332 72.916 23.7514 73.0297C23.5696 73.1405 23.4247 73.2981 23.3167 73.5027C23.2088 73.7044 23.1548 73.9402 23.1548 74.2101V78.1902H21.6122ZM32.3817 78.1902V71.6447H33.9243V78.1902H32.3817ZM33.1573 70.7158C32.913 70.7158 32.7027 70.6348 32.5266 70.4729C32.3505 70.3081 32.2624 70.1106 32.2624 69.8805C32.2624 69.6476 32.3505 69.4501 32.5266 69.2882C32.7027 69.1234 32.913 69.041 33.1573 69.041C33.4044 69.041 33.6147 69.1234 33.788 69.2882C33.9641 69.4501 34.0522 69.6476 34.0522 69.8805C34.0522 70.1106 33.9641 70.3081 33.788 70.4729C33.6147 70.6348 33.4044 70.7158 33.1573 70.7158ZM37.0532 74.355V78.1902H35.5106V71.6447H36.9851V72.7569H37.0618C37.2123 72.3905 37.4524 72.0993 37.7819 71.8834C38.1143 71.6675 38.5248 71.5595 39.0135 71.5595C39.4652 71.5595 39.8586 71.6561 40.1939 71.8493C40.5319 72.0425 40.7933 72.3223 40.978 72.6888C41.1655 73.0552 41.2578 73.4998 41.2549 74.0226V78.1902H39.7123V74.2612C39.7123 73.8237 39.5987 73.4814 39.3714 73.2342C39.147 72.9871 38.8359 72.8635 38.4382 72.8635C38.1683 72.8635 37.9282 72.9231 37.718 73.0425C37.5106 73.1589 37.3473 73.328 37.228 73.5496C37.1115 73.7712 37.0532 74.0396 37.0532 74.355ZM45.6697 80.7811C45.1157 80.7811 44.6399 80.7058 44.2422 80.5552C43.8444 80.4075 43.5248 80.2087 43.2834 79.9587C43.0419 79.7087 42.8743 79.4317 42.7805 79.1277L44.1697 78.791C44.2322 78.9189 44.3231 79.0453 44.4424 79.1703C44.5618 79.2981 44.7223 79.4033 44.924 79.4856C45.1285 79.5709 45.3856 79.6135 45.6953 79.6135C46.1328 79.6135 46.495 79.5069 46.7819 79.2939C47.0689 79.0837 47.2123 78.7371 47.2123 78.2541V77.014H47.1356C47.0561 77.1731 46.9396 77.3365 46.7862 77.5041C46.6356 77.6717 46.4353 77.8123 46.1853 77.926C45.9382 78.0396 45.6271 78.0964 45.2521 78.0964C44.7493 78.0964 44.2933 77.9785 43.8842 77.7427C43.478 77.5041 43.1541 77.149 42.9126 76.6774C42.674 76.203 42.5547 75.6092 42.5547 74.8962C42.5547 74.1774 42.674 73.5709 42.9126 73.0765C43.1541 72.5794 43.4794 72.203 43.8885 71.9473C44.2976 71.6888 44.7535 71.5595 45.2564 71.5595C45.6399 71.5595 45.9552 71.6248 46.2024 71.7555C46.4524 71.8834 46.6512 72.0382 46.799 72.22C46.9467 72.399 47.0589 72.568 47.1356 72.7271H47.2209V71.6447H48.7422V78.2967C48.7422 78.8564 48.6086 79.3194 48.3416 79.6859C48.0745 80.0524 47.7095 80.3265 47.2464 80.5084C46.7834 80.6902 46.2578 80.7811 45.6697 80.7811ZM45.6825 76.8862C46.0092 76.8862 46.2876 76.8067 46.5177 76.6476C46.7478 76.4885 46.9226 76.2598 47.0419 75.9615C47.1612 75.6632 47.2209 75.3052 47.2209 74.8876C47.2209 74.4757 47.1612 74.1149 47.0419 73.8052C46.9254 73.4956 46.7521 73.2555 46.522 73.0851C46.2947 72.9118 46.0149 72.8251 45.6825 72.8251C45.3387 72.8251 45.0518 72.9146 44.8217 73.0936C44.5916 73.2726 44.4183 73.5183 44.3018 73.8308C44.1853 74.1405 44.1271 74.4927 44.1271 74.8876C44.1271 75.2882 44.1853 75.639 44.3018 75.9402C44.4211 76.2385 44.5959 76.4714 44.826 76.639C45.0589 76.8038 45.3444 76.8862 45.6825 76.8862Z" fill="black"/>
<path d="M129.014 102.451L128.545 21.0629" stroke="black" stroke-width="0.759477" stroke-linecap="round"/>
<path d="M128.545 102.451L205.015 77.0768" stroke="black" stroke-width="0.759477" stroke-linecap="round"/>
<path d="M129.017 102.451L175.461 168.04" stroke="black" stroke-width="0.759477" stroke-linecap="round"/>
<path d="M128.545 102.451L52.5443 77.0778" stroke="black" stroke-width="0.759477" stroke-linecap="round"/>
<path d="M128.545 102.928L81.631 168.039" stroke="black" stroke-width="0.759477" stroke-linecap="round"/>
<path d="M128.242 34.9699C128.645 34.672 129.195 34.6721 129.598 34.9698L191.378 80.6857C191.769 80.9757 191.934 81.4829 191.786 81.9474L168.183 155.962C168.032 156.434 167.594 156.755 167.098 156.755L90.7611 156.761C90.2655 156.761 89.8259 156.44 89.6751 155.968L66.0622 81.9572C65.914 81.4928 66.0776 80.9856 66.4693 80.6955L128.242 34.9699Z" stroke="black" stroke-width="0.759477"/>
<path d="M127.87 20.1187C128.272 19.8224 128.821 19.8224 129.223 20.1187L205.078 76.0376C205.472 76.3277 205.636 76.8367 205.487 77.3022L176.504 167.807C176.353 168.279 175.914 168.599 175.419 168.599H81.6738C81.1785 168.599 80.7399 168.279 80.5889 167.807L51.6055 77.3022C51.4564 76.8367 51.6212 76.3277 52.0146 76.0376L127.87 20.1187Z" stroke="black" stroke-width="0.759477"/>
<path d="M128.244 52.5081C128.647 52.2103 129.197 52.2101 129.6 52.508L175.417 86.4117C175.809 86.7017 175.973 87.2098 175.825 87.6743L158.317 142.574C158.167 143.046 157.728 143.367 157.232 143.367L100.625 143.372C100.129 143.372 99.6898 143.051 99.539 142.579L82.0242 87.6816C81.876 87.2171 82.0394 86.709 82.4313 86.4189L128.244 52.5081Z" stroke="black" stroke-width="0.759477"/>
<path d="M128.526 68.6378C128.931 68.3434 129.481 68.3484 129.881 68.6496L160.061 91.389C160.45 91.6824 160.61 92.1911 160.458 92.6542L148.542 128.953C148.388 129.424 147.947 129.741 147.451 129.737L109.938 129.41C109.442 129.406 109.005 129.081 108.858 128.607L97.553 92.1062C97.4088 91.6405 97.5765 91.1347 97.9708 90.8481L128.526 68.6378Z" stroke="black" stroke-width="0.759477"/>
<path d="M128.246 86.2189C128.649 85.921 129.199 85.921 129.602 86.2188L144.14 96.9765C144.531 97.2665 144.695 97.7746 144.547 98.2391L138.985 115.683C138.834 116.155 138.395 116.476 137.9 116.476L119.953 116.477C119.457 116.477 119.018 116.157 118.868 115.685L113.303 98.2416C113.155 97.7771 113.318 97.2689 113.71 96.9789L128.246 86.2189Z" stroke="black" stroke-width="0.759477"/>
<path d="M129.525 43.0852L184.89 84.1345L163.743 150.554H95.3074L74.1598 84.1345L129.525 43.0852Z" fill="#76CDED" fill-opacity="0.82"/>
</svg>
