<svg xmlns="http://www.w3.org/2000/svg" xmlns:xlink="http://www.w3.org/1999/xlink" width="940" zoomAndPan="magnify" viewBox="0 0 705 591.000005" height="788" preserveAspectRatio="xMidYMid meet" version="1.0"><defs><clipPath id="aa6170c482"><path d="M 121 119.3125 L 582 119.3125 L 582 470.46875 L 121 470.46875 Z M 121 119.3125 " clip-rule="nonzero"/></clipPath></defs><g clip-path="url(#aa6170c482)"><path fill="#5865f2" d="M 511.285156 148.527344 C 511.539062 148.621094 511.761719 148.8125 511.890625 149.066406 C 563.886719 225.546875 589.566406 311.816406 579.957031 411.128906 C 579.925781 411.542969 579.707031 411.921875 579.355469 412.175781 C 539.984375 441.105469 501.835938 458.664062 464.210938 470.304688 C 463.605469 470.476562 462.957031 470.269531 462.589844 469.746094 C 453.902344 457.664062 446.011719 444.902344 439.085938 431.515625 C 438.6875 430.71875 439.054688 429.785156 439.863281 429.46875 C 452.410156 424.738281 464.339844 419.066406 475.804688 412.367188 C 476.710938 411.84375 476.773438 410.539062 475.929688 409.921875 C 473.503906 408.113281 471.089844 406.207031 468.78125 404.316406 C 468.339844 403.96875 467.765625 403.890625 467.273438 404.125 C 392.804688 438.53125 311.234375 438.53125 235.875 404.125 C 235.382812 403.90625 234.796875 403.984375 234.382812 404.332031 C 232.082031 406.222656 229.664062 408.113281 227.25 409.921875 C 226.425781 410.539062 226.488281 411.84375 227.390625 412.367188 C 238.863281 418.941406 250.785156 424.738281 263.316406 429.484375 C 264.125 429.800781 264.507812 430.71875 264.113281 431.515625 C 257.34375 444.929688 249.453125 457.679688 240.589844 469.761719 C 240.210938 470.269531 239.574219 470.476562 238.972656 470.304688 C 201.539062 458.664062 163.386719 441.105469 124.003906 412.175781 C 123.667969 411.921875 123.445312 411.527344 123.398438 411.113281 C 115.375 325.203125 131.734375 238.214844 191.421875 149.050781 C 191.566406 148.8125 191.785156 148.621094 192.039062 148.527344 C 221.40625 135.03125 252.886719 125.109375 285.761719 119.453125 C 286.363281 119.363281 286.96875 119.628906 287.269531 120.171875 C 291.335938 127.363281 295.988281 136.585938 299.117188 144.128906 C 333.785156 138.84375 368.996094 138.84375 404.386719 144.128906 C 407.527344 136.746094 412.007812 127.363281 416.058594 120.171875 C 416.359375 119.613281 416.960938 119.34375 417.566406 119.453125 C 450.472656 125.140625 481.9375 135.046875 511.285156 148.527344 Z M 275.371094 358.800781 C 298.417969 358.800781 316.746094 337.96875 316.746094 312.390625 C 317.113281 287.003906 298.59375 266 275.371094 266 C 252.3125 266 233.984375 286.8125 233.984375 312.390625 C 233.984375 337.96875 252.675781 358.800781 275.371094 358.800781 Z M 428.363281 358.800781 C 451.601562 358.800781 469.738281 337.96875 469.738281 312.390625 C 470.105469 287.003906 451.601562 266 428.363281 266 C 405.320312 266 386.976562 286.8125 386.976562 312.390625 C 386.976562 337.96875 405.667969 358.800781 428.363281 358.800781 Z M 428.363281 358.800781 " fill-opacity="1" fill-rule="evenodd"/></g></svg>