<svg xmlns="http://www.w3.org/2000/svg" xmlns:xlink="http://www.w3.org/1999/xlink" width="940" zoomAndPan="magnify" viewBox="0 0 705 591.000005" height="788" preserveAspectRatio="xMidYMid meet" version="1.0"><path fill="#000000" d="M 444.976562 383.578125 C 452.394531 400.738281 450.367188 418.628906 450.480469 436.300781 C 450.59375 453.917969 450.589844 471.539062 450.46875 489.15625 C 450.367188 502.257812 439.824219 510.996094 427.664062 508.324219 C 419.183594 506.464844 413.226562 499.078125 413.207031 489.957031 C 413.152344 465.054688 413.0625 440.15625 413.320312 415.257812 C 413.445312 402.847656 409.792969 392.082031 401.414062 382.964844 C 396.019531 377.089844 394.054688 370.394531 396.941406 362.855469 C 399.746094 355.542969 405.464844 352.148438 413.160156 350.71875 C 427.269531 348.09375 441.589844 345.828125 455.199219 341.460938 C 486.636719 331.375 505.042969 308.917969 511.761719 276.902344 C 515.878906 257.28125 517.792969 237.457031 512.765625 217.632812 C 509.523438 204.847656 503.46875 193.445312 494.46875 183.828125 C 487.886719 176.792969 486.3125 169.339844 489.570312 160.21875 C 494.425781 146.625 494.921875 132.664062 491.347656 117.742188 C 486.449219 119.410156 481.585938 120.46875 477.292969 122.648438 C 466.421875 128.15625 455.550781 133.757812 445.175781 140.128906 C 438.21875 144.402344 431.585938 145.675781 423.675781 143.632812 C 385.59375 133.773438 347.480469 133.789062 309.339844 143.679688 C 301.609375 145.683594 294.9375 144.699219 288.273438 140.183594 C 275.246094 131.351562 261.539062 123.71875 246.324219 119.195312 C 244.964844 118.792969 243.5625 118.527344 241.855469 118.117188 C 239.027344 128.535156 238.800781 138.742188 240.722656 148.976562 C 241.578125 153.527344 242.953125 158 244.355469 162.421875 C 246.617188 169.546875 245.667969 176.078125 240.597656 181.558594 C 223.996094 199.5 216.625 220.679688 217.589844 244.996094 C 218.257812 261.8125 220.300781 278.351562 226.566406 294.113281 C 236.726562 319.664062 256.089844 335.164062 281.714844 342.957031 C 293.75 346.621094 306.277344 348.839844 318.710938 350.96875 C 331.332031 353.136719 338.796875 360.894531 337.128906 372.332031 C 336.597656 375.984375 334.707031 379.945312 332.257812 382.722656 C 323.40625 392.761719 319.628906 404.1875 319.832031 417.527344 C 320.195312 441.546875 320.011719 465.578125 319.917969 489.605469 C 319.875 500.632812 311.980469 508.765625 301.5625 508.90625 C 291.078125 509.046875 282.976562 500.71875 282.871094 489.496094 C 282.769531 479.035156 282.847656 468.574219 282.847656 458.664062 C 273.328125 458.664062 264.191406 459.15625 255.125 458.566406 C 233.496094 457.15625 215.488281 447.722656 200.800781 432.058594 C 194.144531 424.957031 188.171875 417.207031 181.964844 409.691406 C 176.835938 403.484375 171.507812 397.980469 163.402344 395.175781 C 154.414062 392.066406 150.300781 381.375 153.398438 372.34375 C 156.582031 363.070312 166.207031 357.964844 175.75 360.417969 C 188.082031 363.582031 197.703125 370.902344 205.847656 380.3125 C 211.75 387.132812 217.414062 394.164062 222.988281 401.257812 C 238.59375 421.117188 258.957031 425.242188 282.316406 419.652344 C 282.753906 413.4375 282.8125 407.316406 283.710938 401.320312 C 284.589844 395.464844 286.328125 389.742188 287.722656 383.820312 C 281.078125 381.789062 274.097656 379.910156 267.285156 377.539062 C 217.492188 360.203125 190.457031 324.28125 182.761719 272.960938 C 179.726562 252.734375 178.695312 232.417969 183.363281 212.191406 C 187.082031 196.097656 193.730469 181.359375 203.554688 168.097656 C 205.242188 165.8125 205.847656 163.792969 205.199219 160.941406 C 199.953125 137.84375 201.859375 115.277344 210.671875 93.304688 C 214.332031 84.183594 220.378906 80.515625 230.128906 80.058594 C 253.136719 78.984375 273.226562 87.820312 292.132812 99.15625 C 301.195312 104.589844 309.207031 105.574219 319.316406 103.5625 C 353.839844 96.703125 388.460938 97.699219 422.855469 105.109375 C 426.824219 105.960938 429.875 105.570312 433.382812 103.421875 C 450.441406 92.96875 468.214844 83.957031 488.230469 80.785156 C 494.34375 79.816406 500.746094 79.8125 506.925781 80.375 C 514.296875 81.039062 519.390625 85.507812 522.199219 92.4375 C 531.265625 114.796875 533.308594 137.734375 528.117188 161.347656 C 527.71875 163.171875 528.167969 165.761719 529.253906 167.246094 C 547.453125 192.203125 554.546875 220.199219 552.683594 250.777344 C 551.445312 271.082031 548.316406 290.980469 540.363281 309.855469 C 525.324219 345.554688 498.050781 367.375 461.757812 378.84375 C 456.386719 380.539062 450.910156 381.914062 444.976562 383.578125 Z M 444.976562 383.578125 " fill-opacity="1" fill-rule="nonzero"/></svg>