<svg width="23" height="22" viewBox="0 0 23 22" fill="none" xmlns="http://www.w3.org/2000/svg">
<g clip-path="url(#clip0_2903_21142)">
<path d="M22.1727 11.2175C22.1727 10.4722 22.1123 9.7228 21.9834 8.98953H11.6411V13.2118H17.5636C17.3179 14.5736 16.5282 15.7783 15.3719 16.5438V19.2834H18.9053C20.9802 17.3737 22.1727 14.5535 22.1727 11.2175Z" fill="#4285F4"/>
<path d="M11.6409 21.931C14.5981 21.931 17.092 20.9601 18.909 19.284L15.3757 16.5444C14.3926 17.2132 13.1235 17.5919 11.6449 17.5919C8.78436 17.5919 6.35895 15.662 5.4887 13.0674H1.84253V15.8917C3.70389 19.5943 7.49511 21.931 11.6409 21.931Z" fill="#34A853"/>
<path d="M5.48479 13.0673C5.02549 11.7056 5.02549 10.231 5.48479 8.86919V6.04492H1.84264C0.287479 9.14316 0.287479 12.7934 1.84264 15.8916L5.48479 13.0673Z" fill="#FBBC04"/>
<path d="M11.6409 4.34028C13.2041 4.31611 14.7149 4.90433 15.8471 5.98408L18.9775 2.85361C16.9953 0.99225 14.3644 -0.0310957 11.6409 0.00113563C7.4951 0.00113563 3.70389 2.33791 1.84253 6.04452L5.48467 8.86879C6.35089 6.27014 8.78033 4.34028 11.6409 4.34028Z" fill="#EA4335"/>
</g>
<defs>
<clipPath id="clip0_2903_21142">
<rect width="22.8431" height="21.9294" fill="white"/>
</clipPath>
</defs>
</svg>
