<svg width="25" height="23" viewBox="0 0 25 23" fill="none" xmlns="http://www.w3.org/2000/svg">
<path d="M22.7689 0.289825L13.5378 7.14587L15.2449 3.10089L22.7689 0.289825Z" fill="#E2761B" stroke="#E2761B" stroke-width="0.579568" stroke-linecap="round" stroke-linejoin="round"/>
<path d="M1.45753 0.289825L10.6144 7.21081L8.99083 3.10089L1.45753 0.289825ZM19.4465 16.1821L16.988 19.9488L22.2483 21.396L23.7605 16.2656L19.4465 16.1821ZM0.483398 16.2656L1.98635 21.396L7.24666 19.9488L4.78814 16.1821L0.483398 16.2656Z" fill="#E4761B" stroke="#E4761B" stroke-width="0.579568" stroke-linecap="round" stroke-linejoin="round"/>
<path d="M6.95046 9.81718L5.48462 12.0345L10.7078 12.2664L10.5223 6.65356L6.95046 9.81718ZM17.2763 9.81718L13.6581 6.58862L13.5374 12.2664L18.7514 12.0345L17.2763 9.81718ZM7.24734 19.9482L10.3831 18.4174L7.6741 16.3021L7.24734 19.9482ZM13.8436 18.4174L16.9887 19.9482L16.5526 16.3021L13.8436 18.4174Z" fill="#E4761B" stroke="#E4761B" stroke-width="0.579568" stroke-linecap="round" stroke-linejoin="round"/>
<path d="M16.9884 19.9497L13.8433 18.4189L14.0938 20.4692L14.066 21.332L16.9884 19.9497ZM7.24707 19.9497L10.1695 21.332L10.1509 20.4692L10.3829 18.4189L7.24707 19.9497Z" fill="#D7C1B3" stroke="#D7C1B3" stroke-width="0.579568" stroke-linecap="round" stroke-linejoin="round"/>
<path d="M10.2166 14.9479L7.60034 14.1779L9.44656 13.3336L10.2166 14.9479ZM14.0111 14.9479L14.7811 13.3336L16.6366 14.1779L14.0111 14.9479Z" fill="#233447" stroke="#233447" stroke-width="0.579568" stroke-linecap="round" stroke-linejoin="round"/>
<path d="M7.24734 19.949L7.69266 16.1823L4.78882 16.2658L7.24734 19.949ZM16.5434 16.1823L16.9887 19.949L19.4472 16.2658L16.5434 16.1823ZM18.7514 12.0353L13.5375 12.2672L14.0199 14.9484L14.7899 13.3342L16.6454 14.1784L18.7514 12.0353ZM7.59989 14.1784L9.45538 13.3342L10.2161 14.9484L10.7078 12.2672L5.48463 12.0353L7.59989 14.1784Z" fill="#CD6116" stroke="#CD6116" stroke-width="0.579568" stroke-linecap="round" stroke-linejoin="round"/>
<path d="M5.48462 12.0353L7.6741 16.3029L7.59988 14.1784L5.48462 12.0353ZM16.6454 14.1784L16.5526 16.3029L18.7514 12.0353L16.6454 14.1784ZM10.7078 12.2672L10.2161 14.9484L10.8284 18.112L10.9676 13.9465L10.7078 12.2672ZM13.5374 12.2672L13.287 13.9372L13.3983 18.112L14.0199 14.9484L13.5374 12.2672Z" fill="#E4751F" stroke="#E4751F" stroke-width="0.579568" stroke-linecap="round" stroke-linejoin="round"/>
<path d="M14.0203 14.9478L13.3988 18.1114L13.8441 18.4175L16.5531 16.3023L16.6459 14.1777L14.0203 14.9478ZM7.60034 14.1777L7.67456 16.3023L10.3836 18.4175L10.8289 18.1114L10.2166 14.9478L7.60034 14.1777Z" fill="#F6851B" stroke="#F6851B" stroke-width="0.579568" stroke-linecap="round" stroke-linejoin="round"/>
<path d="M14.066 21.3298L14.0938 20.467L13.8619 20.2629H10.3643L10.1509 20.467L10.1695 21.3298L7.24707 19.9474L8.26759 20.7824L10.3365 22.2204H13.8897L15.9679 20.7824L16.9884 19.9474L14.066 21.3298Z" fill="#C0AD9E" stroke="#C0AD9E" stroke-width="0.579568" stroke-linecap="round" stroke-linejoin="round"/>
<path d="M13.8431 18.4181L13.3977 18.1119H10.8279L10.3826 18.4181L10.1506 20.4684L10.364 20.2643H13.8616L14.0936 20.4684L13.8431 18.4181Z" fill="#161616" stroke="#161616" stroke-width="0.579568" stroke-linecap="round" stroke-linejoin="round"/>
<path d="M23.1587 7.59118L23.9473 3.80598L22.7691 0.289825L13.8442 6.91393L17.2768 9.81777L22.1289 11.2372L23.2051 9.98477L22.7412 9.65078L23.4834 8.97353L22.9082 8.52821L23.6504 7.96228L23.1587 7.59118ZM0.289795 3.80598L1.07838 7.59118L0.577396 7.96228L1.31959 8.52821L0.753668 8.97353L1.49586 9.65078L1.03199 9.98477L2.0989 11.2372L6.95101 9.81777L10.3837 6.91393L1.45875 0.289825L0.289795 3.80598Z" fill="#763D16" stroke="#763D16" stroke-width="0.579568" stroke-linecap="round" stroke-linejoin="round"/>
<path d="M22.1277 11.2369L17.2756 9.81746L18.7507 12.0348L16.552 16.3024L19.4465 16.2653H23.7605L22.1277 11.2369ZM6.94979 9.81746L2.09768 11.2369L0.483398 16.2653H4.78814L7.67343 16.3024L5.48395 12.0348L6.94979 9.81746ZM13.5368 12.2667L13.8429 6.91362L15.2531 3.10059H8.99083L10.3824 6.91362L10.7072 12.2667L10.8185 13.9552L10.8278 18.1115H13.3976L13.4162 13.9552L13.5368 12.2667Z" fill="#F6851B" stroke="#F6851B" stroke-width="0.579568" stroke-linecap="round" stroke-linejoin="round"/>
</svg>
