<svg width="20" height="20" viewBox="0 0 20 20" fill="none" xmlns="http://www.w3.org/2000/svg">
<path d="M18.5707 19.9917C18.9114 19.7483 19.0555 19.5789 19.1042 19.1485C19.2152 18.167 19.2152 15.6004 19.1042 14.6189C19.0536 14.1671 18.8433 13.8205 18.3506 13.7737L13.3926 13.7932C12.9194 14.0775 12.7013 14.6111 13.0226 15.1038C13.0791 15.1914 13.3926 15.4621 13.4627 15.4621H16.0839C11.2914 20.796 2.72292 17.9528 1.79208 10.878C1.72392 10.3619 1.91476 9.87899 1.56229 9.41941C1.04429 8.74367 0.288707 9.10393 0.00439059 9.77967C0.0141275 9.98415 -0.00924103 10.1964 0.00439059 10.4009C0.21276 13.4466 1.67913 16.2839 4.1893 18.0735C8.34694 21.0355 13.932 20.3578 17.4159 16.7065V19.5029C17.4159 19.5905 17.7917 19.8924 17.8599 19.9917H18.5707Z" fill="#737373"/>
<path d="M19.9921 10.0474V9.51379L19.6824 7.64821C18.9015 4.3182 16.3135 1.54319 13.0633 0.499403L10.7518 0.0125599C10.2571 0.0398226 9.7333 -0.0263882 9.24061 0.0125599C7.21924 0.172244 5.15502 1.04856 3.60297 2.32409C3.35954 2.52467 3.15897 2.88493 2.84544 2.94336V0.678561C2.84544 0.143033 1.35764 -0.215284 1.17849 0.787613C0.93117 2.17025 1.32064 4.11957 1.15512 5.56452C1.17654 5.95205 1.51149 6.29479 1.9107 6.3201C3.38291 6.15068 5.37118 6.54989 6.77913 6.29673C7.78203 6.11758 7.42371 4.62978 6.88819 4.62978H3.82302C3.91455 4.33183 4.29234 3.99688 4.53186 3.78462C8.90566 -0.0633888 15.9629 1.78856 17.7935 7.31326C18.1401 8.36095 18.0603 9.08927 18.2336 10.0688C18.4069 11.0483 19.7642 11.0055 19.9901 10.0454L19.9921 10.0474Z" fill="#737373"/>
</svg>
