<svg width="21" height="22" viewBox="0 0 21 22" fill="none" xmlns="http://www.w3.org/2000/svg">
<path d="M9.97946 0.0390994C12.836 -0.17029 15.9073 0.407157 17.4243 3.09736C18.0405 4.19047 18.5534 5.96053 18.0895 7.172C17.3559 9.08837 14.2703 8.92319 14.5175 6.43328C14.6097 5.50533 15.5047 3.95702 15.4802 3.17604C15.4485 2.17786 14.3336 2.38075 13.7122 2.69548L2.61725 8.42118C2.02298 8.79899 1.49646 9.37319 1.96233 10.0956C2.2914 10.6061 2.84179 10.5716 3.38121 10.5567C7.82177 10.4318 12.4714 9.56957 16.9294 9.38424C19.3942 9.2815 20.344 10.9241 20.0504 13.2449C19.2684 19.4271 8.88836 24.1774 3.77804 20.8161C2.11267 19.7211 1.01834 17.5485 1.21772 15.5294C1.45065 13.1747 4.41747 12.9432 5.22016 15.201C5.72151 16.6114 5.93896 18.2878 6.41063 19.7237C6.78809 20.8714 7.45915 21.2414 8.55283 20.5807C11.3648 18.0323 14.5439 15.6685 17.2843 13.0583C17.6262 12.7325 18.1869 12.2344 18.2457 11.7506C18.3147 11.181 17.8334 10.4806 17.2507 10.424L5.18725 11.7922C4.10905 11.67 2.61079 12.0257 1.62422 11.6062C-0.0521221 10.8922 -0.191494 8.53043 0.151775 6.97756C1.07189 2.81579 6.07833 0.325872 9.97946 0.0390994Z" fill="#4CA1FE"/>
</svg>
