<svg width="19" height="19" viewBox="0 0 19 19" fill="none" xmlns="http://www.w3.org/2000/svg">
<path d="M10.6885 0.229126L12.2132 0.334614C14.1223 0.553028 16.0901 1.01217 17.132 2.77885C18.3333 4.81581 18.2515 8.51651 18.1539 10.8372C17.9964 14.5865 17.3959 17.1896 13.2833 17.9241C11.1337 18.3079 8.07692 18.3079 5.90745 18.0416C2.12193 17.5769 0.723026 15.9668 0.346645 12.2064L0.241203 10.7511C0.269765 9.72502 0.202861 8.6901 0.241203 7.66477C0.312019 5.77049 0.594892 3.15324 2.08066 1.80675C3.45785 0.558703 5.88985 0.296255 7.67315 0.229517L10.6885 0.229126ZM9.13838 4.72656C8.79506 4.76434 8.50319 5.05692 8.4803 5.40275L8.47873 12.9791C8.55953 13.913 9.8391 13.9179 9.95198 13.0126L9.95354 5.43621C9.94709 5.01974 9.55075 4.68116 9.13838 4.72656ZM12.7827 7.74286C12.5037 7.79022 12.2811 8.03975 12.2339 8.31629L12.23 13.0838C12.4454 13.9348 13.6015 13.8749 13.699 12.9734C13.6139 11.525 13.8273 9.91721 13.7046 8.48735C13.6604 7.97165 13.3091 7.65342 12.7827 7.74286ZM5.42348 9.21578C5.05238 9.24201 4.77186 9.53538 4.73879 9.90136C4.77851 10.8756 4.65213 11.9456 4.72765 12.9088C4.8014 13.8492 5.90452 13.9704 6.19913 13.1159C6.12596 12.0726 6.30379 10.8801 6.20304 9.85458C6.16607 9.47862 5.8026 9.18897 5.42348 9.21578Z" fill="#EEB117" stroke="black" stroke-width="0.458367" stroke-miterlimit="10" stroke-linejoin="round"/>
</svg>
