<svg xmlns="http://www.w3.org/2000/svg" xmlns:xlink="http://www.w3.org/1999/xlink" width="940" zoomAndPan="magnify" viewBox="0 0 705 591.000005" height="788" preserveAspectRatio="xMidYMid meet" version="1.0"><defs><clipPath id="b5411fc929"><path d="M 169.117188 99.96875 L 535.996094 99.96875 L 535.996094 531.242188 L 169.117188 531.242188 Z M 169.117188 99.96875 " clip-rule="nonzero"/></clipPath></defs><path fill="#ffffff" d="M 505.285156 300.183594 L 444.191406 361.808594 L 383.09375 361.808594 L 329.628906 415.71875 L 329.628906 361.808594 L 260.890625 361.808594 L 260.890625 130.757812 L 505.285156 130.757812 Z M 505.285156 300.183594 " fill-opacity="1" fill-rule="nonzero"/><g clip-path="url(#b5411fc929)"><path fill="#9146ff" d="M 245.613281 99.953125 L 535.824219 99.953125 L 535.824219 315.605469 L 398.371094 454.234375 L 337.273438 454.234375 L 260.890625 531.253906 L 260.890625 454.234375 L 169.230469 454.234375 L 169.230469 176.96875 Z M 505.285156 300.183594 L 505.285156 130.757812 L 260.890625 130.757812 L 260.890625 361.808594 L 329.628906 361.808594 L 329.628906 415.71875 L 383.09375 361.808594 L 444.191406 361.808594 Z M 344.886719 184.675781 L 375.449219 184.675781 L 375.449219 277.085938 L 344.886719 277.085938 Z M 428.910156 184.675781 L 459.472656 184.675781 L 459.472656 277.085938 L 428.910156 277.085938 Z M 428.910156 184.675781 " fill-opacity="1" fill-rule="evenodd"/></g></svg>