<svg width="10" height="19" viewBox="0 0 10 19" fill="none" xmlns="http://www.w3.org/2000/svg">
<path d="M3.02573 1.10266L1.10254 8.9096L4.06238 9.03791L2.24609 15.3663L8.74609 6.36633H5.74609L8.5619 1.10266H3.02573Z" fill="#EEB117"/>
<path d="M0.375587 18.9457C0.0674099 18.7694 -0.0524719 18.5661 0.0220705 18.2034L3.07545 10.0287H0.394169C0.378444 10.0287 0.218331 9.9257 0.189535 9.90037C0.0108371 9.74345 -0.0261232 9.54649 0.0155389 9.31664C0.805893 6.29377 1.4684 3.22677 2.32002 0.226383C2.4158 0.102567 2.55692 0 2.72234 0L9.38256 0.000612925C9.83329 0.00388199 10.0965 0.31996 9.96256 0.768639L7.10667 5.58888H9.60313C9.63498 5.58888 9.80878 5.71596 9.84513 5.75376C10.0506 5.96789 10.0453 6.29091 9.86678 6.51852L1.14572 18.5505C1.03258 18.7175 0.923119 18.8452 0.745646 18.9459H0.375791L0.375587 18.9457ZM8.43802 1.11169H3.22331L1.30012 8.91863H4.05533C4.07105 8.91863 4.23117 9.0216 4.25996 9.04694C4.43988 9.20508 4.47501 9.4 4.43478 9.63149C3.88092 11.1532 3.28274 12.6601 2.72888 14.1818C2.68701 14.2971 2.72051 14.2443 2.6574 14.3663C2.64903 14.3827 2.55386 14.5776 2.64944 14.5422L8.32671 6.69852H5.94135C5.92563 6.69852 5.76552 6.59555 5.73672 6.57021C5.5474 6.4039 5.50574 6.16832 5.58191 5.93193L8.43781 1.11169H8.43802Z" fill="#EEB117"/>
</svg>
